<?xml version="1.0" encoding="UTF-8"?>
<svg width="478px" height="333px" viewBox="0 0 478 333" version="1.1" xmlns="http://www.w3.org/2000/svg" xmlns:xlink="http://www.w3.org/1999/xlink">
    <title>Group 4</title>
    <g id="Page-1" stroke="none" stroke-width="1" fill="none" fill-rule="evenodd">
        <g id="Group" transform="translate(-364.000000, 0.000000)" fill="#FFFFFF" fill-rule="nonzero">
            <g id="Group-2" transform="translate(285.000000, 0.000000)">
                <g id="Group-4" transform="translate(79.000000, 0.000000)">
                    <path d="M22.3,243.6 C25.9,243.6 29.5,243 33.7,241.5 C62.5,231.6 74.8,193.2 79.3,154.8 C93.7,146.4 106,138 115.3,129 C115.9,128.4 115.9,127.8 115.9,127.2 C115.6,126.3 115,125.4 113.8,125.4 L113.686328,125.401172 C113.415625,125.409375 113.0875,125.475 112.3,126 C104.5,134.1 93.1,141.3 79.9,149.1 C81.4,136.8 82,123 82,109.2 C82,70.8 77.2,31.5 71.2,14.1 C68.2,5.1 62.5,0.6 54.7,0.6 C52,0.6 49.3,1.2 46,2.1 C26.5,8.4 4,37.5 4,63.9 C4,73.5 7.6,86.7 13.6,86.7 C17.2,86.7 19.3,83.7 19.3,81 C19.3,80.1 19,79.2 18.4,78.3 C16,75 11.2,78.3 10,74.7 C9.1,71.4 8.5,67.8 8.5,64.2 C8.5,41.4 26.8,16.2 42.7,8.1 L44.5,7.8 C51.7,7.8 54.7,29.1 55,31.5 C58,53.4 61,86.4 61,119.1 C61,133.5 60.4,147.9 58.9,161.1 C50.5,165.3 41.5,170.1 31.9,174.6 C9.7,185.4 1.6,201.3 0.4,218.7 C0.4,232.2 8.2,243.6 22.3,243.6 Z M17.2,238.2 L16.6,238.2 C8.2,235.5 4.9,227.4 4.9,219 C6.1,203.4 13,188.7 34,178.5 C42.4,174.3 50.5,170.4 58.3,166.2 C55.9,185.7 42.7,238.2 17.2,238.2 Z M127.9,188.1 C133.3,188.1 137.8,183.6 141.1,177.3 C146.8,166.8 149.8,151.2 150.7,142.8 C160.3,140.1 170.2,135.3 177.1,129.3 C177.7,128.7 178,128.1 178,127.8 C178,127.2 177.7,126.6 177.4,126.3 C177.1,125.7 176.5,125.4 175.9,125.4 C175.3,125.4 174.7,125.7 174.4,126 C168.1,131.4 159.7,135.3 150.7,138 L150.7,135.6 C150.7,112.2 138.7,101.7 127,101.7 C118.9,101.7 110.8,106.8 107.2,115.8 C106.3,117.9 106,120 106,122.1 C106,128.7 109.6,133.8 109.9,134.4 C109.9,134.7 108.1,144.3 108.1,155.7 C108.1,166.5 109.6,178.5 116.2,185.1 C118.6,187.5 122.8,188.1 126.4,188.1 L127.9,188.1 Z M132.4,140.7 C130.3,140.7 128.2,140.7 126.4,140.4 C127,135 127.9,130.5 128.8,127.5 L129.1,125.7 C129.1,122.4 126.1,120.3 122.8,119.4 L119.2,118.8 C116.2,118.8 113.2,120 112.6,122.4 C112.6,123 112.3,123.6 112,124.2 C112.6,115.5 121,108.6 129.4,108.6 C137.8,108.6 146.5,116.1 146.5,135.6 L146.5,139.2 C141.7,140.1 136.9,140.7 132.4,140.7 Z M128.5,183.6 C126.1,181.8 125.2,174.6 124.9,165.9 C124.9,159 125.2,151.5 125.8,144.6 C127.9,144.9 130.3,145.2 132.7,145.2 C136.9,145.2 141.4,144.6 145.9,143.7 C144.7,154.8 141.4,167.7 136.9,175.8 C134.2,180.3 131.5,183.3 128.5,183.6 Z M196.3,230.4 C212.2,228.3 225.7,210 229,189.9 C229.3,186.9 229.6,183.9 229.6,180.9 C229.6,171.3 227.2,161.4 221.2,153.3 C232.6,143.4 244.9,135 256,129.6 C256.9,129.3 257.2,128.4 257.2,127.8 L256.9,126.6 C256.6,126 256,125.4 255.1,125.4 L254.2,125.7 C242.8,131.1 230.2,139.8 218.2,150 C205.9,136.2 185.5,128.1 184.9,114 L184.9,113.1 C184.9,104.1 193.3,99.9 200.8,99.9 L204.4,100.2 C209.8,101.1 214,104.1 214,109.2 C214,113.7 209.5,110.7 208,114.9 L207.7,116.4 C207.7,118.2 208.9,119.4 210.1,120 L211.6,120.3 C213.4,120.3 215.2,119.4 216.4,117 C217.9,114 218.5,111.3 218.5,108.9 C218.5,102 212.8,96.9 204.7,95.7 L201.1,95.4 C187,95.4 172.9,107.4 172.9,121.8 C172.9,123.9 173.2,126.3 173.8,128.4 C178.3,142.5 195.4,149.1 205.6,161.7 C193.6,173.7 181.6,188.4 176.8,203.7 C175.9,206.4 175.6,209.1 175.6,211.5 C175.6,222.9 183.7,230.4 193.9,230.4 L196.3,230.4 Z M193.6,225.9 C185.2,225.9 180.1,219.6 180.1,211.5 C180.1,209.7 180.1,207.9 180.7,206.1 C184.9,190.8 201.7,172.2 208.3,165.3 C212.2,171.6 213.7,178.2 213.7,185.1 L213.4,189.6 C213.1,203.7 208.6,221.4 197.5,225.6 C196,225.9 194.8,225.9 193.6,225.9 Z M264.4,100.2 C268.6,100.2 272.2,96.6 272.2,92.4 C272.2,90 271.3,88.2 270.1,86.7 C268.6,85.5 266.5,84.6 264.4,84.6 C262.3,84.6 260.5,85.5 259,86.7 C257.5,88.2 256.6,90.3 256.6,92.4 C256.6,96.6 260.2,100.2 264.4,100.2 Z M271.9,183.6 L276.4,183.3 C291.1,182.7 300.1,147.3 306.7,128.4 L306.7,127.5 C306.7,126.9 306.4,126 305.8,125.7 L304.6,125.4 C304,125.4 302.8,126 302.5,126.9 C296.8,143.7 287.5,178.8 276.4,179.1 C271.657831,179.1 270.429438,170.022746 270.400527,158.811121 L270.4,158.4 C270.4,143.28 272.743862,124.351225 272.799011,118.406754 L272.8,117.9 C272.8,114.3 268.3,111.9 263.8,111.9 L262.9,111.9 C258.1,111.9 253.3,114 253,118.8 C252.409677,121.456452 251.528954,130.792118 251.500697,141.664097 L251.5,142.2 C251.5,159 253.9,179.1 264.1,182.7 C266.2,183.3 269.2,183.6 271.9,183.6 Z M329.5,186.3 C339.4,185.7 347.8,176.4 354.7,165 C362.5,152.4 368.2,137.4 371.5,128.4 L371.5,127.5 C371.5,126.9 371.5,126 370.6,125.7 L369.4,125.4 C368.5,125.4 367.6,126 367.3,126.9 C363.1,138.3 357.4,151.8 350.8,162.9 C343.9,174 337,181.8 328,181.8 L326.5,181.8 C319.9,181.2 318.1,170.7 318.1,159.3 C318.1,147.9 319.9,135.3 320.8,131.1 C322.9,132 325,132.6 326.8,132.6 C334.9,132.6 341.8,125.1 343.9,117.3 C344.5,115.5 344.8,113.7 344.8,111.6 C344.8,105 341.2,99.3 333.1,98.4 L328.6,98.1 C325.6,98.1 322.6,98.7 319.9,99.6 C307,104.7 298.9,125.7 298.9,145.8 C298.9,164.1 305.8,181.8 321.4,185.4 C324.1,186 326.8,186.3 329.5,186.3 Z M326.8,128.1 C325.3,128.1 323.5,127.8 321.7,126.6 C324.7,113.4 328.9,103.2 332.8,102.9 C338.2,103.8 340.3,107.4 340.3,111.9 C340.3,113.4 340.3,114.9 339.7,116.7 C337.6,122.4 332.5,128.1 326.8,128.1 Z M374.8,36.6 C379.9,34.8 385,26.7 385,19.2 C385,14.7 381.1,12.3 377.8,12.3 C373.9,12.3 370.9,15.3 370.9,19.5 C370.9,23.1 373.6,26.4 377.5,26.4 L378.1,26.4 C377.2,29.4 375.1,32.4 373.3,34.2 C373,34.5 373,34.8 373,35.1 C373,35.7 373.6,36.6 374.8,36.6 Z M416.5,230.4 C432.4,228.3 445.9,210 449.2,189.9 C449.5,186.9 449.8,183.9 449.8,180.9 C449.8,171.3 447.4,161.4 441.4,153.3 C452.8,143.4 465.1,135 476.2,129.6 C477.1,129.3 477.4,128.4 477.4,127.8 L477.1,126.6 C476.8,126 476.2,125.4 475.3,125.4 L474.4,125.7 C463,131.1 450.4,139.8 438.4,150 C426.1,136.2 405.7,128.1 405.1,114 L405.1,113.1 C405.1,104.1 413.5,99.9 421,99.9 L424.6,100.2 C430,101.1 434.2,104.1 434.2,109.2 C434.2,113.7 429.7,110.7 428.2,114.9 L427.9,116.4 C427.9,118.2 429.1,119.4 430.3,120 L431.8,120.3 C433.6,120.3 435.4,119.4 436.6,117 C438.1,114 438.7,111.3 438.7,108.9 C438.7,102 433,96.9 424.9,95.7 L421.3,95.4 C407.2,95.4 393.1,107.4 393.1,121.8 C393.1,123.9 393.4,126.3 394,128.4 C398.5,142.5 415.6,149.1 425.8,161.7 C413.8,173.7 401.8,188.4 397,203.7 C396.1,206.4 395.8,209.1 395.8,211.5 C395.8,222.9 403.9,230.4 414.1,230.4 L416.5,230.4 Z M413.8,225.9 C405.4,225.9 400.3,219.6 400.3,211.5 C400.3,209.7 400.3,207.9 400.9,206.1 C405.1,190.8 421.9,172.2 428.5,165.3 C432.4,171.6 433.9,178.2 433.9,185.1 L433.6,189.6 C433.3,203.7 428.8,221.4 417.7,225.6 C416.2,225.9 415,225.9 413.8,225.9 Z" id="Josie’s"></path>
                    <path d="M134.75,310.75 C142.85,310.15 153.35,278.35 157.25,269.2 L157.4,268.75 C157.4,268.3 157.1,268 156.8,267.85 L156.2,267.7 C155.75,267.7 155.3,267.85 155.15,268.3 C151.7,276.4 140.9,308.2 134.75,308.5 C133.4,308.5 132.95,306.7 132.95,304 C132.95,298.15 135.2,287.65 136.85,280.15 C137.3,277.9 137.9,275.8 137.9,273.85 C137.9,272.65 137.75,271.6 137.15,270.55 C134.3,265.45 126.2,267.25 120.95,265.15 C123.2,262.9 125.45,257.65 126.05,253 L126.2,250.75 C126.2,247.9 125.15,245.95 123.2,245.05 C122.6,244.9 122,244.75 121.4,244.75 C118.1,244.75 113.9,247.75 112.7,255.25 C112.4,256.9 112.25,258.55 112.25,259.9 C112.25,264.7 113.9,267.7 116.15,269.5 C114.65,274.45 111.95,282.55 108.8,290.2 C106.4,295.75 103.85,301 101.45,304.15 C101.3,304.3 101.3,304.6 101.3,304.9 C101.3,305.2 101.3,305.5 101.6,305.65 L102.35,305.95 C102.65,305.95 102.95,305.8 103.25,305.5 C105.8,302.05 108.35,296.8 110.75,290.95 C113.9,283.75 116.6,275.95 118.1,270.85 C122.45,273.25 127.85,273.25 128.75,275.05 L128.9,275.65 C128.9,278.65 126.05,289.6 126.05,298.6 C126.05,302.95 126.65,306.7 128.45,308.95 C129.746,310.534 131.7332,310.7356 133.615338,310.749194 L134.75,310.75 Z M118.85,264.1 C116.9,262.45 116.6,260.2 116.6,257.65 L116.6,255.85 C117.2,250.3 120.05,247.15 122,247.15 L122.45,247.15 C123.5,247.45 124.25,248.5 124.25,250.75 L124.1,252.25 C123.65,256.3 121.55,261.85 118.85,264.1 Z M168.65,298.15 C173.6,297.85 177.8,293.2 181.25,287.5 C185.15,281.2 188,273.7 189.65,269.2 L189.65,268.75 C189.65,268.45 189.65,268 189.2,267.85 L188.6,267.7 C188.15,267.7 187.7,268 187.55,268.45 C185.45,274.15 182.6,280.9 179.3,286.45 C175.85,292 172.4,295.9 167.9,295.9 L167.15,295.9 C163.85,295.6 162.95,290.35 162.95,284.65 C162.95,278.95 163.85,272.65 164.3,270.55 C165.35,271 166.4,271.3 167.3,271.3 C171.35,271.3 174.8,267.55 175.85,263.65 C176.15,262.75 176.3,261.85 176.3,260.8 C176.3,257.5 174.5,254.65 170.45,254.2 L168.2,254.05 C166.7,254.05 165.2,254.35 163.85,254.8 C157.4,257.35 153.35,267.85 153.35,277.9 C153.35,287.05 156.8,295.9 164.6,297.7 C165.95,298 167.3,298.15 168.65,298.15 Z M167.3,269.05 C166.55,269.05 165.65,268.9 164.75,268.3 C166.25,261.7 168.35,256.6 170.3,256.45 C173,256.9 174.05,258.7 174.05,260.95 C174.05,261.7 174.05,262.45 173.75,263.35 C172.7,266.2 170.15,269.05 167.3,269.05 Z M200.75,308.65 C213.2,307 221.6,273.4 224.15,269.35 C224.3,269.2 224.3,269.05 224.3,268.75 C224.3,268.45 224.15,268.15 224,268 C223.85,267.85 223.55,267.7 223.25,267.7 C222.95,267.7 222.65,267.85 222.35,268.15 C219.5,272.65 210.95,306.4 199.7,306.55 C195.95,306.4 195.05,299.8 195.05,292.9 C195.05,286.9 195.8,280.75 196.1,278.5 C196.7,274.9 200.6,255.1 204.2,255.1 L204.35,255.1 C205.85,255.85 207.2,257.35 207.2,259.15 L207.05,260.05 C206.75,260.95 205.1,260.65 204.5,262.15 C204.35,262.45 204.35,262.9 204.35,263.2 C204.35,263.95 204.65,264.55 205.4,264.85 L206.3,265.15 C207.2,265.15 207.95,264.55 208.25,263.8 C209,262.3 209.15,261.25 209.3,260.05 L209.3,259.3 C209.3,255.4 206.15,252.7 202.55,252.4 L201.65,252.4 C193.25,252.4 187.4,263.8 185.45,276.4 C185.15,278.8 184.85,281.95 184.85,285.1 C184.85,295 187.25,306.7 196.1,308.65 C196.725,308.775 197.35,308.795833 197.975,308.799306 L198.35,308.8 C199.1,308.8 200,308.8 200.75,308.65 Z M228.05,255.1 C230.15,255.1 231.95,253.3 231.95,251.2 C231.95,250 231.5,249.1 230.9,248.35 C230.15,247.75 229.1,247.3 228.05,247.3 C227,247.3 226.1,247.75 225.35,248.35 C224.6,249.1 224.15,250.15 224.15,251.2 C224.15,253.3 225.95,255.1 228.05,255.1 Z M231.8,296.8 L234.05,296.65 C241.4,296.35 245.9,278.65 249.2,269.2 L249.2,268.75 C249.2,268.45 249.05,268 248.75,267.85 L248.15,267.7 C247.85,267.7 247.25,268 247.1,268.45 C244.25,276.85 239.6,294.4 234.05,294.55 C231.65,294.55 231.05,289.9 231.05,284.2 C231.05,276.55 232.25,266.95 232.25,264.1 L232.25,263.95 C232.25,262.15 230,260.95 227.75,260.95 L227.3,260.95 C224.9,260.95 222.5,262 222.35,264.4 C222.057317,265.717073 221.621862,270.317906 221.600794,275.69528 L221.6,276.1 C221.6,284.5 222.8,294.55 227.9,296.35 C228.95,296.65 230.45,296.8 231.8,296.8 Z M250.4,332.05 C252.35,332.05 254.3,331.15 254.3,329.05 L254.15,316.3 C254.15,304.75 254.45,290.5 255.5,283.75 C256.85,274.75 259.4,267.85 261.8,263.05 C264.05,258.7 266.6,256.15 269.15,255.25 C271.55,255.4 272.15,260.65 272.15,266.5 C272.15,272.95 271.4,280.15 270.95,282.1 C265.4,285.55 259.1,290.2 259.1,294.85 C259.1,296.05 259.4,297.1 260.15,298.15 C261.2,299.8 262.7,300.4 264.2,300.4 C265.55,300.4 267.05,299.95 268.25,299.2 C274.4,295.75 278.75,287.05 280.4,279.1 C285.8,276.25 293.3,272.65 297.65,269.8 C298.1,269.5 298.25,269.2 298.25,268.75 C298.25,268.6 298.25,268.45 298.1,268.3 C297.95,268 297.5,267.7 297.05,267.7 C296.9,267.7 296.75,267.7 296.45,267.85 C292.55,270.4 285.95,273.7 281,276.4 C281.15,274.9 281.3,272.95 281.3,271 C281.3,263.05 279.2,253 271.4,252.7 C266.45,252.7 263.3,255.85 260.3,261.25 C258.8,264.1 257.45,267.25 256.55,270.1 L257.15,262.75 C257.15,260.5 254.9,259.3 252.65,259.3 L252.2,259.3 C249.65,259.3 247.4,260.65 247.25,263.05 C246.35,271.6 245.9,285.85 245.75,299.2 C245.75,311.95 246.05,323.8 246.8,329.65 C246.95,331.3 248.6,332.05 250.4,332.05 Z M264.2,298.15 C263.3,298.15 262.55,297.7 262.1,296.95 C261.65,296.35 261.5,295.6 261.5,294.85 C261.5,291.7 265.4,288.25 270.35,285.1 C269.45,288.85 266.75,298 264.2,298.15 Z M309.65,298.15 C314.6,297.85 318.8,293.2 322.25,287.5 C326.15,281.2 329,273.7 330.65,269.2 L330.65,268.75 C330.65,268.45 330.65,268 330.2,267.85 L329.6,267.7 C329.15,267.7 328.7,268 328.55,268.45 C326.45,274.15 323.6,280.9 320.3,286.45 C316.85,292 313.4,295.9 308.9,295.9 L308.15,295.9 C304.85,295.6 303.95,290.35 303.95,284.65 C303.95,278.95 304.85,272.65 305.3,270.55 C306.35,271 307.4,271.3 308.3,271.3 C312.35,271.3 315.8,267.55 316.85,263.65 C317.15,262.75 317.3,261.85 317.3,260.8 C317.3,257.5 315.5,254.65 311.45,254.2 L309.2,254.05 C307.7,254.05 306.2,254.35 304.85,254.8 C298.4,257.35 294.35,267.85 294.35,277.9 C294.35,287.05 297.8,295.9 305.6,297.7 C306.95,298 308.3,298.15 309.65,298.15 Z M308.3,269.05 C307.55,269.05 306.65,268.9 305.75,268.3 C307.25,261.7 309.35,256.6 311.3,256.45 C314,256.9 315.05,258.7 315.05,260.95 C315.05,261.7 315.05,262.45 314.75,263.35 C313.7,266.2 311.15,269.05 308.3,269.05 Z M340.1,320.2 C348.05,319.15 354.8,310 356.45,299.95 C356.6,298.45 356.75,296.95 356.75,295.45 C356.75,290.65 355.55,285.7 352.55,281.65 C358.25,276.7 364.4,272.5 369.95,269.8 C370.4,269.65 370.55,269.2 370.55,268.9 L370.4,268.3 C370.25,268 369.95,267.7 369.5,267.7 L369.05,267.85 C363.35,270.55 357.05,274.9 351.05,280 C344.9,273.1 334.7,269.05 334.4,262 L334.4,261.55 C334.4,257.05 338.6,254.95 342.35,254.95 L344.15,255.1 C346.85,255.55 348.95,257.05 348.95,259.6 C348.95,261.85 346.7,260.35 345.95,262.45 L345.8,263.2 C345.8,264.1 346.4,264.7 347,265 L347.75,265.15 C348.65,265.15 349.55,264.7 350.15,263.5 C350.9,262 351.2,260.65 351.2,259.45 C351.2,256 348.35,253.45 344.3,252.85 L342.5,252.7 C335.45,252.7 328.4,258.7 328.4,265.9 C328.4,266.95 328.55,268.15 328.85,269.2 C331.1,276.25 339.65,279.55 344.75,285.85 C338.75,291.85 332.75,299.2 330.35,306.85 C329.9,308.2 329.75,309.55 329.75,310.75 C329.75,316.45 333.8,320.2 338.9,320.2 L340.1,320.2 Z M338.75,317.95 C334.55,317.95 332,314.8 332,310.75 C332,309.85 332,308.95 332.3,308.05 C334.4,300.4 342.8,291.1 346.1,287.65 C348.05,290.8 348.8,294.1 348.8,297.55 L348.65,299.8 C348.5,306.85 346.25,315.7 340.7,317.8 C339.95,317.95 339.35,317.95 338.75,317.95 Z" id="recipes"></path>
                </g>
            </g>
        </g>
    </g>
</svg>