<?xml version="1.0" encoding="UTF-8"?>
<svg width="1067px" height="255px" viewBox="0 0 1067 255" version="1.1" xmlns="http://www.w3.org/2000/svg" xmlns:xlink="http://www.w3.org/1999/xlink">
    <title>Josie’s recipes</title>
    <g id="Page-1" stroke="none" stroke-width="1" fill="none" fill-rule="evenodd">
        <g id="Josie’s-recipes" transform="translate(0.600000, 0.600000)" fill-rule="nonzero">
            <path d="M21.9,243 C25.5,243 29.1,242.4 33.3,240.9 C62.1,231 74.4,192.6 78.9,154.2 C93.3,145.8 105.6,137.4 114.9,128.4 C115.5,127.8 115.5,127.2 115.5,126.6 C115.2,125.7 114.6,124.8 113.4,124.8 C113.1,124.8 112.8,124.8 111.9,125.4 C104.1,133.5 92.7,140.7 79.5,148.5 C81,136.2 81.6,122.4 81.6,108.6 C81.6,70.2 76.8,30.9 70.8,13.5 C67.8,4.5 62.1,0 54.3,0 C51.6,0 48.9,0.6 45.6,1.5 C26.1,7.8 3.6,36.9 3.6,63.3 C3.6,72.9 7.2,86.1 13.2,86.1 C16.8,86.1 18.9,83.1 18.9,80.4 C18.9,79.5 18.6,78.6 18,77.7 C15.6,74.4 10.8,77.7 9.6,74.1 C8.7,70.8 8.1,67.2 8.1,63.6 C8.1,40.8 26.4,15.6 42.3,7.5 L44.1,7.2 C51.3,7.2 54.3,28.5 54.6,30.9 C57.6,52.8 60.6,85.8 60.6,118.5 C60.6,132.9 60,147.3 58.5,160.5 C50.1,164.7 41.1,169.5 31.5,174 C9.3,184.8 1.2,200.7 0,218.1 C0,231.6 7.8,243 21.9,243 Z M16.8,237.6 L16.2,237.6 C7.8,234.9 4.5,226.8 4.5,218.4 C5.7,202.8 12.6,188.1 33.6,177.9 C42,173.7 50.1,169.8 57.9,165.6 C55.5,185.1 42.3,237.6 16.8,237.6 Z M127.5,187.5 C132.9,187.5 137.4,183 140.7,176.7 C146.4,166.2 149.4,150.6 150.3,142.2 C159.9,139.5 169.8,134.7 176.7,128.7 C177.3,128.1 177.6,127.5 177.6,127.2 C177.6,126.6 177.3,126 177,125.7 C176.7,125.1 176.1,124.8 175.5,124.8 C174.9,124.8 174.3,125.1 174,125.4 C167.7,130.8 159.3,134.7 150.3,137.4 L150.3,135 C150.3,111.6 138.3,101.1 126.6,101.1 C118.5,101.1 110.4,106.2 106.8,115.2 C105.9,117.3 105.6,119.4 105.6,121.5 C105.6,128.1 109.2,133.2 109.5,133.8 C109.5,134.1 107.7,143.7 107.7,155.1 C107.7,165.9 109.2,177.9 115.8,184.5 C118.2,186.9 122.4,187.5 126,187.5 L127.5,187.5 Z M132,140.1 C129.9,140.1 127.8,140.1 126,139.8 C126.6,134.4 127.5,129.9 128.4,126.9 L128.7,125.1 C128.7,121.8 125.7,119.7 122.4,118.8 L118.8,118.2 C115.8,118.2 112.8,119.4 112.2,121.8 C112.2,122.4 111.9,123 111.6,123.6 C112.2,114.9 120.6,108 129,108 C137.4,108 146.1,115.5 146.1,135 L146.1,138.6 C141.3,139.5 136.5,140.1 132,140.1 Z M128.1,183 C125.7,181.2 124.8,174 124.5,165.3 C124.5,158.4 124.8,150.9 125.4,144 C127.5,144.3 129.9,144.6 132.3,144.6 C136.5,144.6 141,144 145.5,143.1 C144.3,154.2 141,167.1 136.5,175.2 C133.8,179.7 131.1,182.7 128.1,183 Z M195.9,229.8 C211.8,227.7 225.3,209.4 228.6,189.3 C228.9,186.3 229.2,183.3 229.2,180.3 C229.2,170.7 226.8,160.8 220.8,152.7 C232.2,142.8 244.5,134.4 255.6,129 C256.5,128.7 256.8,127.8 256.8,127.2 L256.5,126 C256.2,125.4 255.6,124.8 254.7,124.8 L253.8,125.1 C242.4,130.5 229.8,139.2 217.8,149.4 C205.5,135.6 185.1,127.5 184.5,113.4 L184.5,112.5 C184.5,103.5 192.9,99.3 200.4,99.3 L204,99.6 C209.4,100.5 213.6,103.5 213.6,108.6 C213.6,113.1 209.1,110.1 207.6,114.3 L207.3,115.8 C207.3,117.6 208.5,118.8 209.7,119.4 L211.2,119.7 C213,119.7 214.8,118.8 216,116.4 C217.5,113.4 218.1,110.7 218.1,108.3 C218.1,101.4 212.4,96.3 204.3,95.1 L200.7,94.8 C186.6,94.8 172.5,106.8 172.5,121.2 C172.5,123.3 172.8,125.7 173.4,127.8 C177.9,141.9 195,148.5 205.2,161.1 C193.2,173.1 181.2,187.8 176.4,203.1 C175.5,205.8 175.2,208.5 175.2,210.9 C175.2,222.3 183.3,229.8 193.5,229.8 L195.9,229.8 Z M193.2,225.3 C184.8,225.3 179.7,219 179.7,210.9 C179.7,209.1 179.7,207.3 180.3,205.5 C184.5,190.2 201.3,171.6 207.9,164.7 C211.8,171 213.3,177.6 213.3,184.5 L213,189 C212.7,203.1 208.2,220.8 197.1,225 C195.6,225.3 194.4,225.3 193.2,225.3 Z M264,99.6 C268.2,99.6 271.8,96 271.8,91.8 C271.8,89.4 270.9,87.6 269.7,86.1 C268.2,84.9 266.1,84 264,84 C261.9,84 260.1,84.9 258.6,86.1 C257.1,87.6 256.2,89.7 256.2,91.8 C256.2,96 259.8,99.6 264,99.6 Z M271.5,183 L276,182.7 C290.7,182.1 299.7,146.7 306.3,127.8 L306.3,126.9 C306.3,126.3 306,125.4 305.4,125.1 L304.2,124.8 C303.6,124.8 302.4,125.4 302.1,126.3 C296.4,143.1 287.1,178.2 276,178.5 C271.2,178.5 270,169.2 270,157.8 C270,142.68 272.343862,123.751225 272.399011,117.806754 L272.4,117.3 C272.4,113.7 267.9,111.3 263.4,111.3 L262.5,111.3 C257.7,111.3 252.9,113.4 252.6,118.2 C252,120.9 251.1,130.5 251.1,141.6 C251.1,158.4 253.5,178.5 263.7,182.1 C265.8,182.7 268.8,183 271.5,183 Z M329.1,185.7 C339,185.1 347.4,175.8 354.3,164.4 C362.1,151.8 367.8,136.8 371.1,127.8 L371.1,126.9 C371.1,126.3 371.1,125.4 370.2,125.1 L369,124.8 C368.1,124.8 367.2,125.4 366.9,126.3 C362.7,137.7 357,151.2 350.4,162.3 C343.5,173.4 336.6,181.2 327.6,181.2 L326.1,181.2 C319.5,180.6 317.7,170.1 317.7,158.7 C317.7,147.3 319.5,134.7 320.4,130.5 C322.5,131.4 324.6,132 326.4,132 C334.5,132 341.4,124.5 343.5,116.7 C344.1,114.9 344.4,113.1 344.4,111 C344.4,104.4 340.8,98.7 332.7,97.8 L328.2,97.5 C325.2,97.5 322.2,98.1 319.5,99 C306.6,104.1 298.5,125.1 298.5,145.2 C298.5,163.5 305.4,181.2 321,184.8 C323.7,185.4 326.4,185.7 329.1,185.7 Z M326.4,127.5 C324.9,127.5 323.1,127.2 321.3,126 C324.3,112.8 328.5,102.6 332.4,102.3 C337.8,103.2 339.9,106.8 339.9,111.3 C339.9,112.8 339.9,114.3 339.3,116.1 C337.2,121.8 332.1,127.5 326.4,127.5 Z M374.4,36 C379.5,34.2 384.6,26.1 384.6,18.6 C384.6,14.1 380.7,11.7 377.4,11.7 C373.5,11.7 370.5,14.7 370.5,18.9 C370.5,22.5 373.2,25.8 377.1,25.8 L377.7,25.8 C376.8,28.8 374.7,31.8 372.9,33.6 C372.6,33.9 372.6,34.2 372.6,34.5 C372.6,35.1 373.2,36 374.4,36 Z M416.1,229.8 C432,227.7 445.5,209.4 448.8,189.3 C449.1,186.3 449.4,183.3 449.4,180.3 C449.4,170.7 447,160.8 441,152.7 C452.4,142.8 464.7,134.4 475.8,129 C476.7,128.7 477,127.8 477,127.2 L476.7,126 C476.4,125.4 475.8,124.8 474.9,124.8 L474,125.1 C462.6,130.5 450,139.2 438,149.4 C425.7,135.6 405.3,127.5 404.7,113.4 L404.7,112.5 C404.7,103.5 413.1,99.3 420.6,99.3 L424.2,99.6 C429.6,100.5 433.8,103.5 433.8,108.6 C433.8,113.1 429.3,110.1 427.8,114.3 L427.5,115.8 C427.5,117.6 428.7,118.8 429.9,119.4 L431.4,119.7 C433.2,119.7 435,118.8 436.2,116.4 C437.7,113.4 438.3,110.7 438.3,108.3 C438.3,101.4 432.6,96.3 424.5,95.1 L420.9,94.8 C406.8,94.8 392.7,106.8 392.7,121.2 C392.7,123.3 393,125.7 393.6,127.8 C398.1,141.9 415.2,148.5 425.4,161.1 C413.4,173.1 401.4,187.8 396.6,203.1 C395.7,205.8 395.4,208.5 395.4,210.9 C395.4,222.3 403.5,229.8 413.7,229.8 L416.1,229.8 Z M413.4,225.3 C405,225.3 399.9,219 399.9,210.9 C399.9,209.1 399.9,207.3 400.5,205.5 C404.7,190.2 421.5,171.6 428.1,164.7 C432,171 433.5,177.6 433.5,184.5 L433.2,189 C432.9,203.1 428.4,220.8 417.3,225 C415.8,225.3 414.6,225.3 413.4,225.3 Z" id="Josie’s" fill="#F4816E"></path>
            <path d="M594,210.9 C610.2,209.7 631.2,146.1 639,127.8 L639.3,126.9 C639.3,126 638.7,125.4 638.1,125.1 L636.9,124.8 C636,124.8 635.1,125.1 634.8,126 C627.9,142.2 606.3,205.8 594,206.4 C591.3,206.4 590.4,202.8 590.4,197.4 C590.4,185.7 594.9,164.7 598.2,149.7 C599.1,145.2 600.3,141 600.3,137.1 C600.3,134.7 600,132.6 598.8,130.5 C593.1,120.3 576.9,123.9 566.4,119.7 C570.9,115.2 575.4,104.7 576.6,95.4 L576.9,90.9 C576.9,85.2 574.8,81.3 570.9,79.5 C569.7,79.2 568.5,78.9 567.3,78.9 C560.7,78.9 552.3,84.9 549.9,99.9 C549.3,103.2 549,106.5 549,109.2 C549,118.8 552.3,124.8 556.8,128.4 C553.8,138.3 548.4,154.5 542.1,169.8 C537.3,180.9 532.2,191.4 527.4,197.7 C527.1,198 527.1,198.6 527.1,199.2 C527.1,199.8 527.1,200.4 527.7,200.7 L529.2,201.3 C529.8,201.3 530.4,201 531,200.4 C536.1,193.5 541.2,183 546,171.3 C552.3,156.9 557.7,141.3 560.7,131.1 C569.4,135.9 580.2,135.9 582,139.5 L582.3,140.7 C582.3,146.7 576.6,168.6 576.6,186.6 C576.6,195.3 577.8,202.8 581.4,207.3 C584.027027,210.510811 588.074069,210.881592 591.883162,210.9 L594,210.9 Z M562.2,117.6 C558.3,114.3 557.7,109.8 557.7,104.7 L557.7,101.1 C558.9,90 564.6,83.7 568.5,83.7 L569.4,83.7 C571.5,84.3 573,86.4 573,90.9 L572.7,93.9 C571.8,102 567.6,113.1 562.2,117.6 Z M661.8,185.7 C671.7,185.1 680.1,175.8 687,164.4 C694.8,151.8 700.5,136.8 703.8,127.8 L703.8,126.9 C703.8,126.3 703.8,125.4 702.9,125.1 L701.7,124.8 C700.8,124.8 699.9,125.4 699.6,126.3 C695.4,137.7 689.7,151.2 683.1,162.3 C676.2,173.4 669.3,181.2 660.3,181.2 L658.8,181.2 C652.2,180.6 650.4,170.1 650.4,158.7 C650.4,147.3 652.2,134.7 653.1,130.5 C655.2,131.4 657.3,132 659.1,132 C667.2,132 674.1,124.5 676.2,116.7 C676.8,114.9 677.1,113.1 677.1,111 C677.1,104.4 673.5,98.7 665.4,97.8 L660.9,97.5 C657.9,97.5 654.9,98.1 652.2,99 C639.3,104.1 631.2,125.1 631.2,145.2 C631.2,163.5 638.1,181.2 653.7,184.8 C656.4,185.4 659.1,185.7 661.8,185.7 Z M659.1,127.5 C657.6,127.5 655.8,127.2 654,126 C657,112.8 661.2,102.6 665.1,102.3 C670.5,103.2 672.6,106.8 672.6,111.3 C672.6,112.8 672.6,114.3 672,116.1 C669.9,121.8 664.8,127.5 659.1,127.5 Z M726,206.7 C750.9,203.4 767.7,136.2 772.8,128.1 C773.1,127.8 773.1,127.5 773.1,126.9 C773.1,126.3 772.8,125.7 772.5,125.4 C772.2,125.1 771.6,124.8 771,124.8 C770.4,124.8 769.8,125.1 769.2,125.7 C763.5,134.7 746.4,202.2 723.9,202.5 C716.4,202.2 714.6,189 714.6,175.2 C714.6,163.2 716.1,150.9 716.7,146.4 C717.9,139.2 725.7,99.6 732.9,99.6 L733.2,99.6 C736.2,101.1 738.9,104.1 738.9,107.7 L738.6,109.5 C738,111.3 734.7,110.7 733.5,113.7 C733.2,114.3 733.2,115.2 733.2,115.8 C733.2,117.3 733.8,118.5 735.3,119.1 L737.1,119.7 C738.9,119.7 740.4,118.5 741,117 C742.5,114 742.8,111.9 743.1,109.5 L743.1,108 C743.1,100.2 736.8,94.8 729.6,94.2 L727.8,94.2 C711,94.2 699.3,117 695.4,142.2 C694.8,147 694.2,153.3 694.2,159.6 C694.2,179.4 699,202.8 716.7,206.7 C718.033333,206.966667 719.366667,206.996296 720.7,207 L721.2,207 C722.7,207 724.5,207 726,206.7 Z M780.6,99.6 C784.8,99.6 788.4,96 788.4,91.8 C788.4,89.4 787.5,87.6 786.3,86.1 C784.8,84.9 782.7,84 780.6,84 C778.5,84 776.7,84.9 775.2,86.1 C773.7,87.6 772.8,89.7 772.8,91.8 C772.8,96 776.4,99.6 780.6,99.6 Z M788.1,183 L792.6,182.7 C807.3,182.1 816.3,146.7 822.9,127.8 L822.9,126.9 C822.9,126.3 822.6,125.4 822,125.1 L820.8,124.8 C820.2,124.8 819,125.4 818.7,126.3 C813,143.1 803.7,178.2 792.6,178.5 C787.8,178.5 786.6,169.2 786.6,157.8 C786.6,142.68 788.943862,123.751225 788.999011,117.806754 L789,117.3 C789,113.7 784.5,111.3 780,111.3 L779.1,111.3 C774.3,111.3 769.5,113.4 769.2,118.2 C768.609677,120.856452 767.728954,130.192118 767.700697,141.064097 L767.7,141.6 C767.7,158.4 770.1,178.5 780.3,182.1 C782.4,182.7 785.4,183 788.1,183 Z M825.3,253.5 C829.2,253.5 833.1,251.7 833.1,247.5 L832.8,222 L832.80094,220.416872 C832.828048,197.612293 833.447727,170.093182 835.5,156.9 C838.2,138.9 843.3,125.1 848.1,115.5 C852.6,106.8 857.7,101.7 862.8,99.9 C867.6,100.2 868.8,110.7 868.8,122.4 C868.8,135.3 867.3,149.7 866.4,153.6 C855.3,160.5 842.7,169.8 842.7,179.1 C842.7,181.5 843.3,183.6 844.8,185.7 C846.9,189 849.9,190.2 852.9,190.2 C855.6,190.2 858.6,189.3 861,187.8 C873.3,180.9 882,163.5 885.3,147.6 C896.1,141.9 911.1,134.7 919.8,129 C920.7,128.4 921,127.8 921,126.9 C921,126.6 921,126.3 920.7,126 C920.4,125.4 919.5,124.8 918.6,124.8 C918.3,124.8 918,124.8 917.4,125.1 C909.6,130.2 896.4,136.8 886.5,142.2 C886.8,139.2 887.1,135.3 887.1,131.4 C887.1,115.5 882.9,95.4 867.3,94.8 C857.4,94.8 851.1,101.1 845.1,111.9 C842.1,117.6 839.4,123.9 837.6,129.6 L838.8,114.9 C838.8,110.4 834.3,108 829.8,108 L828.9,108 C823.8,108 819.3,110.7 819,115.5 C817.2,132.6 816.3,161.1 816,187.8 C816,213.3 816.6,237 818.1,248.7 C818.4,252 821.7,253.5 825.3,253.5 Z M852.9,185.7 C851.1,185.7 849.6,184.8 848.7,183.3 C847.8,182.1 847.5,180.6 847.5,179.1 C847.5,172.8 855.3,165.9 865.2,159.6 C863.4,167.1 858,185.4 852.9,185.7 Z M943.8,185.7 C953.7,185.1 962.1,175.8 969,164.4 C976.8,151.8 982.5,136.8 985.8,127.8 L985.8,126.9 C985.8,126.3 985.8,125.4 984.9,125.1 L983.7,124.8 C982.8,124.8 981.9,125.4 981.6,126.3 C977.4,137.7 971.7,151.2 965.1,162.3 C958.2,173.4 951.3,181.2 942.3,181.2 L940.8,181.2 C934.2,180.6 932.4,170.1 932.4,158.7 C932.4,147.3 934.2,134.7 935.1,130.5 C937.2,131.4 939.3,132 941.1,132 C949.2,132 956.1,124.5 958.2,116.7 C958.8,114.9 959.1,113.1 959.1,111 C959.1,104.4 955.5,98.7 947.4,97.8 L942.9,97.5 C939.9,97.5 936.9,98.1 934.2,99 C921.3,104.1 913.2,125.1 913.2,145.2 C913.2,163.5 920.1,181.2 935.7,184.8 C938.4,185.4 941.1,185.7 943.8,185.7 Z M941.1,127.5 C939.6,127.5 937.8,127.2 936,126 C939,112.8 943.2,102.6 947.1,102.3 C952.5,103.2 954.6,106.8 954.6,111.3 L954.598251,111.943732 C954.587755,113.234694 954.514286,114.557143 954,116.1 C951.9,121.8 946.8,127.5 941.1,127.5 Z M1004.7,229.8 C1020.6,227.7 1034.1,209.4 1037.4,189.3 C1037.7,186.3 1038,183.3 1038,180.3 C1038,170.7 1035.6,160.8 1029.6,152.7 C1041,142.8 1053.3,134.4 1064.4,129 C1065.3,128.7 1065.6,127.8 1065.6,127.2 L1065.3,126 C1065,125.4 1064.4,124.8 1063.5,124.8 L1062.6,125.1 C1051.2,130.5 1038.6,139.2 1026.6,149.4 C1014.3,135.6 993.9,127.5 993.3,113.4 L993.3,112.5 C993.3,103.5 1001.7,99.3 1009.2,99.3 L1012.8,99.6 C1018.2,100.5 1022.4,103.5 1022.4,108.6 C1022.4,113.1 1017.9,110.1 1016.4,114.3 L1016.1,115.8 C1016.1,117.6 1017.3,118.8 1018.5,119.4 L1020,119.7 C1021.8,119.7 1023.6,118.8 1024.8,116.4 C1026.3,113.4 1026.9,110.7 1026.9,108.3 C1026.9,101.4 1021.2,96.3 1013.1,95.1 L1009.5,94.8 C995.4,94.8 981.3,106.8 981.3,121.2 C981.3,123.3 981.6,125.7 982.2,127.8 C986.7,141.9 1003.8,148.5 1014,161.1 C1002,173.1 990,187.8 985.2,203.1 C984.3,205.8 984,208.5 984,210.9 C984,222.3 992.1,229.8 1002.3,229.8 L1004.7,229.8 Z M1002,225.3 C993.6,225.3 988.5,219 988.5,210.9 C988.5,209.1 988.5,207.3 989.1,205.5 C993.3,190.2 1010.1,171.6 1016.7,164.7 C1020.6,171 1022.1,177.6 1022.1,184.5 L1021.8,189 C1021.5,203.1 1017,220.8 1005.9,225 C1004.4,225.3 1003.2,225.3 1002,225.3 Z" id="recipes" fill="#FAC6AF"></path>
        </g>
    </g>
</svg>