<?xml version="1.0" encoding="UTF-8"?>
<svg width="257px" height="258px" viewBox="0 0 257 258" version="1.1" xmlns="http://www.w3.org/2000/svg" xmlns:xlink="http://www.w3.org/1999/xlink">
    <title>Group 2 + Group 2 Copy 2 + Group 2 Copy 3 + Group 2 Copy Mask</title>
    <defs>
        <filter id="filter-1">
            <feColorMatrix in="SourceGraphic" type="matrix" values="0 0 0 0 0.949020 0 0 0 0 0.623529 0 0 0 0 0.019608 0 0 0 1.000000 0"></feColorMatrix>
        </filter>
        <filter id="filter-2">
            <feColorMatrix in="SourceGraphic" type="matrix" values="0 0 0 0 0.949020 0 0 0 0 0.623529 0 0 0 0 0.019608 0 0 0 1.000000 0"></feColorMatrix>
        </filter>
        <filter id="filter-3">
            <feColorMatrix in="SourceGraphic" type="matrix" values="0 0 0 0 0.949020 0 0 0 0 0.623529 0 0 0 0 0.019608 0 0 0 1.000000 0"></feColorMatrix>
        </filter>
        <filter id="filter-4">
            <feColorMatrix in="SourceGraphic" type="matrix" values="0 0 0 0 0.949020 0 0 0 0 0.623529 0 0 0 0 0.019608 0 0 0 1.000000 0"></feColorMatrix>
        </filter>
        <filter id="filter-5">
            <feColorMatrix in="SourceGraphic" type="matrix" values="0 0 0 0 0.949020 0 0 0 0 0.623529 0 0 0 0 0.019608 0 0 0 1.000000 0"></feColorMatrix>
        </filter>
        <filter id="filter-6">
            <feColorMatrix in="SourceGraphic" type="matrix" values="0 0 0 0 0.949020 0 0 0 0 0.623529 0 0 0 0 0.019608 0 0 0 1.000000 0"></feColorMatrix>
        </filter>
        <filter id="filter-7">
            <feColorMatrix in="SourceGraphic" type="matrix" values="0 0 0 0 0.949020 0 0 0 0 0.623529 0 0 0 0 0.019608 0 0 0 1.000000 0"></feColorMatrix>
        </filter>
        <filter id="filter-8">
            <feColorMatrix in="SourceGraphic" type="matrix" values="0 0 0 0 0.949020 0 0 0 0 0.623529 0 0 0 0 0.019608 0 0 0 1.000000 0"></feColorMatrix>
        </filter>
        <filter id="filter-9">
            <feColorMatrix in="SourceGraphic" type="matrix" values="0 0 0 0 0.949020 0 0 0 0 0.623529 0 0 0 0 0.019608 0 0 0 1.000000 0"></feColorMatrix>
        </filter>
        <filter id="filter-10">
            <feColorMatrix in="SourceGraphic" type="matrix" values="0 0 0 0 0.949020 0 0 0 0 0.623529 0 0 0 0 0.019608 0 0 0 1.000000 0"></feColorMatrix>
        </filter>
    </defs>
    <g id="Page-1" stroke="none" stroke-width="1" fill="none" fill-rule="evenodd" opacity="0.6">
        <g id="Group-2-+-Group-2-Copy-2-+-Group-2-Copy-3-+-Group-2-Copy-Mask" transform="translate(0.000000, 8.000000)">
            <g filter="url(#filter-1)" id="easter-day">
                <g transform="translate(79.000000, 26.000000)">
                    <path d="M3.20103714,40.1566006 C8.6427502,53.3073878 18.5906285,56.671586 29.0154292,52.0113784 C29.8714351,51.6298838 30.6804391,51.2080188 31.4388255,50.7447988 C33.2916243,51.2926981 35.3184072,51.5701487 37.4697617,51.5701487 C47.6415843,51.5701487 54.9589945,45.494024 55.8989248,32.6658715 C56.5947514,23.0349655 53.7120722,10.9129117 46.8113253,4.21536761 C46.4858173,3.8995159 45.9655086,3.90695543 45.6494229,4.23188774 C45.3330086,4.55682005 45.3405684,5.07627412 45.6658572,5.39212583 C46.6452297,6.34263488 47.5602894,7.44631068 48.4012854,8.67492677 C47.8156779,8.51049133 47.1841639,8.57525898 46.6355883,8.87130842 L42.9614349,10.8532861 C42.7446122,10.970021 42.4862656,10.970021 42.2697716,10.8532861 L38.5952896,8.87119902 C37.8898215,8.49057966 37.0470725,8.49057966 36.3416044,8.87119902 L32.667451,10.8531767 C32.450957,10.9699116 32.1923913,10.970021 31.9757877,10.8531767 L28.301963,8.87119902 C27.7528395,8.57504018 27.1214352,8.51038193 26.535718,8.67503618 C29.6480387,4.12860959 33.4982578,1.64096285 37.4699808,1.64096285 C39.2697517,1.64096285 41.0546222,2.15243038 42.7750704,3.16114279 C43.1659867,3.39045529 43.6698612,3.25971653 43.8997218,2.86903193 C44.1294728,2.47823792 43.9984369,1.97541338 43.6070823,1.74599148 C41.6310266,0.587503869 39.5662258,0 37.4699808,0 C32.8520626,0 28.4466941,2.8457287 24.9880488,8.03425216 C19.7263456,3.89798424 14.3375509,2.53162747 9.77211273,4.19086093 C-1.78654246,8.39178711 -1.8563333,27.9549001 3.20103714,40.1566006 Z M2.32158496,31.5421747 C1.92004114,29.4922566 1.67451326,27.4359931 1.58784991,25.4211939 L29.7045726,15.202237 C30.9353893,16.8020636 32.0711064,18.5363488 33.0831283,20.3629716 C32.6712857,20.825754 32.4724311,21.1617362 31.9951801,21.0914983 L27.8628395,20.4839733 C27.0691742,20.3670196 26.2777001,20.6551919 25.7451205,21.2537456 L22.971236,24.3711265 C22.8077699,24.5547078 22.5649811,24.6427787 22.3213157,24.6073315 L18.1896325,23.9998066 C17.3972819,23.883181 16.6046027,24.1708063 16.0718039,24.7695789 L13.298029,27.8868503 C13.1345629,28.070541 12.8918836,28.1587213 12.6481087,28.1230553 L8.51686375,27.515421 C7.72473229,27.3987954 6.93172433,27.6864207 6.39881597,28.2851933 L3.62569849,31.4021365 C3.46234192,31.5859366 3.21922439,31.6740075 2.97577818,31.6383415 L2.32158496,31.5421747 Z M2.69464272,33.2557823 C3.57825825,33.3855364 4.34497138,33.0646521 4.8542144,32.4921367 L7.62733189,29.3753029 C7.79090759,29.1915028 8.03424423,29.1035413 8.27747132,29.1389884 L12.4087163,29.7466228 C13.202272,29.8635765 13.9938557,29.5756231 14.5265449,28.9768505 L17.3003198,25.859579 C17.4637859,25.6758884 17.7061365,25.5874893 17.9502401,25.623374 L22.0819233,26.230899 C22.8749313,26.3477433 23.6670627,26.0597899 24.199752,25.4611267 L26.9736364,22.3437458 C27.1371025,22.1600551 27.3800009,22.0717655 27.6234471,22.1075408 L31.7558973,22.7150658 C32.5205287,22.8274245 33.3134271,22.5757935 33.9011163,21.9143319 C34.537451,23.1827714 35.1248115,24.5021935 35.649941,25.8933851 L3.91800924,37.426294 C3.41271044,35.9796341 3.02321842,34.6320949 2.69464272,33.2557823 Z M4.49189369,38.9641975 L36.2002697,27.4398222 C36.6778494,28.8708372 37.0682179,30.3045874 37.3476004,31.7818806 L6.4056088,43.0277112 C5.71284985,41.7930778 5.07257097,40.4306596 4.49189369,38.9641975 Z M27.2944332,50.9509175 C21.5573416,53.1641769 15.7495828,52.9032464 10.9892342,48.8076771 L21.8595129,44.8569597 C22.2859273,44.7019331 22.5058177,44.2310548 22.3505687,43.8052512 C22.1953197,43.3793383 21.7235468,43.1597628 21.2973516,43.3147894 L9.63855696,47.5521474 C8.81541952,46.675049 8.01737173,45.6518951 7.25515062,44.4653999 L37.6101103,33.4329087 C37.7798215,34.7913883 37.8285764,36.0927586 37.7572517,37.3324246 L24.9034671,42.0041197 C24.4770527,42.1591463 24.2571623,42.6300247 24.4124113,43.0558282 C24.5675507,43.4817412 25.038995,43.7012072 25.4656284,43.54629 L37.5585067,39.1510609 C36.6225207,44.8805912 32.8116343,48.8205869 27.2944332,50.9509175 L27.2944332,50.9509175 Z M37.4696521,49.9291859 C35.9809271,49.9291859 34.5610068,49.787069 33.2287359,49.505461 C35.6450107,47.616368 37.4527796,45.1870341 38.4872617,42.1906549 L41.4884867,43.809518 C41.8413851,43.9998824 42.2283572,44.0949552 42.6153294,44.0949552 C43.002411,44.0949552 43.3893831,43.999773 43.742172,43.809518 L47.4164349,41.8275403 C47.6332576,41.7108054 47.8916042,41.7108054 48.1080982,41.8275403 L51.0007475,43.387653 C47.3612157,48.8421396 41.5301202,49.9291859 37.4696521,49.9291859 L37.4696521,49.9291859 Z M51.8150105,41.9615612 L48.8891639,40.3835062 C48.1836958,40.0028868 47.3409468,40.0028868 46.6354787,40.3835062 L42.9609967,42.3655932 C42.7446122,42.4823282 42.4860465,42.4823282 42.2694429,42.3655932 L38.9541043,40.5772621 C39.5623912,37.987103 39.5981083,35.1201498 39.0614748,31.9963141 L41.4882676,33.3053427 C42.194174,33.6860715 43.0367038,33.6859621 43.7419528,33.3053427 L47.4163253,31.323365 C47.6329289,31.2066301 47.891385,31.2066301 48.1078791,31.323365 L51.7829089,33.3054521 C52.488377,33.6860715 53.3309069,33.6859621 54.036375,33.3054521 L54.0364846,33.3054521 L54.2045523,33.2147555 C53.8898909,36.6160419 53.0885563,39.5492944 51.8150105,41.9615612 L51.8150105,41.9615612 Z M54.3300005,31.2822288 L53.2558571,31.8616367 C53.0390344,31.9783717 52.7805782,31.9783717 52.5643033,31.8616367 L48.8891639,29.8794402 C48.1838054,29.4989303 47.3411659,29.4989303 46.6355883,29.8795497 L42.9611062,31.8615273 C42.7447218,31.9782623 42.486156,31.9782623 42.2695525,31.8615273 L38.6220226,29.8939911 C37.9471223,27.1249552 36.874184,24.2616123 35.6016243,21.6397258 L37.122451,20.8192991 C37.3390545,20.7025642 37.5975107,20.7025642 37.8140047,20.8192991 L41.4884867,22.8012768 C42.194174,23.1818961 43.0367038,23.1820055 43.742172,22.8012768 L47.4163253,20.8192991 C47.633148,20.7025642 47.8917137,20.7024548 48.1079886,20.8192991 L51.7830185,22.8013862 C52.3957973,23.1318981 53.1276698,23.1834278 53.7957774,22.9137449 C54.2484865,25.6697617 54.4329885,28.4785116 54.3300005,31.2822288 Z M31.1943933,12.2972109 C31.9001901,12.6779396 32.7428295,12.6778302 33.4481881,12.2972109 L37.1223414,10.3152332 C37.338945,10.1984983 37.5974011,10.1984983 37.8138952,10.3152332 L41.4883772,12.2973203 C42.1940644,12.6779396 43.0365943,12.6778302 43.7420624,12.2973203 L47.4163253,10.3152332 C47.6329289,10.1984983 47.8916042,10.1983889 48.1078791,10.3152332 L50.007132,11.3395905 C51.554144,14.2527126 52.743875,17.636166 53.4850603,21.2337246 C53.2553093,21.3575708 52.9548909,21.5685033 52.5639746,21.3575708 L48.8888352,19.3753743 C48.1833671,18.9949738 47.3409468,18.9948644 46.6352596,19.3754837 L42.9608871,21.3574614 C42.7445027,21.4743058 42.4859369,21.4743058 42.2693333,21.3574614 L38.5948513,19.3754837 C37.8893832,18.9948644 37.0466342,18.9948644 36.3411661,19.3754837 L34.8569331,20.1761082 C33.0024909,16.6890485 30.642202,13.3837101 27.8507878,10.5881982 C27.7918435,10.5290102 27.7333376,10.4690564 27.6741742,10.4105248 C27.6654093,10.4018818 27.6568635,10.3929106 27.6480985,10.3842676 L31.1943933,12.2972109 Z M10.3338358,5.73303124 C16.9044732,3.34494288 24.1034472,8.51289824 28.6152001,13.8516345 L1.55224234,23.687784 C1.57371645,16.7087413 3.77130605,8.11816566 10.3338358,5.73303124 Z" id="Shape" fill="#000000" fill-rule="nonzero"></path>
                    <path d="M7.0210519,17.0266833 L6.480023,17.1455989 C6.10147781,17.2288104 5.90641958,17.4815575 6.04420498,17.7101103 C6.18189314,17.9386632 6.60050014,18.0565217 6.9789481,17.9733102 L7.519977,17.8543946 C7.89852219,17.771183 8.09358042,17.518436 7.95579502,17.2898831 C7.81810686,17.061389 7.39940262,16.9434717 7.0210519,17.0266833 L7.0210519,17.0266833 Z" id="Path" fill="#000000" fill-rule="nonzero"></path>
                    <path d="M14.0210519,15.0267061 L13.480023,15.1456189 C13.1014778,15.2288285 12.9064196,15.4815696 13.044205,15.7101171 C13.1818931,15.9386646 13.6005001,16.0565204 13.9789481,15.9733108 L14.519977,15.854398 C14.8985222,15.7711884 15.0935804,15.5184473 14.955795,15.2898998 C14.8180096,15.061411 14.3993054,14.9434378 14.0210519,15.0267061 Z" id="Path" fill="#000000" fill-rule="nonzero"></path>
                    <path d="M20.0211502,12.0267438 L19.4800939,12.1456469 C19.1015295,12.2288498 18.9064614,12.4815117 19.0441566,12.7100994 C19.1819489,12.9387458 19.6005771,13.0564747 19.9788498,12.9733305 L20.5199061,12.8544273 C20.8984705,12.7712245 21.0935386,12.5185625 20.9558434,12.2899749 C20.8182456,12.0615046 20.4000063,11.9433647 20.0211502,12.0267438 L20.0211502,12.0267438 Z" id="Path" fill="#000000" fill-rule="nonzero"></path>
                </g>
            </g>
            <g filter="url(#filter-2)" id="easter-day">
                <g transform="translate(185.000000, 123.000000)">
                    <path d="M2.68658474,33.4638338 C7.25373678,44.4228232 15.6028489,47.2263216 24.3522352,43.3428153 C25.0706688,43.0249031 25.7496542,42.673349 26.3861572,42.2873323 C27.9411847,42.7439151 29.6422346,42.9751239 31.4478357,42.9751239 C39.9849011,42.9751239 46.126299,37.9116867 46.915169,27.2215596 C47.4991664,19.1958046 45.0797749,9.0940931 39.2880766,3.51280634 C39.0148824,3.24959659 38.5781947,3.25579619 38.3129085,3.52657312 C38.0473465,3.79735004 38.0536913,4.23022843 38.3267016,4.49343819 C39.1486749,5.28552907 39.9166715,6.2052589 40.6225074,7.22910564 C40.1310154,7.09207611 39.6009947,7.14604915 39.140583,7.39275702 L36.0569186,9.04440508 C35.8749424,9.14168419 35.6581158,9.14168419 35.4764154,9.04440508 L32.3924752,7.39266585 C31.8003859,7.07548305 31.0930787,7.07548305 30.5009894,7.39266585 L27.417325,9.0443139 C27.2356246,9.14159302 27.0186141,9.14168419 26.8368218,9.0443139 L23.7534333,7.39266585 C23.2925618,7.14586681 22.7626331,7.09198494 22.2710491,7.22919682 C24.8831754,3.44050799 28.1146092,1.36746905 31.4480196,1.36746905 C32.9585416,1.36746905 34.4565579,1.79369198 35.9005055,2.63428566 C36.228596,2.82537941 36.6514907,2.71643044 36.8444093,2.39085994 C37.0372361,2.06519827 36.9272595,1.64617782 36.5988012,1.4549929 C34.9403259,0.489586557 33.2073681,0 31.4480196,0 C27.5722668,0 23.874904,2.37144059 20.9721123,6.69521014 C16.5560401,3.2483202 12.0333017,2.10968956 8.20159462,3.49238411 C-1.49941957,6.99315592 -1.55799402,23.2957501 2.68658474,33.4638338 Z M1.94847309,26.2851456 C1.6114631,24.5768805 1.40539506,22.8633275 1.33265975,21.1843283 L24.9306234,12.6685308 C25.9636303,14.0017197 26.9168215,15.4469573 27.766197,16.969143 C27.4205433,17.354795 27.2536475,17.6347802 26.8530976,17.5762486 L23.3848832,17.0699778 C22.7187712,16.9725163 22.0544983,17.2126599 21.6075118,17.7114547 L19.2794302,20.3092721 C19.1422355,20.4622565 18.9384662,20.5356489 18.7339614,20.5061096 L15.2662987,19.9998388 C14.6012902,19.9026509 13.9360058,20.1423386 13.4888354,20.6413157 L11.1608458,23.2390419 C11.023651,23.3921175 10.8199737,23.4656011 10.6153769,23.4358794 L7.14808208,22.9295175 C6.48325746,22.8323295 5.81769721,23.0720172 5.37043483,23.5709944 L3.04299694,26.1684471 C2.90589411,26.3216138 2.70184904,26.3950062 2.49752811,26.3652846 L1.94847309,26.2851456 Z M2.26157514,27.7131519 C3.00318103,27.8212804 3.64667241,27.5538767 4.0740728,27.0767806 L6.40151069,24.479419 C6.53879744,24.3262523 6.74302641,24.2529511 6.94716343,24.2824904 L10.4144583,24.7888523 C11.0804783,24.8863138 11.7448432,24.6463526 12.1919216,24.1473754 L14.5199113,21.5496492 C14.657106,21.3965736 14.8605074,21.3229077 15.0653801,21.3528117 L18.5330428,21.8590825 C19.198603,21.9564528 19.8634276,21.7164916 20.3105061,21.2176056 L22.6385877,18.6197882 C22.7757825,18.4667126 22.9796436,18.3931379 23.1839645,18.4229507 L26.6522709,18.9292215 C27.2940152,19.0228538 27.9594835,18.8131612 28.4527226,18.2619433 C28.9867892,19.3189762 29.4797525,20.4184946 29.9204862,21.5778209 L3.28832918,31.1885783 C2.86423912,29.9830284 2.53734403,28.8600791 2.26157514,27.7131519 Z M3.76998221,32.4701646 L30.3823692,22.8665185 C30.783195,24.059031 31.1108257,25.2538228 31.3453074,26.4849005 L5.37613596,35.856426 C4.79471327,34.8275649 4.25733635,33.6922164 3.76998221,32.4701646 Z M22.9078278,42.4590979 C18.0927689,44.3034808 13.2183998,44.0860387 9.2231073,40.6730642 L18.3463769,37.3807998 C18.7042604,37.2516109 18.8888113,36.8592123 18.758513,36.504376 C18.6282148,36.1494486 18.2322625,35.966469 17.8745629,36.0956579 L8.08950316,39.6267895 C7.39865567,38.8958742 6.72886556,38.0432459 6.08914427,37.0544999 L31.5656283,27.8607573 C31.7080644,28.9928236 31.7489838,30.0772989 31.689122,31.1103538 L20.9011242,35.0034331 C20.5432407,35.132622 20.3586898,35.5250206 20.4889881,35.8798569 C20.6191944,36.2347843 21.0148708,36.4176727 21.3729381,36.288575 L31.5223181,32.6258841 C30.7367584,37.4004926 27.5383359,40.6838224 22.9078278,42.4590979 L22.9078278,42.4590979 Z M31.4477438,41.6076549 C30.1982781,41.6076549 29.0065593,41.4892242 27.8884033,41.2545508 C29.9163483,39.6803067 31.4335829,37.6558617 32.3018089,35.1588791 L34.8206942,36.5079317 C35.1168768,36.6665687 35.441657,36.745796 35.7664371,36.745796 C36.0913092,36.745796 36.4160894,36.6664775 36.71218,36.5079317 L39.7959364,34.8562836 C39.9779126,34.7590045 40.1947392,34.7590045 40.3764396,34.8562836 L42.8041988,36.1563775 C39.7495918,40.701783 34.8556366,41.6076549 31.4477438,41.6076549 L31.4477438,41.6076549 Z M43.4875981,34.9679677 L41.0319769,33.6529218 C40.4398875,33.335739 39.7325804,33.335739 39.140491,33.6529218 L36.0565508,35.304661 C35.8749424,35.4019401 35.6579319,35.4019401 35.4761396,35.304661 L32.6936233,33.8143851 C33.2041497,31.6559192 33.2341266,29.2667915 32.7837378,26.663595 L34.8205103,27.7544522 C35.4129674,28.0717262 36.1200907,28.071635 36.7119961,27.7544522 L39.7958444,26.1028042 C39.9776367,26.0055251 40.1945553,26.0055251 40.3762556,26.1028042 L43.4606557,27.7545434 C44.052745,28.0717262 44.7598683,28.071635 45.3519576,27.7545434 L45.3520495,27.7545434 L45.4931064,27.6789629 C45.2290156,30.5133682 44.5564669,32.9577454 43.4875981,34.9679677 L43.4875981,34.9679677 Z M45.5983933,26.068524 L44.69688,26.5513639 C44.5149038,26.6486431 44.2979853,26.6486431 44.1164688,26.5513639 L41.0319769,24.8995335 C40.4399795,24.5824419 39.7327643,24.5824419 39.140583,24.8996247 L36.0566427,26.5512728 C35.8750344,26.6485519 35.6580238,26.6485519 35.4762315,26.5512728 L32.4149119,24.9116592 C31.8484776,22.6041293 30.9479759,20.2180102 29.8799347,18.0331049 L31.1563428,17.3494159 C31.3381351,17.2521368 31.5550536,17.2521368 31.736754,17.3494159 L34.8206942,19.001064 C35.4129674,19.3182468 36.1200907,19.318338 36.71218,19.001064 L39.7958444,17.3494159 C39.9778206,17.2521368 40.1948312,17.2520456 40.3763476,17.3494159 L43.4607476,19.0011552 C43.9750442,19.2765818 44.5892943,19.3195232 45.1500274,19.0947874 C45.5299798,21.3914681 45.6848297,23.732093 45.5983933,26.068524 Z M26.1810086,10.2476757 C26.7733738,10.5649497 27.4805891,10.5648585 28.0725864,10.2476757 L31.1562508,8.59602767 C31.3380431,8.49874855 31.5549617,8.49874855 31.736662,8.59602767 L34.8206023,10.2477669 C35.4128755,10.5649497 36.1199988,10.5648585 36.7120881,10.2477669 L39.7958444,8.59602767 C39.9776367,8.49874855 40.1947392,8.49865738 40.3762556,8.59602767 L41.9702715,9.44965875 C43.2686565,11.8772605 44.2671808,14.696805 44.889247,17.6947705 C44.6964203,17.7979757 44.4442835,17.9737528 44.116193,17.7979757 L41.031701,16.1461453 C40.4396117,15.8291448 39.7325804,15.8290536 39.1403071,16.1462364 L36.0564588,17.7978845 C35.8748504,17.8952548 35.6578399,17.8952548 35.4760476,17.7978845 L32.3921074,16.1462364 C31.8000181,15.8290536 31.0927109,15.8290536 30.5006216,16.1462364 L29.254926,16.8134235 C27.6985191,13.9075404 25.7175624,11.1530918 23.3747683,8.82349852 C23.3252972,8.77417518 23.276194,8.72421364 23.2265391,8.67543733 C23.2191828,8.66823485 23.2120104,8.66075885 23.2046541,8.65355637 L26.1810086,10.2476757 Z M8.67304079,4.77752603 C14.1876828,2.7874524 20.2296789,7.09408187 24.0163286,11.5430288 L1.30277482,19.73982 C1.32079773,13.9239511 3.1652033,6.76513805 8.67304079,4.77752603 Z" id="Shape" fill="#000000" fill-rule="nonzero"></path>
                    <path d="M6.0210519,14.0266833 L5.480023,14.1455989 C5.10147781,14.2288104 4.90641958,14.4815575 5.04420498,14.7101103 C5.18189314,14.9386632 5.60050014,15.0565217 5.9789481,14.9733102 L6.519977,14.8543946 C6.89852219,14.771183 7.09358042,14.518436 6.95579502,14.2898831 C6.81810686,14.061389 6.39940262,13.9434717 6.0210519,14.0266833 L6.0210519,14.0266833 Z" id="Path" fill="#000000" fill-rule="nonzero"></path>
                    <path d="M12.0210519,12.0267061 L11.480023,12.1456189 C11.1014778,12.2288285 10.9064196,12.4815696 11.044205,12.7101171 C11.1818931,12.9386646 11.6005001,13.0565204 11.9789481,12.9733108 L12.519977,12.854398 C12.8985222,12.7711884 13.0935804,12.5184473 12.955795,12.2898998 C12.8180096,12.061411 12.3993054,11.9434378 12.0210519,12.0267061 Z" id="Path" fill="#000000" fill-rule="nonzero"></path>
                    <path d="M17.0211502,10.0267438 L16.4800939,10.1456469 C16.1015295,10.2288498 15.9064614,10.4815117 16.0441566,10.7100994 C16.1819489,10.9387458 16.6005771,11.0564747 16.9788498,10.9733305 L17.5199061,10.8544273 C17.8984705,10.7712245 18.0935386,10.5185625 17.9558434,10.2899749 C17.8182456,10.0615046 17.4000063,9.94336474 17.0211502,10.0267438 L17.0211502,10.0267438 Z" id="Path" fill="#000000" fill-rule="nonzero"></path>
                </g>
            </g>
            <g filter="url(#filter-3)" id="easter-day">
                <g transform="translate(152.000000, 206.000000)">
                    <path d="M1.65767995,20.821941 C4.47570993,27.6408678 9.62728978,29.3852668 15.0258472,26.9688629 C15.469136,26.7710508 15.8880845,26.552306 16.2808204,26.3121179 C17.2403055,26.5962138 18.2898894,26.7400771 19.4039837,26.7400771 C24.6715347,26.7400771 28.4609079,23.5894939 28.9476575,16.9378593 C29.3079963,11.9440562 27.8151803,5.65854682 24.2415792,2.18574617 C24.0730126,2.02197121 23.8035669,2.02582874 23.6398797,2.19431216 C23.4760223,2.36279558 23.4799372,2.63214214 23.6483903,2.79591709 C24.1555654,3.28877364 24.6294356,3.86104998 25.0649514,4.49811018 C24.7616903,4.41284736 24.4346563,4.44643058 24.1505725,4.5999377 L22.2478859,5.62762982 C22.1356028,5.68815905 22.0018161,5.68815905 21.8897031,5.62762982 L19.9868464,4.59988097 C19.6215147,4.40252278 19.1850911,4.40252278 18.8197594,4.59988097 L16.9170729,5.6275731 C16.8049599,5.68810232 16.6710598,5.68815905 16.5588901,5.6275731 L14.6563737,4.59988097 C14.3720062,4.44631713 14.0450289,4.41279063 13.7417111,4.49816691 C15.3534486,2.14076053 17.3473121,0.850869628 19.4040972,0.850869628 C20.3361214,0.850869628 21.2604294,1.11607501 22.1513757,1.63911108 C22.3538145,1.75801385 22.6147496,1.69022339 22.7337845,1.48764619 C22.8527627,1.28501226 22.7849048,1.02428842 22.5822391,0.905328915 C21.5589245,0.304631636 20.4896527,0 19.4040972,0 C17.0126753,0 14.7313237,1.47556303 12.9402395,4.16590853 C10.215429,2.02117701 7.42480315,1.31269573 5.06055838,2.173039 C-0.925173776,4.35129702 -0.961315459,14.4951334 1.65767995,20.821941 Z M1.20224936,16.3552017 C0.994307021,15.2922812 0.867158652,14.2260705 0.822279419,13.1813598 L15.3827251,7.8826414 C16.0201123,8.71218114 16.6082515,9.61144011 17.1323343,10.5585779 C16.9190587,10.7985391 16.8160804,10.9727521 16.5689326,10.9363325 L14.4289705,10.6213195 C14.0179652,10.5606768 13.6080947,10.7100995 13.3322945,11.0204607 L11.8958187,12.6368804 C11.8111666,12.7320707 11.6854366,12.7777371 11.5592528,12.7593571 L9.41963113,12.4443441 C9.00930672,12.3838716 8.5988121,12.5330107 8.32289843,12.8434853 L6.88647931,14.4598483 C6.80182721,14.5550953 6.67615401,14.6008184 6.54991344,14.582325 L4.41051873,14.2672553 C4.00030779,14.2067828 3.58964296,14.3559218 3.31367256,14.6663965 L1.87759386,16.2825893 C1.79299849,16.377893 1.66709834,16.4235594 1.54102799,16.405066 L1.20224936,16.3552017 Z M1.39543998,17.243739 C1.85302659,17.3110189 2.25007447,17.1446344 2.5137896,16.8477746 L3.9498683,15.2316385 C4.03457714,15.1363348 4.16059076,15.0907251 4.28654765,15.1091051 L6.42594236,15.4241748 C6.83689088,15.4848175 7.24681813,15.3355083 7.52267505,15.0250336 L8.95909418,13.4086706 C9.04374628,13.3134236 9.16924927,13.267587 9.29566005,13.2861939 L11.4352817,13.6012069 C11.8459465,13.6617928 12.2561575,13.5124836 12.5320144,13.2020657 L13.9684903,11.585646 C14.0531424,11.490399 14.178929,11.4446191 14.3049994,11.4631693 L16.4450182,11.7781823 C16.8409881,11.8364424 17.2515962,11.705967 17.5559352,11.3629869 C17.8854657,12.0206963 18.1896345,12.7048411 18.4615766,13.4261997 L2.02896907,19.4062265 C1.76729648,18.6561065 1.56559525,17.9573825 1.39543998,17.243739 Z M2.32615923,20.2036579 L18.7465682,14.228056 C18.9938863,14.9700638 19.1960414,15.7134897 19.3407216,16.4794937 L3.31719027,22.3106651 C2.9584401,21.6704848 2.62686711,20.9640457 2.32615923,20.2036579 Z M14.1346172,26.4189942 C11.1636233,27.5666103 8.15603393,27.431313 5.69085344,25.3076844 L11.3201049,23.2591643 C11.5409266,23.1787801 11.6547985,22.934621 11.5744017,22.713834 C11.4940049,22.4929902 11.2496939,22.3791363 11.0289856,22.4595204 L4.99139557,24.656669 C4.56512797,24.2018773 4.15185321,23.671353 3.75713157,23.0561333 L19.4766643,17.3355823 C19.5645504,18.0399791 19.5897985,18.7147637 19.5528625,19.3575535 L12.8964383,21.7799139 C12.6756166,21.8602981 12.5617448,22.1044572 12.6421416,22.3252443 C12.7224816,22.546088 12.9666224,22.6598852 13.1875576,22.5795578 L19.449941,20.3005501 C18.9652339,23.2714176 16.9917392,25.3143784 14.1346172,26.4189942 L14.1346172,26.4189942 Z M19.403927,25.8892075 C18.6329801,25.8892075 17.8976642,25.8155173 17.2077382,25.6694983 C18.4590234,24.6899686 19.3951895,23.430314 19.9309034,21.8766359 L21.4851092,22.7160464 C21.6678602,22.8147538 21.8682564,22.8640508 22.0686527,22.8640508 C22.2691057,22.8640508 22.469502,22.8146971 22.6521962,22.7160464 L24.5549395,21.6883543 C24.6672227,21.627825 24.8010093,21.627825 24.9131223,21.6883543 L26.4111014,22.4973016 C24.5263439,25.3255539 21.5066694,25.8892075 19.403927,25.8892075 L19.403927,25.8892075 Z M26.8327733,21.7578466 L25.3176027,20.9395958 C24.952271,20.7422376 24.5158475,20.7422376 24.1505158,20.9395958 L22.247659,21.9673446 C22.1356028,22.0278739 22.0017026,22.0278739 21.8895329,21.9673446 L20.1726612,21.0400618 C20.4876668,19.6970164 20.5061632,18.210448 20.2282637,16.5906814 L21.4849957,17.269437 C21.8505544,17.4668519 22.2868645,17.4667951 22.6520827,17.269437 L24.5548827,16.2417448 C24.6670525,16.1812156 24.8008958,16.1812156 24.9130088,16.2417448 L26.8161492,17.2694937 C27.181481,17.4668519 27.6177911,17.4667951 27.9831228,17.2694937 L27.9831795,17.2694937 L28.0702146,17.2224658 C27.9072649,18.9860958 27.4922881,20.5070416 26.8327733,21.7578466 L26.8327733,21.7578466 Z M28.1351788,16.2204149 L27.578926,16.5208487 C27.4666428,16.5813779 27.3327994,16.5813779 27.2207999,16.5208487 L25.3176027,15.4930431 C24.9523278,15.2957416 24.5159609,15.2957416 24.1505725,15.4930998 L22.2477157,16.5207919 C22.1356595,16.5813212 22.0017594,16.5813212 21.8895897,16.5207919 L20.0006903,15.500588 C19.6511883,14.0647916 19.0955596,12.5800953 18.4365554,11.2205986 L19.2241264,10.7951921 C19.3362961,10.7346629 19.4701395,10.7346629 19.5822524,10.7951921 L21.4851092,11.8228843 C21.8505544,12.0202424 22.2868645,12.0202992 22.6521962,11.8228843 L24.5548827,10.7951921 C24.6671659,10.7346629 24.801066,10.7346062 24.9130655,10.7951921 L26.816206,11.822941 C27.1335379,11.9943176 27.5125433,12.0210366 27.8585276,11.8812011 C28.0929662,13.3102468 28.1885119,14.7666356 28.1351788,16.2204149 Z M16.1542394,6.37633156 C16.5197413,6.57374648 16.9561081,6.57368975 17.3213831,6.37633156 L19.2240696,5.34863944 C19.3362394,5.28811021 19.4700827,5.28811021 19.5821957,5.34863944 L21.4850525,6.37638829 C21.8504976,6.57374648 22.2868078,6.57368975 22.6521395,6.37638829 L24.5548827,5.34863944 C24.6670525,5.28811021 24.8010093,5.28805348 24.9130088,5.34863944 L25.8965505,5.87978767 C26.6976817,7.39029541 27.3137924,9.14467864 27.6976205,11.0100794 C27.5786423,11.074296 27.4230685,11.1836684 27.2206297,11.074296 L25.3174325,10.0464904 C24.9521008,9.84924567 24.5158475,9.84918894 24.1504023,10.0465471 L22.2476023,11.0742392 C22.135546,11.1348252 22.0016459,11.1348252 21.8894762,11.0742392 L19.9866194,10.0465471 C19.6212877,9.84918894 19.1848641,9.84918894 18.8195324,10.0465471 L18.0509118,10.4616857 C17.0905756,8.65358068 15.8682832,6.93970154 14.4227294,5.49017685 C14.3922047,5.45948678 14.3619069,5.4283996 14.3312688,5.39804989 C14.3267298,5.39356835 14.3223043,5.38891662 14.3177653,5.38443507 L16.1542394,6.37633156 Z M5.3514507,2.97268286 C8.75410218,1.73441483 12.4821423,4.41409538 14.8185858,7.18232901 L0.803839785,12.2825547 C0.814960303,8.66379179 1.95299778,4.20941923 5.3514507,2.97268286 Z" id="Shape" fill="#000000" fill-rule="nonzero"></path>
                    <path d="M3.51052595,9.02668329 L3.2400115,9.14559889 C3.0507389,9.22881045 2.95320979,9.48155748 3.02210249,9.71011033 C3.09094657,9.93866318 3.30025007,10.0565217 3.48947405,9.97331019 L3.7599885,9.85439459 C3.9492611,9.77118303 4.04679021,9.518436 3.97789751,9.28988315 C3.90905343,9.06138902 3.69970131,8.94347173 3.51052595,9.02668329 L3.51052595,9.02668329 Z" id="Path" fill="#000000" fill-rule="nonzero"></path>
                    <path d="M7.51052595,7.02670612 L7.2400115,7.14561893 C7.0507389,7.22882854 6.95320979,7.48156964 7.02210249,7.71011713 C7.09094657,7.93866462 7.30025007,8.05652042 7.48947405,7.97331082 L7.7599885,7.85439801 C7.9492611,7.7711884 8.04679021,7.5184473 7.97789751,7.28989981 C7.90900481,7.06141105 7.69965269,6.94343779 7.51052595,7.02670612 Z" id="Path" fill="#000000" fill-rule="nonzero"></path>
                    <path d="M10.5105751,6.02674376 L10.240047,6.14564694 C10.0507648,6.22884981 9.95323071,6.48151173 10.0220783,6.71009943 C10.0909745,6.93874584 10.3002886,7.05647467 10.4894249,6.97333052 L10.759953,6.85442734 C10.9492352,6.77122447 11.0467693,6.51856255 10.9779217,6.28997485 C10.9091228,6.06150459 10.7000032,5.94336474 10.5105751,6.02674376 L10.5105751,6.02674376 Z" id="Path" fill="#000000" fill-rule="nonzero"></path>
                </g>
            </g>
            <g filter="url(#filter-4)" id="easter-day-copy">
                <g transform="translate(192.147114, 55.986860) rotate(-330.000000) translate(-192.147114, -55.986860) translate(144.647114, 10.486860)">
                    <path d="M5.75233461,67.5126041 C14.8866387,89.4305829 31.584863,95.0375798 49.0836355,87.2705671 C50.5205027,86.6347428 51.8784736,85.9316345 53.1514794,85.1596011 C56.2615345,86.0727667 59.6636343,86.5351844 63.2748366,86.5351844 C80.3489673,86.5351844 92.631763,76.4083098 94.2095031,55.0280557 C95.3774979,38.9765456 90.5387149,18.7731227 78.9553183,7.61054917 C78.4089299,7.08412966 77.5355545,7.09652887 77.0049822,7.63808272 C76.4738581,8.17963657 76.4865477,9.04539335 77.0325683,9.57181287 C78.676515,11.1559946 80.2125081,12.9954543 81.62418,15.0431478 C80.6411958,14.7690887 79.5811546,14.8770348 78.6603311,15.3704505 L72.4930023,18.6737466 C72.1290499,18.8683049 71.6953967,18.8683049 71.331996,18.6737466 L65.1641155,15.3702682 C63.9799369,14.7359026 62.5653225,14.7359026 61.3811439,15.3702682 L55.2138151,18.6735643 C54.8504144,18.8681225 54.4163933,18.8683049 54.0528087,18.6735643 L47.8860317,15.3702682 C46.9642886,14.8766701 45.9044313,14.7689064 44.9212633,15.0433301 C50.1455158,7.46595247 56.6083835,3.31987458 63.2752044,3.31987458 C66.2962484,3.31987458 69.292281,4.17232045 72.1801761,5.85350781 C72.8363571,6.2356953 73.6821464,6.01779738 74.0679838,5.36665637 C74.4536372,4.71533303 74.2336842,3.87729213 73.5767676,3.49492229 C70.2598169,1.56410961 66.7939013,0.584936491 63.2752044,0.584936491 C55.5236987,0.584936491 48.1289731,5.32781766 42.3233898,13.9753568 C33.4912453,7.08157688 24.4457684,4.80431561 16.7823544,7.56970471 C-2.61967401,14.5712483 -2.73682291,47.1764367 5.75233461,67.5126041 Z M4.27611131,53.1552276 C3.60209133,49.7386975 3.18995524,46.3115916 3.04448462,42.9535931 L50.240412,25.9219981 C52.3064257,28.5883759 54.212808,31.4788511 55.9115591,34.5232225 C55.2202518,35.2945265 54.8864602,35.8544968 54.0853603,35.7374337 L47.1489315,34.7248921 C45.8167076,34.5299692 44.4881618,35.0102563 43.5941887,36.0078459 L38.9380256,41.2034807 C38.663636,41.5094495 38.2560976,41.6562343 37.8470879,41.5971557 L30.9117626,40.5846141 C29.5817455,40.3902382 28.2511767,40.8696136 27.3568359,41.8675679 L22.7008567,47.0630203 C22.4264671,47.3691715 22.0191126,47.5161386 21.609919,47.4566953 L14.6753293,46.4439714 C13.34568,46.2495955 12.0145595,46.728971 11.1200348,47.7269252 L6.46515901,52.9218306 C6.19095334,53.2281641 5.78286321,53.3749489 5.37422135,53.3155057 L4.27611131,53.1552276 Z M4.90231541,56.0112403 C6.38552718,56.2274972 7.67250995,55.69269 8.52731073,54.7384976 L13.1821865,49.5437746 C13.45676,49.2374411 13.8652179,49.0908386 14.273492,49.1499172 L21.2080817,50.1626412 C22.5401218,50.3575641 23.8688515,49.8776416 24.7630084,48.8796873 L29.4189876,43.6842349 C29.6933772,43.3780838 30.10018,43.2307519 30.5099253,43.2905599 L37.4452507,44.3031015 C38.7763712,44.4978421 40.1060204,44.0179196 41.0001773,43.0201477 L45.6563405,37.8245129 C45.93073,37.5183617 46.3384524,37.3712123 46.7470942,37.4308379 L53.6837069,38.4433795 C54.9671955,38.630644 56.2981321,38.2112589 57.2846104,37.108823 C58.3527436,39.2228888 59.3386702,41.4219256 60.2201375,43.7405784 L6.95582349,62.9620931 C6.10764337,60.5509932 5.45385318,58.3050947 4.90231541,56.0112403 Z M7.91912954,65.5252656 L61.1439035,46.3179735 C61.9455551,48.7029986 62.6008166,51.0925821 63.06978,53.5547375 L11.131437,72.2977885 C9.96859166,70.2400662 8.89383783,67.9693692 7.91912954,65.5252656 Z M46.1948208,85.5031323 C36.5647029,89.191898 26.8159648,88.7570139 18.8253797,81.931065 L37.071919,75.3465361 C37.7876859,75.0881583 38.1567877,74.3033611 37.8961912,73.5936885 C37.6355946,72.8838336 36.8436901,72.5178745 36.128291,72.7762522 L16.5581714,79.8385155 C15.1764765,78.3766848 13.8368962,76.6714284 12.5574537,74.6939363 L63.5104217,56.306451 C63.795294,58.5705837 63.8771327,60.7395342 63.7574091,62.8056442 L42.1814134,70.5918027 C41.4656465,70.8501804 41.0965447,71.6349776 41.3571413,72.3446502 C41.6175539,73.0545051 42.4089067,73.4202819 43.1250414,73.1620865 L63.4238014,65.8367046 C61.852682,75.3859218 55.455837,81.9525813 46.1948208,85.5031323 L46.1948208,85.5031323 Z M63.2746526,83.8002463 C60.7757213,83.8002463 58.3922836,83.5633849 56.1559718,83.0940382 C60.2118617,79.9455499 63.2463309,75.8966599 64.982783,70.9026947 L70.0205536,73.6007999 C70.6129188,73.9180738 71.2624791,74.0765285 71.9120394,74.0765285 C72.5617836,74.0765285 73.2113439,73.9178915 73.8035252,73.6007999 L79.9710379,70.2975037 C80.3349903,70.1029455 80.7686436,70.1029455 81.1320442,70.2975037 L85.9875628,72.8976916 C79.8783487,81.9885025 70.0904383,83.8002463 63.2746526,83.8002463 L63.2746526,83.8002463 Z M87.3543613,70.5208719 L82.4431188,67.8907801 C81.2589402,67.2564145 79.8443258,67.2564145 78.6601472,67.8907801 L72.4922667,71.1942586 C72.1290499,71.3888168 71.6950289,71.3888168 71.3314443,71.1942586 L65.7664116,68.2137066 C66.7874646,63.8967749 66.8474183,59.1185195 65.9466407,53.9121266 L70.0201858,56.093841 C71.2051,56.7283889 72.6193466,56.7282066 73.8031574,56.093841 L79.970854,52.7905449 C80.3344386,52.5959866 80.7682757,52.5959866 81.1316764,52.7905449 L87.3004765,56.0940233 C88.4846551,56.7283889 89.8989017,56.7282066 91.0830803,56.0940233 L91.0832642,56.0940233 L91.3653779,55.9428623 C90.8371963,61.6116729 89.4920989,66.5004272 87.3543613,70.5208719 L87.3543613,70.5208719 Z M91.5759517,52.7219845 L89.7729252,53.6876644 C89.4089728,53.8822226 88.9751357,53.8822226 88.6121028,53.6876644 L82.4431188,50.3840036 C81.2591241,49.7498203 79.8446937,49.7498203 78.6603311,50.3841859 L72.4924506,53.687482 C72.1292338,53.8820403 71.6952128,53.8820403 71.3316282,53.687482 L65.2089888,50.408255 C64.0761203,45.7931951 62.2751169,41.020957 60.1390345,36.6511462 L62.6918507,35.2837683 C63.0554352,35.0892101 63.4892724,35.0892101 63.8526731,35.2837683 L70.0205536,38.5870645 C71.2051,39.2214301 72.6193466,39.2216124 73.8035252,38.5870645 L79.970854,35.2837683 C80.3348064,35.0892101 80.7688275,35.0890278 81.1318603,35.2837683 L87.3006604,38.5872468 C88.3292535,39.1381001 89.5577538,39.2239828 90.67922,38.7745114 C91.4391247,43.3678726 91.7488244,48.0491224 91.5759517,52.7219845 Z M52.7411824,21.0802879 C53.9259128,21.7148359 55.3403432,21.7146535 56.5243379,21.0802879 L62.6916667,17.7769918 C63.0552513,17.5824336 63.4890885,17.5824336 63.8524892,17.7769918 L70.0203697,21.0804703 C71.2049161,21.7148359 72.6191627,21.7146535 73.8033413,21.0804703 L79.970854,17.7769918 C80.3344386,17.5824336 80.7686436,17.5822512 81.1316764,17.7769918 L84.3197082,19.484254 C86.9164782,24.3394574 88.9135268,29.9785464 90.1576591,35.9744774 C89.7720057,36.1808878 89.2677321,36.532442 88.6115511,36.1808878 L82.4425671,32.877227 C81.2583885,32.2432261 79.8443258,32.2430438 78.6597794,32.8774094 L72.4920828,36.1807055 C72.128866,36.3754461 71.694845,36.3754461 71.3312604,36.1807055 L65.1633799,32.8774094 C63.9792012,32.2430438 62.5645869,32.2430438 61.3804082,32.8774094 L58.889017,34.2117835 C55.7762033,28.4000172 51.81429,22.89112 47.1287017,18.2319335 C47.0297596,18.1332868 46.9315532,18.0333638 46.8322433,17.9358111 C46.8175307,17.9214062 46.8031859,17.9064542 46.7884733,17.8920492 L52.7411824,21.0802879 Z M17.7252467,10.1399886 C28.7545308,6.1598413 40.8385229,14.7731002 48.4118224,23.670994 L2.98471477,40.0645765 C3.02076059,28.4328387 6.70957172,14.1152126 17.7252467,10.1399886 Z" id="Shape" fill="#000000" fill-rule="nonzero"></path>
                    <path d="M12.86871,28.7915155 L11.7866522,29.0293467 C11.0295619,29.1957699 10.6394454,29.7012639 10.9150162,30.1583696 C11.1903925,30.6154753 12.0276065,30.8511925 12.7845024,30.6847694 L13.8665602,30.4469382 C14.6236506,30.280515 15.0137671,29.775021 14.7381963,29.3179153 C14.46282,28.860927 13.6254115,28.6250924 12.86871,28.7915155 L12.86871,28.7915155 Z" id="Path" fill="#000000" fill-rule="nonzero"></path>
                    <path d="M25.6270403,24.8896374 L24.5449825,25.1274631 C23.7878921,25.2938823 23.3977757,25.7993645 23.6733464,26.2564594 C23.9487228,26.7135544 24.7859368,26.949266 25.5428327,26.7828468 L26.6248905,26.5450212 C27.3819809,26.378602 27.7720973,25.8731198 27.4965265,25.4160248 C27.2209557,24.9590473 26.3835473,24.7231008 25.6270403,24.8896374 Z" id="Path" fill="#000000" fill-rule="nonzero"></path>
                    <path d="M34.7874909,20.7557381 L33.7053783,20.9935445 C32.9482496,21.1599502 32.5581134,21.665274 32.8335036,22.1224494 C33.1090884,22.5797423 33.9463448,22.8151999 34.7028901,22.6489116 L35.7850027,22.4111053 C36.5421315,22.2446995 36.9322677,21.7393757 36.6568774,21.2822003 C36.3816816,20.8252598 35.5452031,20.5889801 34.7874909,20.7557381 L34.7874909,20.7557381 Z" id="Path" fill="#000000" fill-rule="nonzero"></path>
                </g>
            </g>
            <g filter="url(#filter-5)" id="easter-day-copy">
                <g transform="translate(44.235572, 134.369546) rotate(-360.000000) translate(-44.235572, -134.369546) translate(14.735572, 105.869546)">
                    <path d="M3.42657583,41.9416315 C9.06263578,55.5794849 19.3657955,59.068283 30.1629104,54.2354751 C31.049488,53.8398511 31.887385,53.4023615 32.6728567,52.9219852 C34.5918268,53.4901771 36.6909948,53.7779037 38.9191834,53.7779037 C49.4542853,53.7779037 57.0330317,47.4767373 58.0065309,34.173468 C58.7272085,24.1858618 55.7415764,11.614843 48.5943743,4.66924175 C48.257241,4.34169183 47.7183498,4.3494069 47.3909754,4.68637373 C47.0632605,5.02334057 47.0710903,5.56203368 47.4079966,5.8895836 C48.4223467,6.87529669 49.3700871,8.01984937 50.2411187,9.29396977 C49.6345966,9.12344413 48.9805286,9.19061058 48.4123609,9.49762481 L44.6069878,11.5530091 C44.3824214,11.6740675 44.1148482,11.6740675 43.8906222,11.5530091 L40.0849087,9.49751135 C39.3542453,9.10279498 38.4813981,9.10279498 37.7507347,9.49751135 L33.9453616,11.5528956 C33.7211357,11.6739541 33.4533355,11.6740675 33.228996,11.5528956 L29.4239634,9.49751135 C28.8552283,9.19038367 28.2012738,9.12333067 27.5946382,9.29408323 C30.8181132,4.57927047 34.8058401,1.99948867 38.9194104,1.99948867 C40.7834588,1.99948867 42.6320746,2.52989943 44.4139674,3.57597157 C44.818845,3.81377712 45.340715,3.67819619 45.5787849,3.27304178 C45.8167413,2.86777392 45.6810256,2.34632625 45.2756941,2.10840724 C43.2290649,0.907012683 41.0905212,0.297749412 38.9194104,0.297749412 C34.1365665,0.297749412 29.5738634,3.24887547 25.991695,8.62956647 C20.5420739,4.34010343 14.9608222,2.92314086 10.2323327,4.64382741 C-1.73913162,9.00034345 -1.81141499,29.2880162 3.42657583,41.9416315 Z M2.51571464,33.0081528 C2.09982997,30.8823118 1.84553324,28.7498904 1.75577477,26.6604691 L30.8766661,16.0630322 C32.1514406,17.7221117 33.327719,19.5206296 34.3758845,21.4149052 C33.9493332,21.8948276 33.7433767,22.2432536 33.2490811,22.1704143 L28.9691569,21.5403884 C28.1471464,21.4191031 27.3274053,21.7179484 26.775805,22.3386708 L23.9028533,25.5715102 C23.733549,25.7618908 23.4820892,25.8532236 23.2297215,25.8164636 L18.9504782,25.1864377 C18.1298294,25.0654927 17.3088401,25.3637707 16.7570128,25.9847201 L13.8841746,29.217446 C13.7148703,29.4079401 13.4635239,29.4993863 13.2110428,29.4623994 L8.93225339,28.83226 C8.11183152,28.711315 7.29050185,29.0095931 6.73856105,29.6305424 L3.86640365,32.862928 C3.69721292,33.0535355 3.44541262,33.1448683 3.1932719,33.1078813 L2.51571464,33.0081528 Z M2.9020959,34.7852274 C3.81726912,34.9197872 4.61136487,34.5870183 5.13879514,33.9932986 L8.01095253,30.7610264 C8.18037022,30.5704189 8.43239746,30.4791996 8.68431123,30.5159597 L12.9631006,31.146099 C13.7849977,31.2673844 14.6048522,30.9687659 15.156566,30.3478166 L18.0294043,27.1150906 C18.1987085,26.9245966 18.4497145,26.8329235 18.702536,26.8701373 L22.9817793,27.5001632 C23.803109,27.6213351 24.6235309,27.3227167 25.1752447,26.7018808 L28.0481965,23.4690414 C28.2175007,23.2785473 28.469074,23.1869877 28.7212147,23.2240881 L33.0012524,23.8541139 C33.7931921,23.9706341 34.6144083,23.7096834 35.2230864,23.0237233 C35.8821473,24.339142 36.490485,25.7074315 37.0343691,27.1501488 L4.16915407,39.1102024 C3.64580889,37.6099625 3.24240644,36.2125145 2.9020959,34.7852274 Z M4.7635344,40.7050653 L37.6043524,28.7538614 C38.0989885,30.2378769 38.5032987,31.7247289 38.7926592,33.2567367 L6.74559648,44.9190795 C6.02809613,43.638719 5.36495016,42.2258409 4.7635344,40.7050653 Z M28.3804503,53.1357379 C22.4384626,55.4309699 16.4232838,55.1603753 11.4929228,50.9131183 L22.7514258,46.816078 C23.1930692,46.6553097 23.4208129,46.1669914 23.2600192,45.7254174 C23.0992256,45.2837298 22.6106037,45.056022 22.1691872,45.2167903 L10.0940071,49.6110875 C9.24147187,48.7015039 8.41492236,47.6404555 7.62547908,46.410016 L39.0645445,34.968914 C39.2403167,36.3777077 39.290813,37.7272769 39.2169409,39.0128564 L25.9040925,43.8575773 C25.4624491,44.0183456 25.2347055,44.5066639 25.3954991,44.9482379 C25.5561792,45.3899255 26.0444607,45.6175199 26.4863311,45.456865 L39.0110979,40.8988496 C38.0416838,46.8405847 34.0946943,50.9265062 28.3804503,53.1357379 L28.3804503,53.1357379 Z M38.9190699,52.0761644 C37.3771761,52.0761644 35.9065444,51.9287839 34.5266924,51.636746 C37.0292628,49.6776866 38.9015948,47.1583773 39.9730227,44.0510212 L43.0814343,45.7298422 C43.4469363,45.9272571 43.8477288,46.0258511 44.2485213,46.0258511 C44.6494273,46.0258511 45.0502199,45.9271436 45.4156083,45.7298422 L49.2210949,43.6744579 C49.4456613,43.5533995 49.7132345,43.5533995 49.9374605,43.6744579 L52.9334188,45.2923526 C49.1639037,50.9488572 43.1245547,52.0761644 38.9190699,52.0761644 L38.9190699,52.0761644 Z M53.7767625,43.8134426 L50.7464214,42.176941 C50.015758,41.7822246 49.1429108,41.7822246 48.4122474,42.176941 L44.6065339,44.2324387 C44.3824214,44.3534972 44.1146212,44.3534972 43.8902818,44.2324387 L40.4565383,42.3778731 C41.0865496,39.6917822 41.1235424,36.7186455 40.5677434,33.4791121 L43.0812074,34.8366233 C43.8123247,35.2314531 44.6849449,35.2313397 45.4153814,34.8366233 L49.2209814,32.7812391 C49.4453208,32.6601806 49.7130076,32.6601806 49.9372335,32.7812391 L53.7435144,34.8367368 C54.4741778,35.2314531 55.3467981,35.2313397 56.0774615,34.8367368 L56.0775749,34.8367368 L56.2516451,34.7426811 C55.9257458,38.269941 55.0957921,41.3118325 53.7767625,43.8134426 L53.7767625,43.8134426 Z M56.3815736,32.7385793 L55.2690679,33.3394468 C55.0445015,33.4605052 54.7768148,33.4605052 54.5528158,33.3394468 L50.7464214,31.2838356 C50.0158715,30.8892327 49.1431378,30.8892327 48.4123609,31.2839491 L44.6066474,33.3393333 C44.3825349,33.4603918 44.1147347,33.4603918 43.8903953,33.3393333 L40.1125965,31.2989254 C39.4135926,28.4273325 38.3023351,25.4579399 36.9843268,22.7389466 L38.5594687,21.8881337 C38.7838081,21.7670752 39.0514949,21.7670752 39.2757208,21.8881337 L43.0814343,23.9435179 C43.8123247,24.3382343 44.6849449,24.3383478 45.4156083,23.9435179 L49.2209814,21.8881337 C49.4455478,21.7670752 49.713348,21.7669618 49.937347,21.8881337 L53.7436279,23.9436314 C54.3782917,24.2863845 55.1363025,24.3398227 55.8282711,24.0601516 C56.2971484,26.918243 56.4882398,29.8310207 56.3815736,32.7385793 Z M32.4196947,13.0504125 C33.1506985,13.4452424 34.0234322,13.4451289 34.7539821,13.0504125 L38.5593552,10.9950283 C38.7836947,10.8739698 39.0513814,10.8739698 39.2756074,10.9950283 L43.0813209,13.050526 C43.8122112,13.4452424 44.6848314,13.4451289 45.4154948,13.050526 L49.2209814,10.9950283 C49.4453208,10.8739698 49.7132345,10.8738564 49.9372335,10.9950283 L51.904317,12.0573247 C53.5065793,15.0783402 54.7388008,18.5871067 55.5064569,22.3179082 C55.2685005,22.4463414 54.957353,22.6650862 54.5524754,22.4463414 L50.746081,20.3907302 C50.0154176,19.9962407 49.1429108,19.9961273 48.4120205,20.3908437 L44.6064204,22.4462279 C44.382308,22.5673998 44.1145077,22.5673998 43.8901683,22.4462279 L40.0844548,20.3908437 C39.3537914,19.9961273 38.4809442,19.9961273 37.7502808,20.3908437 L36.2130395,21.2211209 C34.2923672,17.6049108 31.8477823,14.1771525 28.9566747,11.2781031 C28.8956253,11.216723 28.8350298,11.1545486 28.7737535,11.0938492 C28.7646755,11.0848861 28.7558245,11.0755826 28.7467465,11.0666196 L32.4196947,13.0504125 Z M10.8141173,6.24311514 C17.6194203,3.76657907 25.0755005,9.12594018 29.7483875,14.6624074 L1.7188955,24.8628588 C1.74113654,17.625333 4.01721149,8.71658787 10.8141173,6.24311514 Z" id="Shape" fill="#000000" fill-rule="nonzero"></path>
                    <path d="M8.62393758,18.3029627 L8.08290869,18.4218783 C7.70436349,18.5050899 7.50930526,18.7578369 7.64709066,18.9863898 C7.78477882,19.2149426 8.20338583,19.3328012 8.58183379,19.2495896 L9.12286268,19.130674 C9.50140788,19.0474625 9.6964661,18.7947154 9.55868071,18.5661626 C9.42099255,18.3376685 9.0022883,18.2197512 8.62393758,18.3029627 L8.62393758,18.3029627 Z" id="Path" fill="#000000" fill-rule="nonzero"></path>
                    <path d="M15.6861154,16.5350364 L15.1450865,16.6539492 C14.7665413,16.7371588 14.5714831,16.9898999 14.7092685,17.2184474 C14.8469566,17.4469949 15.2655637,17.5648507 15.6440116,17.4816411 L16.1850405,17.3627283 C16.5635857,17.2795186 16.7586439,17.0267775 16.6208585,16.7982301 C16.4830731,16.5697413 16.0643689,16.451768 15.6861154,16.5350364 Z" id="Path" fill="#000000" fill-rule="nonzero"></path>
                    <path d="M21.7483915,13.035074 L21.2073352,13.1539772 C20.8287709,13.2371801 20.6337028,13.489842 20.7713979,13.7184297 C20.9091903,13.9470761 21.3278185,14.0648049 21.7060911,13.9816608 L22.2471474,13.8627576 C22.6257118,13.7795547 22.8207799,13.5268928 22.6830848,13.2983051 C22.5454869,13.0698348 22.1272476,12.951695 21.7483915,13.035074 L21.7483915,13.035074 Z" id="Path" fill="#000000" fill-rule="nonzero"></path>
                </g>
            </g>
            <g filter="url(#filter-6)" id="easter-egg">
                <g transform="translate(47.500000, 205.500000) rotate(-345.000000) translate(-47.500000, -205.500000) translate(17.000000, 168.000000)">
                    <path d="M58.6426072,27.9569824 C57.1268675,22.9598145 54.9017639,18.1633301 52.2079157,14.0859375 C49.373106,9.79511719 46.128494,6.39067383 42.5640361,3.96723633 C38.6923735,1.33476562 34.6334482,0 30.5,0 C26.3665518,0 22.3076265,1.33476562 18.4358169,3.96723633 C14.871359,6.39067383 11.626747,9.79511719 8.79193735,14.0859375 C6.09808916,18.1631836 3.87313253,22.9598145 2.35724578,27.9569824 C0.815195181,33.0413086 0,38.367334 0,43.359375 C0,53.1628418 3.09365542,61.3236328 8.94671566,66.9594727 C11.6793687,69.5907715 14.9526434,71.6187012 18.6755542,72.9870117 C22.3096843,74.3226563 26.2880602,75 30.5,75 C34.7119398,75 38.6903157,74.3226562 42.3242988,72.9870117 C46.0472096,71.6187012 49.3204843,69.590625 52.0531373,66.9594727 C57.9063446,61.3236328 61,53.1628418 61,43.359375 C61,38.367334 60.1848048,33.0413086 58.6426072,27.9569824 Z M30.6233229,72.801416 C32.6996747,71.3143066 34.6497639,69.6713379 36.4406651,67.8865723 C41.4478096,62.896582 45.3271157,56.7366211 47.6590795,50.0726074 C49.7680627,44.0450684 53.301212,38.6415527 57.9269229,34.3417969 C58.3202627,36.435791 58.5852819,38.536377 58.7108096,40.6104492 C54.2389952,45.548877 50.7224554,51.4486816 48.5345398,57.7010742 C46.6852843,62.985791 43.7414096,67.6384277 39.7855229,71.5319824 C36.978788,72.3549316 33.9133542,72.7907227 30.6233229,72.801416 L30.6233229,72.801416 Z M21.337506,71.5686035 C25.7728675,69.3991699 29.7302241,66.4976074 33.1247639,62.9135742 C37.1385639,58.6757813 40.1606361,53.7064453 42.1071976,48.1432617 C44.3303904,41.7899414 48.0290482,35.9169434 52.8032169,31.1592773 C53.9137108,30.0525879 55.0975518,28.9937988 56.3341614,27.998877 C56.7358795,29.2721191 57.0907084,30.5608887 57.3980602,31.8572754 C52.0312361,36.5323242 47.9499687,42.567627 45.5771422,49.3491211 C43.3539494,55.7025879 39.6552916,61.5754395 34.8815639,66.332959 C32.500212,68.7060059 29.8262072,70.8212402 26.9333373,72.6276855 C24.9720771,72.4334473 23.1037133,72.0777832 21.337506,71.5686035 Z M45.9856217,9.74926758 C43.0505663,11.6540039 40.3277614,13.8489258 37.880559,16.2878906 C32.5618,21.5885742 28.4412867,28.1314453 25.9648337,35.2089844 C22.4387398,45.2859375 14.7589133,53.1856934 4.80988675,57.0191895 C4.29116627,55.809668 3.84623373,54.5405273 3.47846988,53.2151367 C7.30588916,51.0834961 10.7992048,48.4554199 13.870812,45.3941895 C18.8781036,40.4040527 22.7574096,34.2440918 25.0892265,27.5802246 C28.2009614,18.6874512 34.3687229,11.2611328 42.4899542,6.60292969 C43.688053,7.51713867 44.8560193,8.56655273 45.9856217,9.74926758 L45.9856217,9.74926758 Z M33.9865542,2.55996094 C32.097906,3.95083008 30.317294,5.47617188 28.6747036,7.11328125 C27.3740072,8.40952148 26.132547,9.8034668 24.9847181,11.2565918 C24.6081349,11.733252 24.6907422,12.4240723 25.169188,12.7993652 C25.3712964,12.9580078 25.6116217,13.0347656 25.8503301,13.0347656 C26.1766434,13.0347656 26.4997229,12.890918 26.7172651,12.6155273 C27.8111494,11.2305176 28.9942554,9.90205078 30.2336578,8.66689453 C32.1969759,6.71030273 34.3688699,4.92290039 36.6911325,3.34335937 C37.9812458,3.82397461 39.2528386,4.45239258 40.4978265,5.22509766 C32.3580747,10.1704102 26.1789952,17.7930176 23.0074361,26.8567383 C20.7842434,33.2100586 17.0857325,39.0829102 12.3118578,43.8405762 C9.52952289,46.6133789 6.38280482,49.0129395 2.94475663,50.9893066 C2.68826265,49.729834 2.49717831,48.4255371 2.37370843,47.0789063 C10.3395735,42.1374023 16.4232578,34.551416 19.5377855,25.6508789 C20.7026651,22.3217285 22.2764651,19.1122559 24.2156771,16.1115234 C24.5453711,15.6014648 24.3976482,14.9214844 23.8856892,14.5929199 C23.3740241,14.264502 22.691706,14.4117187 22.3618651,14.9217773 C20.3285807,18.0682617 18.677906,21.4346191 17.4558482,24.9273926 C14.640588,32.9727539 9.26523855,39.8835938 2.22378072,44.5631836 C2.21246265,44.1647461 2.20481928,43.7642578 2.20481928,43.359375 C2.20481928,41.6800781 2.30359518,39.9726562 2.49159277,38.2561523 C3.23843855,37.5966797 3.96926265,36.9130371 4.66480964,36.219873 C9.98342169,30.9196289 14.103788,24.3769043 16.580388,17.2990723 C18.5160723,11.7676758 21.7849373,6.75527344 26.0355349,2.79301758 C27.5085012,2.40029297 29.0002819,2.19726562 30.5,2.19726562 C31.6687012,2.19726562 32.8325518,2.32060547 33.9865542,2.55996094 L33.9865542,2.55996094 Z M10.6335494,15.2941406 C13.7269108,10.6119141 17.2743181,7.09833984 21.0532313,4.89462891 C18.2190096,8.35634766 15.9869976,12.3218262 14.4985976,16.5754395 C12.1306217,23.3427246 8.1910506,29.5983398 3.10585542,34.6661133 C3.06925542,34.7025879 3.03147952,34.738623 2.99473253,34.7750977 C4.23869157,27.8336426 6.90417108,20.938916 10.6335494,15.2941406 L10.6335494,15.2941406 Z M5.75810602,59.0084473 C16.237759,54.9202148 24.3243012,46.570459 28.0467711,35.9326172 C30.4146,29.1654785 34.3543181,22.9097168 39.4396602,17.8416504 C41.8570241,15.4325684 44.5586627,13.274707 47.4735807,11.4115723 C48.4742747,12.599707 49.4410145,13.8936035 50.3664506,15.2942871 C51.215012,16.5786621 52.0077181,17.9285156 52.7420699,19.3281738 C45.4749855,23.9219238 39.9261904,30.900293 37.0680096,39.0678223 C35.2116988,44.3727539 32.3164771,49.4837402 28.6955759,53.8483887 C28.3076747,54.3159668 28.3735253,55.0085449 28.8427108,55.3951172 C29.0482,55.5644531 29.2970506,55.6470703 29.5444313,55.6470703 C29.8617783,55.6470703 30.1767735,55.5112793 30.3947566,55.2484863 C34.2348169,50.619873 37.1804554,45.4192383 39.149653,39.7913086 C41.8182193,32.1651855 46.9742627,25.6410645 53.7257133,21.3108398 C54.4083253,22.7635254 55.0293494,24.2601562 55.583641,25.7874023 C54.0558482,26.9742187 52.5981687,28.255957 51.2438217,29.6056641 C46.2363831,34.5959473 42.3569301,40.7559082 40.0249663,47.4197754 C36.3828988,57.8285156 28.4880289,66.2299805 18.3402747,70.518457 C16.7844072,69.8699707 15.323788,69.0903809 13.9673831,68.1852539 C18.8575253,65.7660645 23.4159157,62.5171875 27.2339277,58.7121094 L27.3937036,58.5521484 C27.8221735,58.1210449 27.8187928,57.4253906 27.3862072,56.9985352 C26.9536217,56.5713867 26.2555759,56.5749023 25.827253,57.0060059 L25.6749735,57.1584961 C21.7618602,61.0582031 17.0348747,64.3476562 11.9745205,66.703418 C9.44044819,64.6130859 7.34792771,62.0264648 5.75810602,59.0084473 Z M44.3727229,69.7308105 C47.068188,66.3660645 49.1624723,62.5798828 50.6163301,58.425 C52.447212,53.1927246 55.2520361,48.2185547 58.7900361,43.8921387 C58.6383446,56.0636719 53.2938627,65.2371094 44.3727229,69.7308105 Z" id="Shape" fill="#000000" fill-rule="nonzero"></path>
                </g>
            </g>
            <g filter="url(#filter-7)" id="easter-egg">
                <g transform="translate(39.500000, 38.500000) rotate(-345.000000) translate(-39.500000, -38.500000) translate(9.000000, 1.000000)">
                    <path d="M58.6426072,27.9569824 C57.1268675,22.9598145 54.9017639,18.1633301 52.2079157,14.0859375 C49.373106,9.79511719 46.128494,6.39067383 42.5640361,3.96723633 C38.6923735,1.33476562 34.6334482,0 30.5,0 C26.3665518,0 22.3076265,1.33476562 18.4358169,3.96723633 C14.871359,6.39067383 11.626747,9.79511719 8.79193735,14.0859375 C6.09808916,18.1631836 3.87313253,22.9598145 2.35724578,27.9569824 C0.815195181,33.0413086 0,38.367334 0,43.359375 C0,53.1628418 3.09365542,61.3236328 8.94671566,66.9594727 C11.6793687,69.5907715 14.9526434,71.6187012 18.6755542,72.9870117 C22.3096843,74.3226563 26.2880602,75 30.5,75 C34.7119398,75 38.6903157,74.3226562 42.3242988,72.9870117 C46.0472096,71.6187012 49.3204843,69.590625 52.0531373,66.9594727 C57.9063446,61.3236328 61,53.1628418 61,43.359375 C61,38.367334 60.1848048,33.0413086 58.6426072,27.9569824 Z M30.6233229,72.801416 C32.6996747,71.3143066 34.6497639,69.6713379 36.4406651,67.8865723 C41.4478096,62.896582 45.3271157,56.7366211 47.6590795,50.0726074 C49.7680627,44.0450684 53.301212,38.6415527 57.9269229,34.3417969 C58.3202627,36.435791 58.5852819,38.536377 58.7108096,40.6104492 C54.2389952,45.548877 50.7224554,51.4486816 48.5345398,57.7010742 C46.6852843,62.985791 43.7414096,67.6384277 39.7855229,71.5319824 C36.978788,72.3549316 33.9133542,72.7907227 30.6233229,72.801416 L30.6233229,72.801416 Z M21.337506,71.5686035 C25.7728675,69.3991699 29.7302241,66.4976074 33.1247639,62.9135742 C37.1385639,58.6757812 40.1606361,53.7064453 42.1071976,48.1432617 C44.3303904,41.7899414 48.0290482,35.9169434 52.8032169,31.1592773 C53.9137108,30.0525879 55.0975518,28.9937988 56.3341614,27.998877 C56.7358795,29.2721191 57.0907084,30.5608887 57.3980602,31.8572754 C52.0312361,36.5323242 47.9499687,42.567627 45.5771422,49.3491211 C43.3539494,55.7025879 39.6552916,61.5754395 34.8815639,66.332959 C32.500212,68.7060059 29.8262072,70.8212402 26.9333373,72.6276855 C24.9720771,72.4334473 23.1037133,72.0777832 21.337506,71.5686035 Z M45.9856217,9.74926758 C43.0505663,11.6540039 40.3277614,13.8489258 37.880559,16.2878906 C32.5618,21.5885742 28.4412867,28.1314453 25.9648337,35.2089844 C22.4387398,45.2859375 14.7589133,53.1856934 4.80988675,57.0191895 C4.29116627,55.809668 3.84623373,54.5405273 3.47846988,53.2151367 C7.30588916,51.0834961 10.7992048,48.4554199 13.870812,45.3941895 C18.8781036,40.4040527 22.7574096,34.2440918 25.0892265,27.5802246 C28.2009614,18.6874512 34.3687229,11.2611328 42.4899542,6.60292969 C43.688053,7.51713867 44.8560193,8.56655273 45.9856217,9.74926758 L45.9856217,9.74926758 Z M33.9865542,2.55996094 C32.097906,3.95083008 30.317294,5.47617188 28.6747036,7.11328125 C27.3740072,8.40952148 26.132547,9.8034668 24.9847181,11.2565918 C24.6081349,11.733252 24.6907422,12.4240723 25.169188,12.7993652 C25.3712964,12.9580078 25.6116217,13.0347656 25.8503301,13.0347656 C26.1766434,13.0347656 26.4997229,12.890918 26.7172651,12.6155273 C27.8111494,11.2305176 28.9942554,9.90205078 30.2336578,8.66689453 C32.1969759,6.71030273 34.3688699,4.92290039 36.6911325,3.34335937 C37.9812458,3.82397461 39.2528386,4.45239258 40.4978265,5.22509766 C32.3580747,10.1704102 26.1789952,17.7930176 23.0074361,26.8567383 C20.7842434,33.2100586 17.0857325,39.0829102 12.3118578,43.8405762 C9.52952289,46.6133789 6.38280482,49.0129395 2.94475663,50.9893066 C2.68826265,49.729834 2.49717831,48.4255371 2.37370843,47.0789063 C10.3395735,42.1374023 16.4232578,34.551416 19.5377855,25.6508789 C20.7026651,22.3217285 22.2764651,19.1122559 24.2156771,16.1115234 C24.5453711,15.6014648 24.3976482,14.9214844 23.8856892,14.5929199 C23.3740241,14.264502 22.691706,14.4117187 22.3618651,14.9217773 C20.3285807,18.0682617 18.677906,21.4346191 17.4558482,24.9273926 C14.640588,32.9727539 9.26523855,39.8835938 2.22378072,44.5631836 C2.21246265,44.1647461 2.20481928,43.7642578 2.20481928,43.359375 C2.20481928,41.6800781 2.30359518,39.9726562 2.49159277,38.2561523 C3.23843855,37.5966797 3.96926265,36.9130371 4.66480964,36.219873 C9.98342169,30.9196289 14.103788,24.3769043 16.580388,17.2990723 C18.5160723,11.7676758 21.7849373,6.75527344 26.0355349,2.79301758 C27.5085012,2.40029297 29.0002819,2.19726562 30.5,2.19726562 C31.6687012,2.19726562 32.8325518,2.32060547 33.9865542,2.55996094 L33.9865542,2.55996094 Z M10.6335494,15.2941406 C13.7269108,10.6119141 17.2743181,7.09833984 21.0532313,4.89462891 C18.2190096,8.35634766 15.9869976,12.3218262 14.4985976,16.5754395 C12.1306217,23.3427246 8.1910506,29.5983398 3.10585542,34.6661133 C3.06925542,34.7025879 3.03147952,34.738623 2.99473253,34.7750977 C4.23869157,27.8336426 6.90417108,20.938916 10.6335494,15.2941406 L10.6335494,15.2941406 Z M5.75810602,59.0084473 C16.237759,54.9202148 24.3243012,46.570459 28.0467711,35.9326172 C30.4146,29.1654785 34.3543181,22.9097168 39.4396602,17.8416504 C41.8570241,15.4325684 44.5586627,13.274707 47.4735807,11.4115723 C48.4742747,12.599707 49.4410145,13.8936035 50.3664506,15.2942871 C51.215012,16.5786621 52.0077181,17.9285156 52.7420699,19.3281738 C45.4749855,23.9219238 39.9261904,30.900293 37.0680096,39.0678223 C35.2116988,44.3727539 32.3164771,49.4837402 28.6955759,53.8483887 C28.3076747,54.3159668 28.3735253,55.0085449 28.8427108,55.3951172 C29.0482,55.5644531 29.2970506,55.6470703 29.5444313,55.6470703 C29.8617783,55.6470703 30.1767735,55.5112793 30.3947566,55.2484863 C34.2348169,50.619873 37.1804554,45.4192383 39.149653,39.7913086 C41.8182193,32.1651855 46.9742627,25.6410645 53.7257133,21.3108398 C54.4083253,22.7635254 55.0293494,24.2601562 55.583641,25.7874023 C54.0558482,26.9742187 52.5981687,28.255957 51.2438217,29.6056641 C46.2363831,34.5959473 42.3569301,40.7559082 40.0249663,47.4197754 C36.3828988,57.8285156 28.4880289,66.2299805 18.3402747,70.518457 C16.7844072,69.8699707 15.323788,69.0903809 13.9673831,68.1852539 C18.8575253,65.7660645 23.4159157,62.5171875 27.2339277,58.7121094 L27.3937036,58.5521484 C27.8221735,58.1210449 27.8187928,57.4253906 27.3862072,56.9985352 C26.9536217,56.5713867 26.2555759,56.5749023 25.827253,57.0060059 L25.6749735,57.1584961 C21.7618602,61.0582031 17.0348747,64.3476562 11.9745205,66.703418 C9.44044819,64.6130859 7.34792771,62.0264648 5.75810602,59.0084473 Z M44.3727229,69.7308105 C47.068188,66.3660645 49.1624723,62.5798828 50.6163301,58.425 C52.447212,53.1927246 55.2520361,48.2185547 58.7900361,43.8921387 C58.6383446,56.0636719 53.2938627,65.2371094 44.3727229,69.7308105 Z" id="Shape" fill="#000000" fill-rule="nonzero"></path>
                </g>
            </g>
            <g filter="url(#filter-8)" id="easter-egg">
                <g transform="translate(215.584928, 212.134475) rotate(-15.000000) translate(-215.584928, -212.134475) translate(191.584928, 182.634475)">
                    <path d="M45.6364191,21.9681924 C44.468554,18.1037158 42.7541299,14.3944345 40.678542,11.241251 C38.4943444,7.92301658 35.9943974,5.29024704 33.2480119,3.41612204 C30.2649275,1.3803447 27.1375588,0.348125951 23.9527709,0.348125951 C20.7679829,0.348125951 17.6406143,1.3803447 14.6574167,3.41612204 C11.9110311,5.29024704 9.41108415,7.92301658 7.22688656,11.241251 C5.15129861,14.3943213 3.43698776,18.1037158 2.26900945,21.9681924 C1.0808721,25.9000713 0.452770895,30.0188642 0.452770895,33.879376 C0.452770895,41.4607236 2.83640704,47.7717353 7.34614198,52.1301181 C9.45162873,54.1649892 11.9736601,55.7332549 14.8421323,56.791415 C17.6421998,57.8243135 20.7075058,58.348126 23.9527709,58.348126 C27.198036,58.348126 30.263342,57.8243135 33.0632962,56.791415 C35.9317685,55.7332549 38.4537998,54.164876 40.5592866,52.1301181 C45.0691348,47.7717353 47.4527709,41.4607236 47.4527709,33.879376 C47.4527709,30.0188642 46.8246697,25.9000713 45.6364191,21.9681924 Z M24.0477902,56.6478877 C25.6476022,55.4978564 27.1501299,54.2272939 28.5300046,52.8470752 C32.3879685,48.9881494 35.376942,44.2244463 37.173701,39.0709424 C38.7986552,34.4096455 41.5209179,30.2309267 45.0849902,26.9057822 C45.3880552,28.5251377 45.5922504,30.1495908 45.6889685,31.75354 C42.2434721,35.5725908 39.534007,40.1351064 37.848236,44.97029 C36.4233998,49.0571377 34.1551685,52.6551767 31.1071902,55.6661924 C28.9446239,56.3026064 26.5827323,56.6396181 24.0477902,56.6478877 L24.0477902,56.6478877 Z M16.8931444,55.6945127 C20.310554,54.0168174 23.3596649,51.7729424 25.9751299,49.00129 C29.0677299,45.7240635 31.3962119,41.8811103 32.8960215,37.578915 C34.6089733,32.6656806 37.4587588,28.1238955 41.1372167,24.4446338 C41.9928432,23.5887939 42.9049829,22.769997 43.8577805,22.0005908 C44.167301,22.9852314 44.4406938,23.9818799 44.6775058,24.9844189 C40.5424119,28.59979 37.3978287,33.2670908 35.5695854,38.5114463 C33.8566335,43.4247939 31.006848,47.9664658 27.3287299,51.6456142 C25.4939179,53.4807705 23.4336191,55.1165517 21.2046866,56.5135361 C19.6935516,56.3633252 18.2539926,56.0882783 16.8931444,55.6945127 Z M35.8843155,7.88755954 C33.6228793,9.36055564 31.5249805,11.0579619 29.6394311,12.9440947 C25.5413709,17.04329 22.3665492,22.1031103 20.4584625,27.5764072 C17.741636,35.369251 11.8243926,41.4783955 4.15874921,44.4429658 C3.75907933,43.5076025 3.41626246,42.5261338 3.13290343,41.501165 C6.08189861,39.8526963 8.77346969,37.8203174 11.1401179,35.4529658 C14.998195,31.5939267 17.9871685,26.8302236 19.7838143,21.676833 C22.1813805,14.7997549 26.9335902,9.05673533 33.1909323,5.45439158 C34.1140576,6.16137986 35.0139661,6.97292673 35.8843155,7.88755954 L35.8843155,7.88755954 Z M26.6391323,2.32782908 C25.1839444,3.40343454 23.8119974,4.5830322 22.546395,5.84906345 C21.5442191,6.85148923 20.5876841,7.92947361 19.7032914,9.05322361 C19.4131372,9.42184079 19.4767854,9.95607517 19.8454239,10.2463017 C20.0011468,10.3689853 20.1863155,10.4283447 20.3702384,10.4283447 C20.6216601,10.4283447 20.8705902,10.3171025 21.0382046,10.1041338 C21.8810335,9.03305954 22.792607,8.00571189 23.7475564,7.05052439 C25.2602769,5.53742673 26.9337034,4.15516892 28.7229878,2.9336572 C29.7170094,3.30533298 30.6967613,3.79130954 31.6560143,4.38886814 C25.3844022,8.21324314 20.6234721,14.1080595 18.1798119,21.1173369 C16.4668601,26.0305713 13.6171878,30.5722431 9.93895644,34.2515049 C7.79519017,36.3958056 5.37066969,38.2514658 2.72168174,39.7798564 C2.52405523,38.8058642 2.37682632,37.797208 2.28169379,36.7558135 C8.41932752,32.9343838 13.1067564,27.0678877 15.5064745,20.1848056 C16.4040046,17.6102627 17.6166046,15.1282705 19.1107516,12.8077041 C19.3647781,12.4132588 19.2509588,11.8874072 18.8564986,11.6333174 C18.4622649,11.3793408 17.9365444,11.4931885 17.6824046,11.8876338 C16.1157757,14.320915 14.8439444,16.9242314 13.9023588,19.6253095 C11.7332239,25.8470556 7.59156126,31.1914385 2.16617571,34.8103213 C2.15745523,34.5021963 2.15156608,34.1924853 2.15156608,33.879376 C2.15156608,32.5807197 2.2276721,31.2603135 2.3725227,29.9328838 C2.94796126,29.4228916 3.51105523,28.894208 4.04696849,28.3581611 C8.14491547,24.2593056 11.3196239,19.1995986 13.2278239,13.7260752 C14.7192528,9.44846189 17.2378866,5.57220408 20.5129372,2.50805954 C21.6478456,2.20435251 22.7972504,2.0473447 23.9527709,2.0473447 C24.8532456,2.0473447 25.7499829,2.14272751 26.6391323,2.32782908 L26.6391323,2.32782908 Z M8.64583355,12.1755947 C11.0292432,8.55467283 13.7624914,5.83750876 16.6741131,4.13330564 C14.4903685,6.81036814 12.7706215,9.87700486 11.6238215,13.1664658 C9.79931547,18.399833 6.76390824,23.2375088 2.84580704,27.1565869 C2.81760704,27.1847939 2.78850102,27.2126611 2.76018776,27.2408681 C3.718648,21.8728095 5.77237812,16.5408877 8.64583355,12.1755947 L8.64583355,12.1755947 Z M4.88934439,45.9813252 C12.9638311,42.8197588 19.1944456,36.3626142 22.0625781,28.1360166 C23.8869709,22.9027627 26.9224914,18.0649736 30.8407058,14.1456689 C32.7032649,12.2826455 34.7848552,10.6138994 37.0307757,9.17307517 C37.8018022,10.0918994 38.5466673,11.0925127 39.2597082,12.175708 C39.9135179,13.168958 40.5242914,14.2128447 41.0901034,15.295247 C35.4908745,18.847747 31.2155733,24.2443525 29.0133685,30.5605752 C27.5830962,34.6630556 25.3523516,38.6155517 22.5624769,41.9908799 C22.2636022,42.3524736 22.3143396,42.8880674 22.6758432,43.1870166 C22.8341709,43.3179697 23.0259082,43.3818603 23.2165131,43.3818603 C23.4610263,43.3818603 23.7037275,43.2768486 23.8716817,43.073622 C26.8304167,39.4941611 29.100007,35.4723369 30.6172576,31.1200713 C32.6733661,25.2225361 36.6460552,20.1772158 41.8479926,16.8285088 C42.3739396,17.9519189 42.8524335,19.1093135 43.2795107,20.2903838 C42.1023588,21.2081885 40.9792287,22.1993994 39.9357155,23.2431728 C36.0775251,27.1023252 33.0884384,31.8660283 31.2916793,37.0194189 C28.4854962,45.0688447 22.4025637,51.5659775 14.5838022,54.8823994 C13.3850191,54.3809033 12.2596239,53.7780205 11.2145251,53.0780556 C14.9823396,51.2072158 18.494542,48.694751 21.436289,45.7521572 L21.559395,45.6284541 C21.8895275,45.2950674 21.8869227,44.7570947 21.5536191,44.4269931 C21.2203155,44.096665 20.6824769,44.0993838 20.3524576,44.4327705 L20.2351275,44.5506963 C17.2201058,47.5664697 13.5780022,50.1103135 9.67904077,51.9321025 C7.72655885,50.3155791 6.11428897,48.3152588 4.88934439,45.9813252 Z M34.6415902,54.2732861 C36.7184239,51.6712158 38.3320528,48.7432353 39.4522384,45.530126 C40.8629179,41.483833 43.0240119,37.6371416 45.7500119,34.2913799 C45.6331348,43.7040322 41.5152552,50.7981572 34.6415902,54.2732861 Z" id="Shape" fill="#000000" fill-rule="nonzero"></path>
                </g>
            </g>
            <g filter="url(#filter-9)" id="easter-egg">
                <g transform="translate(96.900525, 216.223181)">
                    <path d="M25.0946849,12.7051313 C24.4486319,10.5730063 23.500227,8.52650632 22.3520294,6.78681882 C21.1437499,4.95606882 19.7608005,3.50350632 18.2415234,2.46950632 C16.5913066,1.34631882 14.8612728,0.776818823 13.0994752,0.776818823 C11.3376776,0.776818823 9.6076439,1.34631882 7.95736439,2.46950632 C6.43808728,3.50350632 5.05513788,4.95606882 3.84685836,6.78681882 C2.69866077,8.52644382 1.7503186,10.5730063 1.10420294,12.7051313 C0.446935471,14.8744438 0.0994752299,17.1468813 0.0994752299,19.2768188 C0.0994752299,23.4596313 1.41808246,26.9415688 3.91282945,29.3461938 C5.0775668,30.4688813 6.47273306,31.3341313 8.05954752,31.9179438 C9.60852101,32.4878188 11.3042222,32.7768188 13.0994752,32.7768188 C14.8947282,32.7768188 16.5904294,32.4878188 18.1393403,31.9179438 C19.7261547,31.3341313 21.121321,30.4688188 22.2860584,29.3461938 C24.780868,26.9415688 26.0994752,23.4596313 26.0994752,19.2768188 C26.0994752,17.1468813 25.752015,14.8744438 25.0946849,12.7051313 Z M13.1520391,31.8387563 C14.0370415,31.2042563 14.868227,30.5032563 15.631562,29.7417563 C17.7657547,27.6126938 19.4192294,24.9844438 20.4131813,22.1411313 C21.3120921,19.5693813 22.8180246,17.2638813 24.7896391,15.4293188 C24.9572921,16.3227563 25.0702511,17.2190063 25.1237547,18.1039438 C23.2177355,20.2110063 21.7188825,22.7282563 20.7863282,25.3959438 C19.998121,27.6507563 18.7433547,29.6358813 17.0572391,31.2971313 C15.8609258,31.6482563 14.5543475,31.8341938 13.1520391,31.8387563 L13.1520391,31.8387563 Z M9.19414993,31.3127563 C11.0846319,30.3871313 12.771374,29.1491313 14.218227,27.6199438 C15.929027,25.8118188 17.2171234,23.6915688 18.0468054,21.3179438 C18.9943957,18.6071938 20.5708728,16.1013813 22.6057644,14.0714438 C23.0790897,13.5992563 23.5836776,13.1475063 24.1107572,12.7230063 C24.2819813,13.2662563 24.4332198,13.8161313 24.5642222,14.3692563 C22.2767234,16.3639438 20.5371668,18.9390063 19.5257981,21.8324438 C18.5782078,24.5432563 17.0017307,27.0490063 14.967027,29.0788813 C13.9520246,30.0913813 12.8122849,30.9938813 11.5792584,31.7646313 C10.7433114,31.6817563 9.94695957,31.5300063 9.19414993,31.3127563 Z M19.6999041,4.93650632 C18.4488969,5.74919382 17.2883572,6.68569382 16.2452873,7.72631882 C13.9782752,9.98794382 12.2219909,12.7795688 11.1664535,15.7993188 C9.66352824,20.0988188 6.39015957,23.4693813 2.14959089,25.1050063 C1.92849692,24.5889438 1.73885354,24.0474438 1.58210174,23.4819438 C3.21346077,22.5724438 4.70241499,21.4511313 6.01162463,20.1450063 C8.14588005,18.0158813 9.79935475,15.3876313 10.7932439,12.5443813 C12.1195572,8.75013132 14.7484391,5.58156882 18.2099475,3.59406882 C18.7206126,3.98413132 19.2184343,4.43188132 19.6999041,4.93650632 L19.6999041,4.93650632 Z M14.5855475,1.86906882 C13.7805499,2.46250632 13.0216005,3.11331882 12.32148,3.81181882 C11.7670849,4.36488132 11.2379379,4.95963132 10.7486993,5.57963132 C10.5881885,5.78300632 10.6233981,6.07775632 10.8273258,6.23788132 C10.9134704,6.30556882 11.0159041,6.33831882 11.1176487,6.33831882 C11.2567331,6.33831882 11.3944391,6.27694382 11.487162,6.15944382 C11.9534078,5.56850632 12.4576825,5.00169382 12.9859523,4.47469382 C13.8227764,3.63988132 14.7485017,2.87725632 15.7383186,2.20331882 C16.2882029,2.40838132 16.8301933,2.67650632 17.3608439,3.00619382 C13.8914415,5.11619382 11.2577355,8.36850632 9.90592342,12.2356938 C8.95833306,14.9464438 7.3819186,17.4521938 5.34715234,19.4821313 C4.16123909,20.6651938 2.82001499,21.6890063 1.3546174,22.5322563 C1.2452921,21.9948813 1.16384631,21.4383813 1.11121981,20.8638188 C4.50650656,18.7554438 7.09955234,15.5187563 8.42705595,11.7211938 C8.92356198,10.3007563 9.59436198,8.93138132 10.4209114,7.65106882 C10.5614367,7.43344382 10.4984728,7.14331882 10.2802608,7.00313132 C10.062174,6.86300632 9.77134993,6.92581882 9.63076198,7.14344382 C8.76411619,8.48594382 8.06054993,9.92225632 7.53967282,11.4125063 C6.33972583,14.8451938 4.0485933,17.7938188 1.04731619,19.7904438 C1.0424921,19.6204438 1.03923427,19.4495688 1.03923427,19.2768188 C1.03923427,18.5603188 1.08133547,17.8318188 1.16146559,17.0994438 C1.4797933,16.8180688 1.7912921,16.5263813 2.08775475,16.2306313 C4.35470415,13.9691938 6.11092583,11.1776313 7.16652583,8.15775632 C7.99157162,5.79769382 9.38485836,3.65906882 11.1965885,1.96850632 C11.8244102,1.80094382 12.4602511,1.71431882 13.0994752,1.71431882 C13.5976102,1.71431882 14.0936776,1.76694382 14.5855475,1.86906882 L14.5855475,1.86906882 Z M4.63180776,7.30231882 C5.95028969,5.30456882 7.46229933,3.80544382 9.07298366,2.86519382 C7.86495475,4.34219382 6.91360535,6.03413132 6.27920535,7.84900632 C5.26990415,10.7363813 3.5907427,13.4054438 1.42328246,15.5676938 C1.40768246,15.5832563 1.39158125,15.5986313 1.3759186,15.6141938 C1.90613065,12.6525063 3.04223668,9.71075632 4.63180776,7.30231882 L4.63180776,7.30231882 Z M2.55374993,25.9537563 C7.02048728,24.2094438 10.4672102,20.6468813 12.0538367,16.1080688 C13.0630752,13.2207563 14.7422993,10.5516313 16.9098222,8.38925632 C17.940174,7.36138132 19.0916921,6.44069382 20.3341162,5.64575632 C20.7606415,6.15269382 21.1726945,6.70475632 21.5671427,7.30238132 C21.9288246,7.85038132 22.2666993,8.42631882 22.5797017,9.02350632 C19.482256,10.9835063 17.1171957,13.9609438 15.8989547,17.4457563 C15.1077403,19.7091938 13.8737114,21.8898813 12.3303764,23.7521313 C12.1650415,23.9516313 12.193109,24.2471313 12.3930897,24.4120688 C12.4806752,24.4843188 12.5867427,24.5195688 12.6921837,24.5195688 C12.8274463,24.5195688 12.9617066,24.4616313 13.0546174,24.3495063 C14.6913644,22.3746313 15.9468825,20.1556938 16.7862126,17.7544438 C17.9236343,14.5006313 20.1212921,11.7170063 22.9989596,9.86944382 C23.289909,10.4892563 23.5546078,11.1278188 23.7908632,11.7794438 C23.1396728,12.2858188 22.5183668,12.8326938 21.9411041,13.4085688 C19.8067861,15.5377563 18.1532487,18.1660063 17.1592969,21.0092563 C15.6069403,25.4503188 12.2419138,29.0349438 7.91664149,30.8646938 C7.25348487,30.5880063 6.63092583,30.2553813 6.05278607,29.8691938 C8.13710896,28.8370063 10.0800294,27.4508188 11.7073788,25.8273188 L11.77548,25.7590688 C11.9581066,25.5751313 11.9566656,25.2783188 11.7722849,25.0961938 C11.5879041,24.9139438 11.2903764,24.9154438 11.1078126,25.0993813 L11.0429066,25.1644438 C9.37502222,26.8283188 7.36024149,28.2318188 5.20336921,29.2369438 C4.12327282,28.3450688 3.23137884,27.2414438 2.55374993,25.9537563 Z M19.0124391,30.5286313 C20.1613258,29.0930063 21.0539716,27.4775688 21.6736487,25.7048188 C22.4540246,23.4723813 23.6495234,21.3500688 25.1575234,19.5041313 C25.092868,24.6973188 22.8148921,28.6113188 19.0124391,30.5286313 Z" id="Shape" fill="#000000" fill-rule="nonzero"></path>
                </g>
            </g>
            <g filter="url(#filter-10)" id="easter-egg-copy">
                <g transform="translate(128.584928, 148.134475) rotate(-360.000000) translate(-128.584928, -148.134475) translate(86.584928, 96.134475)">
                    <path d="M80.2074723,39.2597806 C78.1450723,32.3970032 75.1174723,25.8098314 71.4520723,20.2102122 C67.5948723,14.3174857 63.1800723,9.64205012 58.3300723,6.31386262 C53.0620723,2.69860285 47.5392723,0.865524725 41.9150723,0.865524725 C36.2908723,0.865524725 30.7680723,2.69860285 25.4998723,6.31386262 C20.6498723,9.64205012 16.2350723,14.3174857 12.3778723,20.2102122 C8.71247229,25.8096302 5.68507229,32.3970032 3.62247229,39.2597806 C1.52427229,46.2422552 0.415072291,53.5566634 0.415072291,60.4123997 C0.415072291,73.8758275 4.62447229,85.0833138 12.5884723,92.8232005 C16.3066723,96.4368509 20.7604723,99.2218743 25.8260723,101.101021 C30.7708723,102.935306 36.1840723,103.865525 41.9150723,103.865525 C47.6460723,103.865525 53.0592723,102.935306 58.0038723,101.101021 C63.0694723,99.2218743 67.5232723,96.4366497 71.2414723,92.8232005 C79.2056723,85.0833138 83.4150723,73.8758275 83.4150723,60.4123997 C83.4150723,53.5566634 82.3058723,46.2422552 80.2074723,39.2597806 Z M42.0828723,100.846136 C44.9080723,98.8038392 47.5614723,96.5474954 49.9982723,94.0964173 C56.8112723,87.2434974 62.0896723,78.7838177 65.2626723,69.6319056 C68.1322723,61.3540853 72.9396723,53.9332571 79.2336723,48.0282591 C79.7688723,50.9040111 80.1294723,53.7888157 80.3002723,56.6372083 C74.2156723,63.4193157 69.4308723,71.5217142 66.4538723,80.1083333 C63.9376723,87.3660111 59.9320723,93.7556321 54.5494723,99.1027806 C50.7304723,100.232964 46.5594723,100.831451 42.0828723,100.846136 L42.0828723,100.846136 Z M29.4480723,99.1530736 C35.4830723,96.1737181 40.8676723,92.1889056 45.4864723,87.2668333 C50.9478723,81.446931 55.0598723,74.6223763 57.7084723,66.9822708 C60.7334723,58.2570443 65.7660723,50.1914603 72.2620723,43.6575989 C73.7730723,42.1377454 75.3838723,40.6836751 77.0664723,39.3173157 C77.6130723,41.0659017 78.0958723,42.8358118 78.5140723,44.6161829 C71.2116723,51.0365833 65.6584723,59.3250657 62.4298723,68.6383177 C59.4048723,77.3637454 54.3722723,85.4291282 47.8768723,91.9627884 C44.6366723,95.2217728 40.9982723,98.1266946 37.0620723,100.607546 C34.3934723,100.340792 31.8512723,99.852347 29.4480723,99.1530736 Z M62.9856723,14.2545189 C58.9920723,16.8703568 55.2872723,19.8847161 51.9574723,23.2342279 C44.7204723,30.5138333 39.1138723,39.4993763 35.7442723,49.2191966 C30.9464723,63.0582122 20.4968723,73.9072103 6.95967229,79.1718782 C6.25387229,77.5108021 5.64847229,75.7678489 5.14807229,73.9476458 C10.3558723,71.0201927 15.1090723,67.4109681 19.2884723,63.2068782 C26.1016723,56.3537571 31.3800723,47.8940775 34.5528723,38.7423665 C38.7868723,26.5296243 47.1790723,16.3308138 58.2292723,9.93354816 C59.8594723,11.1890618 61.4486723,12.6302571 62.9856723,14.2545189 L62.9856723,14.2545189 Z M46.6590723,4.38120441 C44.0892723,6.29133137 41.6664723,8.3861341 39.4314723,10.634431 C37.6616723,12.4146009 35.9724723,14.3289525 34.4106723,16.3245775 C33.8982723,16.9791907 34.0106723,17.9279173 34.6616723,18.4433196 C34.9366723,18.6611888 35.2636723,18.7666029 35.5884723,18.7666029 C36.0324723,18.7666029 36.4720723,18.5690521 36.7680723,18.1908489 C38.2564723,16.2887689 39.8662723,14.4643411 41.5526723,12.7680599 C44.2240723,10.0810071 47.1792723,7.62630793 50.3390723,5.4570716 C52.0944723,6.11711652 53.8246723,6.98014387 55.5186723,8.04132551 C44.4432723,14.832888 36.0356723,25.3012689 31.7202723,37.7487786 C28.6952723,46.4740052 23.6628723,54.539388 17.1672723,61.0732493 C13.3814723,64.8812318 9.09987229,68.1766282 4.42187229,70.8908392 C4.07287229,69.1611634 3.81287229,67.369929 3.64487229,65.520556 C14.4836723,58.7342239 22.7614723,48.3161361 26.9992723,36.0927318 C28.5842723,31.5206986 30.7256723,27.1130228 33.3642723,22.9920169 C33.8128723,22.2915364 33.6118723,21.3576966 32.9152723,20.9064681 C32.2190723,20.4554407 31.2906723,20.6576185 30.8418723,21.3580989 C28.0752723,25.6792708 25.8292723,30.3024017 24.1664723,35.0991439 C20.3358723,46.1481068 13.0218723,55.6389935 3.44087229,62.0656302 C3.42547229,61.5184427 3.41507229,60.9684388 3.41507229,60.4123997 C3.41507229,58.1061654 3.54947229,55.761306 3.80527229,53.4039739 C4.82147229,52.4982982 5.81587229,51.559429 6.76227229,50.6074837 C13.9990723,43.3284818 19.6054723,34.34314 22.9752723,24.6229173 C25.6090723,17.0264661 30.0568723,10.1427669 35.8404723,4.70126887 C37.8446723,4.16192707 39.8744723,3.88310285 41.9150723,3.88310285 C43.5052723,3.88310285 45.0888723,4.05248957 46.6590723,4.38120441 L46.6590723,4.38120441 Z M14.8836723,21.8694779 C19.0926723,15.43922 23.9194723,10.6139114 29.0612723,7.58748176 C25.2048723,12.3415755 22.1678723,17.7874993 20.1426723,23.6291282 C16.9206723,32.9228665 11.5602723,41.5139114 4.64107229,48.4736536 C4.59127229,48.5237454 4.53987229,48.5732337 4.48987229,48.6233255 C6.18247229,39.0903939 9.80927229,29.6216361 14.8836723,21.8694779 L14.8836723,21.8694779 Z M8.24987229,81.9037923 C22.5090723,76.2892864 33.5120723,64.8222884 38.5770723,50.2129857 C41.7988723,40.9194486 47.1594723,32.3282025 54.0788723,25.3680579 C57.3680723,22.0595853 61.0440723,19.0961224 65.0102723,16.5374173 C66.3718723,18.1691224 67.6872723,19.9460736 68.9464723,21.869679 C70.1010723,23.633554 71.1796723,25.4873529 72.1788723,27.4095501 C62.2908723,33.7183001 54.7408723,43.3019271 50.8518723,54.5186673 C48.3260723,61.8041068 44.3866723,68.8231946 39.4598723,74.8173118 C38.9320723,75.4594525 39.0216723,76.4105931 39.6600723,76.9414857 C39.9396723,77.1740404 40.2782723,77.2875013 40.6148723,77.2875013 C41.0466723,77.2875013 41.4752723,77.101015 41.7718723,76.7401126 C46.9968723,70.3834837 51.0048723,63.2412786 53.6842723,55.5122552 C57.3152723,45.0390462 64.3308723,36.0792532 73.5172723,30.1324114 C74.4460723,32.1274329 75.2910723,34.182806 76.0452723,36.2802239 C73.9664723,37.9101185 71.9830723,39.6703724 70.1402723,41.52397 C63.3268723,48.3772923 58.0482723,56.836972 54.8752723,65.9886829 C49.9196723,80.2833529 39.1774723,91.8213646 25.3698723,97.7108724 C23.2528723,96.8202845 21.2654723,95.7496478 19.4198723,94.5066068 C26.0736723,91.1842532 32.2760723,86.7224622 37.4710723,81.4968216 L37.6884723,81.2771419 C38.2714723,80.6850931 38.2668723,79.7297279 37.6782723,79.143513 C37.0896723,78.5568958 36.1398723,78.5617239 35.5570723,79.1537728 L35.3498723,79.3631927 C30.0254723,84.7187904 23.5936723,89.236306 16.7082723,92.4715521 C13.2602723,89.6008294 10.4130723,86.0485364 8.24987229,81.9037923 Z M60.7910723,96.6291712 C64.4586723,92.0082532 67.3082723,86.8085638 69.2864723,81.1025247 C71.7776723,73.9168665 75.5940723,67.0856732 80.4080723,61.1440618 C80.2016723,77.8596341 72.9296723,90.4578216 60.7910723,96.6291712 Z" id="Shape" fill="#000000" fill-rule="nonzero"></path>
                </g>
            </g>
        </g>
    </g>
</svg>