<?xml version="1.0" encoding="UTF-8"?>
<svg width="250px" height="250px" viewBox="0 0 250 250" version="1.1" xmlns="http://www.w3.org/2000/svg" xmlns:xlink="http://www.w3.org/1999/xlink">
    <title>Group 3</title>
    <defs>
        <rect id="path-1" x="0" y="0" width="250" height="250"></rect>
    </defs>
    <g id="Page-1" stroke="none" stroke-width="1" fill="none" fill-rule="evenodd">
        <g id="Group-2-+-Group-2-Copy-2-+-Group-2-Copy-3-+-Group-2-Copy-Mask">
            <mask id="mask-2" fill="white">
                <use xlink:href="#path-1"></use>
            </mask>
            <g id="Mask"></g>
            <path d="M199.56,37 C199.97,36.55 200.35,36.3 200.49,35.95 C201.831573,33.1236882 203.663204,30.5573732 205.9,28.37 C208.407406,25.6605861 211.594369,23.6717549 215.13,22.61 C217.31793,21.7773178 219.739729,21.8023216 221.91,22.68 C223.01,23.19 224.26,23.21 225.37,23.85 C227.983703,25.3354261 230.101876,27.5579424 231.46,30.24 C233.310435,33.5564087 234.45443,37.2199162 234.82,41 C235.192625,42.5811384 235.317446,44.2105539 235.19,45.83 C235.128699,46.9092944 235.182334,47.9920476 235.35,49.06 C235.449017,49.72299 235.449017,50.39701 235.35,51.06 C234.94,55.91 234.53,60.76 234.08,65.6 C233.958748,66.4112387 233.781661,67.2131434 233.55,68 C233.39,68.66 233.19,69.3 233.09,70 C232.81,71.87 232.7,73.77 232.29,75.61 C231.785285,77.2904174 231.384527,79.0003198 231.09,80.73 C230.09,83.26 230.09,86.03 229.09,88.55 C228.79,90.97 227.85,93.23 227.38,95.61 C226.91,97.99 226.13,100.56 225.52,102.89 C225.677883,103.884582 226.114813,104.813926 226.78,105.57 C227.72,106.73 228.63,107.91 229.57,109.06 C230.153766,109.816255 230.538816,110.706682 230.69,111.65 C230.740666,112.181958 230.706916,112.718582 230.59,113.24 C230.401504,113.758176 229.920727,114.112848 229.37,114.14 C228.543551,114.105079 227.734702,113.890068 227,113.51 C226.06,112.99 225.1,112.51 224.14,111.98 L221.81,114.57 C220.82349,114.971734 219.723691,114.996649 218.72,114.64 C218.37,114.28 217.97,113.92 217.64,113.51 C217.199279,112.981384 216.97113,112.307631 217,111.62 C217,110.81 217.09,110 217.16,109.2 C217.23,108.4 217.32,107.32 217.42,106.26 C216.702091,105.307765 215.923826,104.402572 215.09,103.55 C212.09,100.81 209.67,97.55 206.73,94.7 C205.78,92.82 203.87,91.89 202.47,90.45 C202.01,89.96 201.4,89.62 200.91,89.16 C199.618139,87.7690726 198.231487,86.4692955 196.76,85.27 C195.2,84.17 193.94,82.76 192.38,81.66 C191.130412,80.8270892 189.99425,79.835468 189,78.71 C188.5,78.11 187.65,77.81 187.07,77.26 C185.541186,75.926185 184.092025,74.5037362 182.73,73 C181.25,71.24 179.47,69.77 177.98,68 C177.707759,67.6999176 177.40249,67.4315495 177.07,67.2 C176.489851,66.8606047 175.935064,66.4796066 175.41,66.06 C173.67,64.3466667 171.963333,62.6 170.29,60.82 C169.45889,59.9399687 168.782679,58.9256518 168.29,57.82 C167.57,56.23 166.59,54.75 165.62,53.04 C165.67153,51.6896304 165.281882,50.3592118 164.51,49.25 C164,47 164.9,44.93 164,43 C164.28,42.05 164.55,41.15 164.8,40.25 C165.05,39.35 165.17,38.67 165.33,38 C166.2,36.82 167,35.75 167.79,34.65 C168.26,33.99 168.6,33.24 169.09,32.6 C169.464671,32.0323284 169.943029,31.5404003 170.5,31.15 C172.285033,29.9150416 174.233876,28.9355712 176.29,28.24 C177.468728,27.9338635 178.668763,27.7165872 179.88,27.59 C180.544802,27.474613 181.226539,27.5018824 181.88,27.67 C183.4,28.22 185.1,27.86 186.57,28.74 C187.241662,28.9718596 187.949734,29.0802727 188.66,29.06 C189.578101,29.5913991 190.526374,30.0688743 191.5,30.49 C192.612377,30.977759 193.657576,31.606223 194.61,32.36 C195.522522,32.9440075 196.356042,33.6430894 197.09,34.44 C197.77,35.27 198.58,36 199.56,37 Z M171.76,45.43 C172.07,46.58 172.3,47.36 172.47,48.15 C173.015165,50.9648072 174.411409,53.5443683 176.47,55.54 C177.16,56.19 177.84,56.85 178.54,57.54 C180.04,58.91 181.64,60.18 183.05,61.64 C184.852817,63.4748622 186.762835,65.2012244 188.77,66.81 C191.71,69.22 194.71,71.55 197.64,73.96 C201.1,76.8 204.64,79.61 207.91,82.6 C211.240861,85.5906585 214.339773,88.8299743 217.18,92.29 C217.96,93.23 218.76,94.15 219.55,95.08 C219.698247,95.2169148 219.90311,95.274527 220.10099,95.234951 C220.29887,95.195375 220.465816,95.0634009 220.55,94.88 C220.674062,94.6449662 220.771338,94.3967443 220.84,94.14 C221.2,91.46 222.4,88.98 222.67,86.28 C222.684581,86.1436597 222.714779,86.0094461 222.76,85.88 C223.840643,82.6598764 224.650129,79.3550293 225.18,76 C225.232474,75.598269 225.336671,75.2050088 225.49,74.83 C226.19,73.18 226.17,71.4 226.49,69.68 C226.81,67.96 227.41,66.01 227.62,64.14 C228.12,59.58 228.49,55 228.89,50.42 C229.024256,47.6060214 228.880224,44.785662 228.46,42 C228.305114,40.3910084 227.997052,38.8004668 227.54,37.25 C226.832018,34.2714862 225.145388,31.6165412 222.75,29.71 L219.49,28.71 C216.864372,28.7929301 214.321563,29.6486494 212.18,31.17 C209.520278,33.0564743 207.265838,35.4571298 205.55,38.23 C204.559347,39.6735474 204.042132,41.3894441 204.07,43.14 C204.250242,44.0960878 204.70551,44.9788196 205.38,45.68 C205.76,46.06 206.22,46.36 206.22,47.1 C206.22,47.37 206.13,47.77 206.05,48.16 C205.922609,48.8405466 205.463408,49.4123413 204.826401,49.6836222 C204.189393,49.9549032 203.458935,49.8897451 202.88,49.51 C202.026069,49.0828439 201.26221,48.4955212 200.63,47.78 C200.29,47.36 199.95,46.94 199.63,46.54 C197.902936,44.6271207 195.982727,42.8979276 193.9,41.38 C192.15,40.1 190.27,39 188.42,37.85 C186.657877,36.8202823 184.733961,36.0967004 182.73,35.71 C180.570419,35.3303678 178.346045,35.6491363 176.38,36.62 C174.632063,37.3709341 173.24932,38.7788175 172.53,40.54 L171.76,45.43 Z" id="Shape" fill="#FC3F70" fill-rule="nonzero" mask="url(#mask-2)" transform="translate(199.712131, 68.446814) rotate(22.000000) translate(-199.712131, -68.446814) "></path>
            <path d="M195.821083,147.436846 C196.303272,146.913631 196.750179,146.622957 196.914829,146.216012 C198.492614,142.929865 200.646742,139.946015 203.277373,137.40276 C206.22626,134.252529 209.974355,131.940119 214.132507,130.705618 C216.705668,129.73746 219.553876,129.766532 222.106268,130.787007 C223.399947,131.379983 224.870035,131.403237 226.175474,132.147364 C229.249374,133.874466 231.740496,136.458582 233.337746,139.577006 C235.513988,143.432988 236.859408,147.692542 237.289344,152.087639 C237.727578,153.926025 237.874376,155.820544 237.724491,157.703471 C237.652397,158.958365 237.715475,160.21728 237.912662,161.458986 C238.029113,162.229844 238.029113,163.013525 237.912662,163.784383 C237.430473,169.423469 236.948284,175.062555 236.419052,180.690015 C236.276451,181.633241 236.068184,182.565614 235.795734,183.480491 C235.607563,184.247871 235.372349,184.991998 235.254742,185.805887 C234.925442,187.980133 234.796074,190.189259 234.313885,192.328624 C233.720304,194.282442 233.248984,196.270543 232.9026,198.281639 C231.726529,201.223265 231.726529,204.443939 230.550458,207.373939 C230.197637,210.187669 229.09213,212.815367 228.539377,215.582588 C227.986623,218.34981 227.069288,221.337945 226.351885,224.047032 C226.537566,225.20343 227.051427,226.283977 227.833734,227.163063 C228.939241,228.511793 230.009465,229.883777 231.114972,231.22088 C231.801523,232.100176 232.254368,233.135474 232.432171,234.232268 C232.491758,234.850775 232.452066,235.474706 232.314564,236.080958 C232.092879,236.683441 231.527452,237.095817 230.879758,237.127387 C229.907795,237.086783 228.956531,236.836791 228.09247,236.394887 C226.986963,235.790284 225.857935,235.232188 224.728907,234.615958 L221.988661,237.627347 C220.828455,238.094443 219.535013,238.123411 218.354602,237.708736 C217.942977,237.290164 217.472549,236.871593 217.084446,236.394887 C216.566126,235.780266 216.297807,234.996894 216.33176,234.197387 C216.33176,233.255601 216.437607,232.313816 216.519931,231.383657 C216.602256,230.453499 216.708103,229.197785 216.82571,227.965325 C215.981398,226.858162 215.066103,225.805696 214.085465,224.814412 C210.557252,221.628619 207.71116,217.838223 204.253512,214.524533 C203.136244,212.33866 200.889949,211.257351 199.243449,209.583066 C198.702457,209.013343 197.985053,208.618026 197.408779,208.083185 C195.889458,206.465956 194.258658,204.954708 192.528084,203.560289 C190.693414,202.281321 189.211564,200.641916 187.376893,199.362948 C185.907289,198.394524 184.571082,197.241568 183.401774,195.932988 C182.813738,195.23537 181.814078,194.88656 181.131957,194.247076 C179.333963,192.696252 177.629647,191.042373 176.027809,189.293982 C174.287224,187.247633 172.193818,185.538466 170.441472,183.480491 C170.121297,183.131585 169.762279,182.819554 169.371247,182.550332 C168.688951,182.155718 168.036482,181.712732 167.418969,181.224856 C165.372606,179.232766 163.365445,177.20192 161.397486,175.132317 C160.420042,174.109106 159.62477,172.929762 159.045344,171.644223 C158.198573,169.795532 157.046024,168.074739 155.905235,166.086525 C155.965838,164.516453 155.507585,162.969577 154.599796,161.679899 C154,159.063828 155.058464,156.657043 154,154.413035 C154.3293,153.308472 154.646839,152.262043 154.940857,151.215615 C155.234874,150.169186 155.376003,149.378552 155.564174,148.599544 C156.587356,147.22756 157.528213,145.983473 158.457309,144.704505 C159.010062,143.937124 159.409926,143.0651 159.986201,142.320973 C160.426841,141.660943 160.989423,141.088979 161.644461,140.635061 C163.743787,139.199177 166.035764,138.060349 168.453912,137.251609 C169.84018,136.895665 171.251506,136.643038 172.676007,136.495855 C173.45786,136.361695 174.259632,136.393401 175.028149,136.588871 C176.815776,137.228355 178.815097,136.809784 180.543921,137.832958 C181.333843,138.102541 182.166587,138.228593 183.00191,138.205022 C184.081662,138.822879 185.196897,139.378038 186.341951,139.86768 C187.650185,140.434797 188.879414,141.165511 189.999532,142.041926 C191.072722,142.72095 192.053001,143.533772 192.916188,144.460338 C193.715916,145.425378 194.668533,146.274147 195.821083,147.436846 Z M164,156.600466 C164.363248,157.948584 164.632754,158.86296 164.831955,159.789059 C165.47076,163.088792 167.106833,166.112751 169.519022,168.452183 C170.327541,169.214163 171.124343,169.987866 171.94458,170.796737 C173.70223,172.402756 175.577057,173.891547 177.229249,175.603071 C179.34173,177.754037 181.579826,179.777811 183.931755,181.663742 C187.37675,184.488928 190.892051,187.220333 194.325328,190.04552 C198.379641,193.374786 202.527696,196.668883 206.359374,200.17399 C210.262366,203.67987 213.893569,207.477244 217.221653,211.533351 C218.135632,212.635291 219.073045,213.713786 219.998741,214.804003 C220.172452,214.964505 220.412504,215.032043 220.644373,214.985649 C220.876242,214.939255 221.071864,214.784545 221.170508,214.569548 C221.315879,214.294023 221.429864,214.003039 221.51032,213.702063 C221.932156,210.560362 223.338277,207.653116 223.654654,204.487969 C223.671739,204.32814 223.707124,204.170805 223.760113,204.019058 C225.026374,200.244182 225.974904,196.369987 226.595789,192.436964 C226.657276,191.966024 226.779371,191.505015 226.959037,191.065401 C227.779273,189.131144 227.755838,187.044492 228.130803,185.028176 C228.505769,183.01186 229.208829,180.72592 229.4549,178.533763 C230.040783,173.188181 230.474337,167.819154 230.943044,162.450127 C231.100361,159.151365 230.931588,155.845124 230.439184,152.579557 C230.257694,150.693374 229.896717,148.828819 229.361159,147.011243 C228.531568,143.519601 226.555232,140.40727 223.748395,138.172277 L219.928435,137 C216.851811,137.097217 213.872232,138.100357 211.362819,139.883801 C208.246244,142.09527 205.604566,144.909503 203.594004,148.160074 C202.43319,149.852311 201.827134,151.863817 201.859789,153.915953 C202.070991,155.036752 202.604458,156.071558 203.394804,156.893535 C203.840075,157.339 204.379088,157.690683 204.379088,158.558168 C204.379088,158.874683 204.273629,159.343594 204.179888,159.800781 C204.030615,160.59857 203.492539,161.268872 202.746114,161.586888 C201.99969,161.904905 201.143764,161.828521 200.465386,161.383355 C199.464779,160.88261 198.569714,160.194105 197.828911,159.355316 C197.43051,158.86296 197.032109,158.370604 196.657144,157.901693 C194.633427,155.659269 192.383391,153.632177 189.94292,151.852746 C187.892327,150.352231 185.689406,149.062727 183.521637,147.714609 C181.45684,146.507495 179.202458,145.659257 176.854283,145.205937 C174.323758,144.760903 171.71731,145.134588 169.413563,146.272709 C167.365388,147.153011 165.745136,148.80344 164.902261,150.868033 L164,156.600466 Z" id="Shape" fill="#FC3F70" fill-rule="nonzero" mask="url(#mask-2)" transform="translate(196.000000, 184.000000) scale(-1, 1) translate(-196.000000, -184.000000) "></path>
            <path d="M51.3232128,142.436846 C51.7996615,141.913631 52.2412482,141.622957 52.403938,141.216012 C53.96294,137.929865 56.0914238,134.946015 58.6907372,132.40276 C61.6045184,129.252529 65.3079937,126.940119 69.4166443,125.705618 C71.9591718,124.73746 74.7734725,124.766532 77.2954796,125.787007 C78.5737567,126.379983 80.0263443,126.403237 81.3162421,127.147364 C84.3535482,128.874466 86.8150136,131.458582 88.393249,134.577006 C90.5435838,138.432988 91.8729861,142.692542 92.2978046,147.087639 C92.7308209,148.926025 92.8758713,150.820544 92.7277705,152.703471 C92.6565348,153.958365 92.7188623,155.21728 92.9137017,156.458986 C93.0287661,157.229844 93.0287661,158.013525 92.9137017,158.784383 C92.437253,164.423469 91.9608042,170.062555 91.4378727,175.690015 C91.2969698,176.633241 91.0911819,177.565614 90.8219755,178.480491 C90.6360443,179.247871 90.4036303,179.991998 90.2874233,180.805887 C89.9620437,182.980133 89.8342159,185.189259 89.3577672,187.328624 C88.7712532,189.282442 88.3055439,191.270543 87.9632831,193.281639 C86.801213,196.223265 86.801213,199.443939 85.6391429,202.373939 C85.2905218,205.187669 84.198176,207.815367 83.652003,210.582588 C83.1058301,213.34981 82.1994154,216.337945 81.4905526,219.047032 C81.6740237,220.20343 82.1817675,221.283977 82.9547609,222.163063 C84.0471068,223.511793 85.1045906,224.883777 86.1969365,226.22088 C86.8753141,227.100176 87.3227687,228.135474 87.498455,229.232268 C87.5573325,229.850775 87.5181127,230.474706 87.382248,231.080958 C87.1632023,231.683441 86.604506,232.095817 85.9645225,232.127387 C85.0041304,232.086783 84.0641911,231.836791 83.2104164,231.394887 C82.1180705,230.790284 81.0024832,230.232188 79.8868959,229.615958 L77.1792725,232.627347 C76.0328784,233.094443 74.7548347,233.123411 73.5884759,232.708736 C73.1817514,232.290164 72.7169234,231.871593 72.3334402,231.394887 C71.8212916,230.780266 71.5561662,229.996894 71.5897154,229.197387 C71.5897154,228.255601 71.6943017,227.313816 71.7756466,226.383657 C71.8569915,225.453499 71.9615778,224.197785 72.0777848,222.965325 C71.2435246,221.858162 70.3391258,220.805696 69.3701615,219.814412 C65.8839512,216.628619 63.0717415,212.838223 59.6552554,209.524533 C58.5512888,207.33866 56.3317349,206.257351 54.7048368,204.583066 C54.1702845,204.013343 53.4614218,203.618026 52.8920074,203.083185 C51.3907743,201.465956 49.7793878,199.954708 48.0694165,198.560289 C46.2565872,197.281321 44.7923788,195.641916 42.9795495,194.362948 C41.5274407,193.394524 40.2071402,192.241568 39.0517525,190.932988 C38.4707175,190.23537 37.4829579,189.88656 36.8089572,189.247076 C35.0323684,187.696252 33.3483412,186.042373 31.765573,184.293982 C30.0457092,182.247633 27.9772245,180.538466 26.24574,178.480491 C25.9293766,178.131585 25.5746328,177.819554 25.1882562,177.550332 C24.5140823,177.155718 23.8693812,176.712732 23.2592199,176.224856 C21.2372179,174.232766 19.2539516,172.20192 17.3094209,170.132317 C16.3436132,169.109106 15.5578083,167.929762 14.9852807,166.644223 C14.1485903,164.795532 13.0097616,163.074739 11.8825536,161.086525 C11.9424351,159.516453 11.4896372,157.969577 10.5926558,156.679899 C10,154.063828 11.0458631,151.657043 10,149.413035 C10.3253796,148.308472 10.6391386,147.262043 10.9296561,146.215615 C11.2201736,145.169186 11.359622,144.378552 11.5455532,143.599544 C12.5565542,142.22756 13.4862103,140.983473 14.4042457,139.704505 C14.9504186,138.937124 15.3455225,138.0651 15.9149368,137.320973 C16.3503308,136.660943 16.906216,136.088979 17.5534557,135.635061 C19.6277891,134.199177 21.8924814,133.060349 24.2818415,132.251609 C25.6516067,131.895665 27.0461304,131.643038 28.4536732,131.495855 C29.2262193,131.361695 30.0184454,131.393401 30.7778134,131.588871 C32.54416,132.228355 34.5196791,131.809784 36.2279222,132.832958 C37.00844,133.102541 37.8312703,133.228593 38.6566487,133.205022 C39.7235468,133.822879 40.8255057,134.378038 41.9569278,134.86768 C43.2495875,135.434797 44.4641826,136.165511 45.5709658,137.041926 C46.6313799,137.72095 47.5999893,138.533772 48.4528996,139.460338 C49.2431073,140.425378 50.1843841,141.274147 51.3232128,142.436846 Z M19,151.851754 C19.3632477,153.217156 19.6327541,154.143254 19.8319545,155.081226 C20.4707603,158.423263 22.106833,161.485991 24.5190222,163.855416 C25.3275414,164.627165 26.1243429,165.410787 26.9445797,166.230028 C28.7022301,167.856637 30.5770571,169.364516 32.2292485,171.097982 C34.3417303,173.276525 36.5798259,175.326245 38.9317553,177.236354 C42.37675,180.097761 45.8920508,182.864183 49.3253278,185.725591 C53.3796414,189.097539 57.5276963,192.433869 61.3593741,195.983913 C65.2623663,199.53474 68.8935689,203.380798 72.2216534,207.488907 C73.1356316,208.604975 74.0730451,209.697296 74.998741,210.801491 C75.1724518,210.96405 75.4125037,211.032454 75.6443731,210.985465 C75.8762425,210.938476 76.0718642,210.781782 76.1705079,210.564029 C76.3158792,210.284972 76.4298642,209.990257 76.5103203,209.685423 C76.9321564,206.503443 78.3382767,203.558925 78.6546538,200.353199 C78.6717388,200.191321 78.7071239,200.031969 78.7601128,199.878277 C80.0263741,196.055005 80.974904,192.131141 81.5957888,188.147695 C81.657276,187.670717 81.7793708,187.203797 81.9590365,186.758547 C82.7792733,184.799492 82.755838,182.686088 83.1308034,180.643921 C83.5057688,178.601755 84.208829,176.286509 84.4549,174.066247 C85.0407835,168.652132 85.4743373,163.214271 85.943044,157.77641 C86.1003611,154.435357 85.9315884,151.086728 85.4391842,147.779295 C85.2576944,145.86893 84.8967167,143.98047 84.3611587,142.139592 C83.5315684,138.603185 81.5552317,135.450953 78.7483951,133.187306 L74.928435,132 C71.8518106,132.098463 68.872232,133.114464 66.3628188,134.920772 C63.2462441,137.160594 60.604566,140.010907 58.5940042,143.303152 C57.4331898,145.017084 56.8271341,147.054378 56.8597891,149.132824 C57.0709912,150.267992 57.6044582,151.316065 58.3948038,152.148581 C58.8400752,152.599757 59.379088,152.955949 59.379088,153.834555 C59.379088,154.155128 59.273629,154.63005 59.1798876,155.093099 C59.0306146,155.901116 58.492539,156.580011 57.7461144,156.902105 C56.9996897,157.224198 56.1437636,157.146836 55.4653865,156.695962 C54.4647786,156.188797 53.5697138,155.491465 52.8289109,154.641923 C52.4305102,154.143254 52.0321094,153.644586 51.657144,153.169664 C49.6334274,150.898491 47.3833906,148.84541 44.9429196,147.043165 C42.8923275,145.523414 40.6894057,144.217377 38.5216369,142.851976 C36.4568396,141.629386 34.2024579,140.770273 31.8542831,140.311141 C29.3237576,139.860402 26.7173101,140.238877 24.4135632,141.391589 C22.3653885,142.283178 20.7451364,143.954766 19.9022605,146.045828 L19,151.851754 Z" id="Shape" fill="#FC3F70" fill-rule="nonzero" mask="url(#mask-2)"></path>
            <path d="M32.031867,47.438055 C32.2557405,47.1909816 32.463233,47.0537186 32.5396776,46.8615504 C33.2722207,45.3097585 34.2723516,43.9007183 35.4937158,42.6997368 C36.8628419,41.2121278 38.6030291,40.1201562 40.5335998,39.5371976 C41.7282814,39.0800118 43.0506637,39.0937402 44.2357031,39.5756312 C44.8363394,39.8556477 45.5188806,39.8666288 46.1249771,40.218022 C47.5521451,41.033598 48.7087372,42.253875 49.4503177,43.7264639 C50.460716,45.5473445 51.0853749,47.5588004 51.2849884,49.6342627 C51.4884539,50.5023899 51.5566101,51.3970236 51.4870206,52.2861836 C51.4535484,52.8787723 51.4828348,53.47326 51.5743858,54.0596214 C51.6284522,54.4236373 51.6284522,54.7937093 51.5743858,55.1577252 C51.3505123,57.8206271 51.1266388,60.483529 50.880924,63.1409404 C50.8147166,63.5863526 50.7180211,64.0266399 50.5915266,64.4586651 C50.5041613,64.8210394 50.3949547,65.1724326 50.3403514,65.556769 C50.1874622,66.5834961 50.1273986,67.6266948 49.9035251,68.6369503 C49.6279342,69.5595867 49.4091069,70.498412 49.2482855,71.4480963 C48.7022526,72.8371977 48.7022526,74.3580715 48.1562197,75.7416824 C47.9924098,77.0703881 47.4791388,78.3112455 47.2225033,79.6179891 C46.9658678,80.9247327 46.5399622,82.3357962 46.2068821,83.6150872 C46.2930914,84.1611645 46.5316698,84.6714227 46.8948836,85.0865464 C47.4081545,85.7234467 47.9050445,86.3713279 48.4183155,87.0027377 C48.7370712,87.417961 48.9473209,87.9068517 49.0298724,88.4247822 C49.0575377,88.7168548 49.0391091,89.011489 48.9752691,89.2977748 C48.872344,89.5822805 48.609824,89.7770135 48.3091089,89.7919215 C47.8578403,89.7727478 47.416182,89.6546959 47.0150108,89.4460188 C46.5017398,89.1605118 45.9775482,88.8969669 45.4533566,88.6059693 L44.1810999,90.0280139 C43.6424327,90.2485869 43.0419061,90.2622663 42.4938581,90.0664475 C42.3027465,89.8687888 42.0843334,89.6711301 41.9041425,89.4460188 C41.6634943,89.1557812 41.5389174,88.7858557 41.5546814,88.4083106 C41.5546814,87.9635786 41.6038244,87.5188465 41.6420467,87.0796049 C41.680269,86.6403634 41.729412,86.0473873 41.7840153,85.4653922 C41.3920135,84.9425656 40.967055,84.4455678 40.5117585,83.9774615 C38.8736597,82.4730592 37.55226,80.6831499 35.9469231,79.1183518 C35.4281918,78.0861342 34.3852689,77.5755159 33.6208228,76.7848811 C33.3696477,76.5158456 33.0365676,76.329168 32.7690114,76.0766041 C32.0636127,75.3129127 31.3064552,74.5992676 30.5029747,73.9407921 C29.6511633,73.3368349 28.9631618,72.5626717 28.1113505,71.9587146 C27.4290343,71.5014033 26.8086521,70.9569517 26.2657591,70.3390113 C25.9927427,70.0095802 25.5286147,69.8448646 25.2119156,69.542886 C24.3771329,68.8105523 23.585843,68.029554 22.8421326,67.2039248 C22.0340038,66.2375934 21.0620652,65.430487 20.2484761,64.4586651 C20.0998234,64.2939043 19.9331366,64.1465562 19.7515862,64.0194235 C19.4348057,63.8330779 19.1318738,63.6238901 18.8451715,63.3935043 C17.8950742,62.4527953 16.963178,61.4937846 16.0494828,60.5164722 C15.5956696,60.0332893 15.2264359,59.4763766 14.957417,58.8693163 C14.5642732,57.9963238 14.029161,57.1837269 13.499509,56.2448481 C13.5276461,55.503425 13.3148857,54.7729561 12.8934124,54.1639412 C12.6149356,52.9285744 13.1063653,51.7920369 12.6149356,50.7323666 C12.7678249,50.2107673 12.9152538,49.7166205 13.051762,49.2224738 C13.1882702,48.728327 13.2537942,48.3549717 13.3411595,47.9871069 C13.8162081,47.3392256 14.2530345,46.7517401 14.6844005,46.1477829 C14.941036,45.7854086 15.1266872,45.3736197 15.3942433,45.0222265 C15.598826,44.7105453 15.8600251,44.4404512 16.1641498,44.2261011 C17.1388365,43.5480448 18.2029691,43.0102647 19.3256805,42.62836 C19.969305,42.4602752 20.6245632,42.3409792 21.2859387,42.2714762 C21.6489423,42.2081228 22.0211931,42.2230951 22.3780046,42.3154004 C23.2079747,42.617379 24.1362307,42.4197203 24.9388991,42.902886 C25.3056484,43.030189 25.6922795,43.0897134 26.0801079,43.0785826 C26.5814215,43.3703483 27.0992094,43.632507 27.6308415,43.8637269 C28.2382358,44.1315319 28.8089491,44.4765913 29.3290039,44.890454 C29.8272708,45.2111044 30.2824005,45.5949367 30.6831656,46.032482 C31.054468,46.4881951 31.4967547,46.889003 32.031867,47.438055 Z M16.6149356,51.501646 C16.7830055,52.141138 16.9077025,52.5748803 16.9998698,53.0141835 C17.2954367,54.5794414 18.0524255,56.0138836 19.1685131,57.1236144 C19.542604,57.4850664 19.9112734,57.8520792 20.290786,58.2357744 C21.1040272,58.9976039 21.9714845,59.7038255 22.7359312,60.5157022 C23.7133482,61.5360323 24.7488849,62.4960277 25.8370911,63.3906356 C27.4310439,64.7307883 29.0575263,66.0264547 30.6460575,67.3666074 C32.5219339,68.9458745 34.4411832,70.5084592 36.214049,72.1711383 C38.0199111,73.8341835 39.7000197,75.6355021 41.2398798,77.5595531 C41.6627652,78.0822683 42.0964938,78.5938619 42.5248009,79.1110162 C42.6051745,79.1871518 42.7162433,79.2191888 42.8235262,79.1971814 C42.930809,79.1751739 43.0213206,79.1017858 43.0669617,78.9998002 C43.134223,78.8691027 43.1869624,78.7310714 43.2241883,78.5883011 C43.4193662,77.0980068 44.0699592,75.7189284 44.2163426,74.2175125 C44.2242476,74.1416964 44.2406198,74.067063 44.2651371,73.9950806 C44.8510192,72.2044343 45.2898912,70.3666751 45.5771663,68.5010105 C45.6056156,68.2776159 45.6621072,68.0589318 45.7452361,67.8503969 C46.1247487,66.932865 46.1139055,65.9430427 46.2873969,64.9865851 C46.4608884,64.0301276 46.7861849,62.9457717 46.9000386,61.9059021 C47.1711191,59.3701775 47.3717186,56.8233313 47.5885829,54.276485 C47.6613714,52.7116879 47.5832825,51.1433425 47.3554537,49.5942917 C47.2714808,48.6995637 47.1044613,47.8150954 46.8566658,46.9529119 C46.4728255,45.29662 45.5584011,43.8202583 44.2597155,42.760069 L42.4922712,42.203989 C41.0687585,42.2501047 39.6901475,42.7259531 38.5290757,43.5719457 C37.0870785,44.6209763 35.8648095,45.9559327 34.9345495,47.4978703 C34.3974563,48.3005981 34.1170425,49.2547738 34.1321515,50.2282229 C34.2298719,50.7598842 34.4766999,51.2507536 34.8423822,51.640666 C35.0484033,51.8519764 35.2977973,52.0188004 35.2977973,52.4302995 C35.2977973,52.5804411 35.2490028,52.8028731 35.2056299,53.0197443 C35.1365633,53.3981826 34.887603,53.7161462 34.5422423,53.8670001 C34.1968816,54.017854 33.8008561,53.9816209 33.4869801,53.7704523 C33.0240123,53.5329193 32.6098778,53.2063209 32.2671183,52.8084339 C32.0827836,52.5748803 31.898449,52.3413267 31.7249575,52.1188948 C30.788611,51.0551809 29.7475492,50.0936113 28.618376,49.2495221 C27.6695946,48.5377398 26.6503323,47.9260518 25.6473348,47.2865599 C24.6919808,46.7139545 23.6489087,46.3115851 22.5624398,46.0965487 C21.3915996,45.8854429 20.1856313,46.0627037 19.1197186,46.6025815 C18.1720557,47.0201609 17.4223868,47.8030567 17.0323995,48.782415 L16.6149356,51.501646 Z" id="Shape" fill="#FC3F70" fill-rule="nonzero" mask="url(#mask-2)" transform="translate(32.114936, 64.703989) rotate(36.000000) translate(-32.114936, -64.703989) "></path>
            <path d="M121.948881,211.166473 C122.086649,211.011446 122.214337,210.925321 122.26138,210.804744 C122.712175,209.831071 123.327641,208.946967 124.079249,208.19341 C124.921788,207.260009 125.992673,206.57485 127.180716,206.209072 C127.915905,205.92221 128.729679,205.930824 129.458934,206.233187 C129.828556,206.408884 130.248581,206.415774 130.621564,206.636256 C131.499821,207.14799 132.21157,207.913654 132.667927,208.837631 C133.289711,209.980145 133.674116,211.242235 133.796956,212.544485 C133.922165,213.089193 133.964107,213.650531 133.921283,214.208436 C133.900685,214.580256 133.918707,214.953268 133.975046,215.321181 C134.008318,215.549583 134.008318,215.781785 133.975046,216.010187 C133.837278,217.681028 133.69951,219.351868 133.548301,221.019264 C133.507558,221.298738 133.448053,221.574997 133.37021,221.846071 C133.316447,222.073443 133.249242,222.293925 133.21564,222.535078 C133.121555,223.179299 133.084593,223.833855 132.946824,224.46774 C132.77723,225.04665 132.642567,225.635716 132.5436,226.231597 C132.20758,227.10319 132.20758,228.057464 131.871559,228.925612 C131.770753,229.759309 131.454894,230.537886 131.296965,231.357804 C131.139035,232.177722 130.876939,233.063095 130.671967,233.865787 C130.725019,234.208424 130.871836,234.528586 131.095353,234.789056 C131.411212,235.188679 131.71699,235.595193 132.032849,235.991372 C132.229006,236.251904 132.358391,236.558659 132.409192,236.883635 C132.426217,237.066896 132.414876,237.251765 132.37559,237.431395 C132.312251,237.609908 132.150701,237.732094 131.965645,237.741448 C131.687941,237.729417 131.416152,237.655346 131.169277,237.524411 C130.853418,237.345269 130.530839,237.179908 130.208259,236.997321 L129.425332,237.889584 C129.093844,238.027983 128.72429,238.036566 128.387029,237.913699 C128.269422,237.789678 128.135014,237.665657 128.024127,237.524411 C127.876036,237.342301 127.799373,237.110191 127.809074,236.8733 C127.809074,236.594252 127.839316,236.315205 127.862838,236.039602 C127.886359,235.764 127.916601,235.391936 127.950203,235.026763 C127.708971,234.698715 127.447458,234.386873 127.167276,234.093159 C126.159215,233.149221 125.346046,232.02614 124.358146,231.044306 C124.038927,230.39664 123.397128,230.076252 122.9267,229.580168 C122.77213,229.411361 122.567158,229.29423 122.402508,229.135758 C121.968417,228.65658 121.502474,228.208802 121.008024,227.795641 C120.483832,227.416688 120.060447,226.930938 119.536255,226.551985 C119.116368,226.265044 118.734595,225.923428 118.400507,225.5357 C118.232497,225.328998 117.946879,225.225647 117.751988,225.036171 C117.238275,224.576667 116.751328,224.086629 116.29366,223.568587 C115.79635,222.962262 115.198234,222.455842 114.697563,221.846071 C114.606085,221.742692 114.503508,221.650238 114.391785,221.570469 C114.196843,221.453546 114.010423,221.322291 113.833991,221.177735 C113.249316,220.587486 112.675841,219.985754 112.113567,219.372538 C111.834298,219.069365 111.607077,218.719929 111.441527,218.339029 C111.199592,217.791269 110.870292,217.281404 110.544353,216.692304 C110.561668,216.227097 110.430738,215.768764 110.17137,215.386637 C110,214.611505 110.302418,213.898383 110,213.233492 C110.094086,212.906214 110.184811,212.596161 110.268816,212.286108 C110.352821,211.976055 110.393144,211.741793 110.446907,211.510976 C110.739245,211.104462 111.008061,210.735844 111.273517,210.35689 C111.431446,210.129518 111.545693,209.871141 111.710343,209.650659 C111.83624,209.455094 111.996978,209.285623 112.184132,209.151129 C112.783939,208.725682 113.43879,208.388251 114.129689,208.148625 C114.525766,208.04316 114.929002,207.968308 115.336002,207.924698 C115.559389,207.884947 115.788466,207.894341 116.008042,207.952258 C116.518793,208.141735 117.090028,208.017714 117.583977,208.320877 C117.809669,208.400753 118.047596,208.438102 118.28626,208.431118 C118.594761,208.614186 118.913399,208.778678 119.240557,208.923757 C119.614339,209.091792 119.965547,209.308299 120.28558,209.567978 C120.592206,209.76917 120.872286,210.010006 121.118911,210.284545 C121.347405,210.570482 121.619581,210.82197 121.948881,211.166473 Z M112.244062,213.375404 C112.347073,213.772926 112.4235,214.04255 112.47999,214.31563 C112.661144,215.288628 113.125105,216.180309 113.809158,216.870141 C114.03844,217.094828 114.264398,217.322971 114.497003,217.561484 C114.995441,218.035054 115.527108,218.474056 115.99564,218.978737 C116.594702,219.612996 117.229386,220.20975 117.896351,220.765857 C118.87329,221.598925 119.870166,222.404339 120.843782,223.237407 C121.993513,224.219114 123.169827,225.19045 124.256422,226.224008 C125.363241,227.257792 126.392985,228.377531 127.33677,229.573563 C127.595958,229.898494 127.861792,230.216511 128.124302,230.537986 C128.173564,230.585313 128.241638,230.605228 128.307392,230.591548 C128.373146,230.577868 128.428621,230.532248 128.456594,230.468851 C128.497819,230.387607 128.530143,230.301804 128.552959,230.213055 C128.672584,229.286656 129.071335,228.429391 129.161054,227.496078 C129.165899,227.448949 129.175933,227.402555 129.19096,227.35781 C129.550049,226.244705 129.819035,225.102314 129.995107,223.942577 C130.012544,223.80371 130.047168,223.667771 130.098117,223.538141 C130.330722,222.967784 130.324076,222.352489 130.43041,221.757934 C130.536743,221.163379 130.736118,220.48932 130.8059,219.842915 C130.972046,218.266654 131.094994,216.683479 131.227911,215.100304 C131.272523,214.127592 131.224662,213.152675 131.085025,212.189752 C131.033558,211.633569 130.931191,211.083765 130.779316,210.547813 C130.544059,209.518226 129.983606,208.600488 129.187637,207.941451 L128.104365,207.59578 C127.231889,207.624446 126.386934,207.920244 125.675309,208.446131 C124.791505,209.098231 124.042372,209.928069 123.472213,210.886571 C123.143027,211.385564 122.97116,211.9787 122.98042,212.583817 C123.040314,212.914309 123.191595,213.219444 123.415723,213.461822 C123.541994,213.593177 123.694849,213.696879 123.694849,213.952675 C123.694849,214.046007 123.664942,214.184275 123.638359,214.319087 C123.596028,214.554332 123.443439,214.751985 123.231766,214.84576 C123.020094,214.939534 122.777368,214.91701 122.584993,214.785743 C122.301238,214.638088 122.047414,214.435067 121.837336,214.187732 C121.724356,214.04255 121.611377,213.897368 121.505043,213.759099 C120.931154,213.097872 120.293084,212.500139 119.60101,211.975435 C119.019499,211.532976 118.394789,211.152738 117.780049,210.755216 C117.194509,210.399272 116.555207,210.14915 115.889307,210.015479 C115.171695,209.884251 114.432553,209.99444 113.779252,210.33004 C113.198426,210.589616 112.738952,211.076281 112.499927,211.685071 L112.244062,213.375404 Z" id="Shape" fill="#FC3F70" fill-rule="nonzero" mask="url(#mask-2)" transform="translate(122.000000, 222.000000) scale(-1, 1) rotate(21.000000) translate(-122.000000, -222.000000) "></path>
            <path d="M140.936101,126.296639 C141.108311,126.1077 141.267921,126.002734 141.326725,125.855782 C141.890219,124.669118 142.659551,123.591617 143.599062,122.673219 C144.652236,121.535636 145.990841,120.700598 147.475896,120.254807 C148.394881,119.905194 149.412098,119.915692 150.323667,120.284197 C150.785695,120.498327 151.310727,120.506725 151.776955,120.775437 C152.874776,121.399113 153.764463,122.332266 154.334909,123.458363 C155.112139,124.850801 155.592646,126.388973 155.746194,127.976092 C155.902706,128.639954 155.955134,129.324085 155.901604,130.004031 C155.875856,130.457187 155.898384,130.911796 155.968808,131.360189 C156.010397,131.638555 156.010397,131.921551 155.968808,132.199916 C155.796597,134.236253 155.624387,136.272589 155.435376,138.304728 C155.384447,138.645337 155.310066,138.982027 155.212762,139.312399 C155.145558,139.589509 155.061553,139.858222 155.019551,140.152126 C154.901943,140.93727 154.855741,141.73501 154.68353,142.507559 C154.471537,143.213104 154.303209,143.931029 154.1795,144.657258 C153.759475,145.719513 153.759475,146.882534 153.339449,147.940589 C153.213442,148.956658 152.818618,149.905549 152.621206,150.904824 C152.423794,151.904098 152.096174,152.983147 151.839959,153.961428 C151.906274,154.379017 152.089795,154.769214 152.369191,155.086662 C152.764015,155.573703 153.146238,156.069142 153.541061,156.551984 C153.786258,156.869508 153.947989,157.243366 154.01149,157.63943 C154.032771,157.86278 154.018595,158.088088 153.969487,158.307013 C153.890314,158.524576 153.688376,158.673489 153.457056,158.68489 C153.109927,158.670227 152.77019,158.579952 152.461596,158.420376 C152.066772,158.202047 151.663548,158.000512 151.260324,157.777985 L150.281665,158.865431 C149.867305,159.034104 149.405362,159.044565 148.983786,158.894821 C148.836778,158.74367 148.668767,158.59252 148.530159,158.420376 C148.345045,158.198429 148.249217,157.915545 148.261343,157.626834 C148.261343,157.286745 148.299145,156.946656 148.328547,156.610765 C148.357949,156.274875 148.395751,155.821422 148.437754,155.376367 C148.136214,154.976559 147.809323,154.596501 147.459095,154.238538 C146.199018,153.088112 145.182557,151.719358 143.947683,150.522748 C143.548659,149.733405 142.74641,149.342932 142.158375,148.738329 C141.965163,148.532596 141.708948,148.389843 141.503135,148.196706 C140.960521,147.612706 140.378092,147.066978 139.76003,146.563438 C139.104791,146.101588 138.575559,145.509581 137.920319,145.047731 C137.395461,144.698023 136.918243,144.281677 136.500633,143.809135 C136.290621,143.557217 135.933599,143.431258 135.689985,143.200333 C135.047844,142.640313 134.439159,142.043079 133.867075,141.411716 C133.245437,140.672756 132.497792,140.055557 131.871954,139.312399 C131.757606,139.186406 131.629385,139.073728 131.489731,138.976509 C131.246054,138.834009 131.013029,138.674042 130.792489,138.497865 C130.061645,137.778499 129.344802,137.045138 128.641959,136.297781 C128.292872,135.928288 128.008846,135.502414 127.801909,135.038192 C127.49949,134.370609 127.087866,133.749211 126.680441,133.031245 C126.702085,132.464275 126.538423,131.905681 126.214213,131.439963 C126,130.495271 126.378023,129.626154 126,128.815818 C126.117607,128.416948 126.231014,128.039071 126.33602,127.661194 C126.441027,127.283317 126.49143,126.99781 126.558634,126.716502 C126.924056,126.221063 127.260076,125.77181 127.591896,125.30996 C127.789308,125.03285 127.932117,124.717953 128.137929,124.44924 C128.2953,124.210896 128.496223,124.004353 128.730165,123.840439 C129.479924,123.321925 130.298487,122.910681 131.162111,122.618637 C131.657207,122.490101 132.161252,122.398875 132.670002,122.345726 C132.949236,122.297279 133.235583,122.308728 133.510053,122.379315 C134.148492,122.610239 134.862535,122.459089 135.479972,122.828568 C135.762087,122.925918 136.059495,122.971436 136.357825,122.962925 C136.743451,123.186039 137.141749,123.386514 137.550697,123.563329 C138.017923,123.768121 138.456933,124.03199 138.856976,124.348473 C139.240258,124.593677 139.590358,124.887195 139.898638,125.221789 C140.184256,125.570275 140.524476,125.876775 140.936101,126.296639 Z M129.148571,129.337952 C129.278689,129.821892 129.375229,130.150129 129.446584,130.482575 C129.67541,131.667094 130.261466,132.752618 131.125534,133.592414 C131.415153,133.865946 131.700574,134.143685 131.99439,134.434049 C132.623997,135.010569 133.295576,135.545007 133.887406,136.1594 C134.644116,136.931541 135.445822,137.658024 136.288304,138.335025 C137.522332,139.349195 138.781544,140.329699 140.011375,141.343868 C141.463666,142.53899 142.949537,143.721486 144.322078,144.97973 C145.720165,146.23825 147.020894,147.60141 148.213044,149.057449 C148.540439,149.453017 148.876229,149.840169 149.207821,150.231529 C149.270046,150.289145 149.356035,150.31339 149.439093,150.296735 C149.52215,150.280081 149.592224,150.224544 149.627559,150.147366 C149.679632,150.04846 149.720463,149.944003 149.749283,149.835961 C149.900388,148.708171 150.404073,147.664544 150.517402,146.528337 C150.523522,146.470963 150.536197,146.414484 150.555178,146.36001 C151.008765,145.004927 151.348536,143.61419 151.570943,142.202336 C151.592968,142.03328 151.636704,141.86779 151.701062,141.70998 C151.994878,141.015631 151.986483,140.266576 152.120799,139.542771 C152.255115,138.818965 152.506957,137.998371 152.595102,137.211443 C152.804971,135.292516 152.960274,133.365173 153.128169,131.43783 C153.184521,130.253659 153.124065,129.066803 152.947682,127.894549 C152.88267,127.217457 152.753365,126.54813 152.561523,125.895666 C152.264357,124.642256 151.556415,123.52501 150.550981,122.722704 L149.182637,122.301887 C148.080563,122.336785 147.013251,122.696887 146.114357,123.337097 C144.997972,124.130958 144.051699,125.141196 143.331498,126.308067 C142.915684,126.915537 142.698589,127.637616 142.710286,128.37428 C142.785941,128.776618 142.977034,129.148087 143.260142,129.443156 C143.419643,129.603067 143.612722,129.729312 143.612722,130.040717 C143.612722,130.154337 143.574945,130.322664 143.541366,130.486783 C143.487895,130.773169 143.295152,131.01379 143.027776,131.127949 C142.7604,131.242109 142.4538,131.21469 142.210799,131.054886 C141.852372,130.875132 141.531752,130.627976 141.26639,130.326872 C141.123679,130.150129 140.980968,129.973386 140.846652,129.805059 C140.121739,129.000086 139.315756,128.272412 138.441557,127.633642 C137.707017,127.094996 136.91791,126.632097 136.141396,126.148157 C135.401767,125.714834 134.594227,125.410338 133.75309,125.247608 C132.846633,125.087852 131.91298,125.221995 131.087758,125.630552 C130.354083,125.946558 129.773694,126.539019 129.471769,127.280155 L129.148571,129.337952 Z" id="Shape" fill="#FC3F70" fill-rule="nonzero" mask="url(#mask-2)" transform="translate(141.000000, 139.500000) scale(-1, 1) rotate(18.000000) translate(-141.000000, -139.500000) "></path>
            <path d="M220.944621,216.489377 C221.09387,216.324662 221.232198,216.233153 221.283161,216.105041 C221.771523,215.070513 222.438277,214.131153 223.25252,213.330499 C224.165271,212.338759 225.325396,211.610778 226.612443,211.222139 C227.408897,210.917349 228.290485,210.926501 229.080512,211.247761 C229.480936,211.434439 229.935963,211.44176 230.340028,211.676022 C231.291473,212.219739 232.062534,213.033257 232.556921,214.014983 C233.23052,215.228904 233.64696,216.569874 233.780035,217.953516 C233.915679,218.532267 233.961116,219.12869 233.914723,219.721463 C233.892408,220.116522 233.911933,220.512847 233.972967,220.903755 C234.009011,221.146432 234.009011,221.393147 233.972967,221.635824 C233.823718,223.411092 233.674469,225.18636 233.510659,226.957968 C233.466521,227.254909 233.402057,227.548434 233.317727,227.836451 C233.259484,228.078034 233.186679,228.312296 233.150277,228.56852 C233.048351,229.253005 233.008309,229.948471 232.85906,230.621974 C232.675332,231.237065 232.529447,231.862949 232.422233,232.496072 C232.058211,233.422139 232.058211,234.436055 231.694189,235.358462 C231.584983,236.244266 231.242802,237.071504 231.071712,237.942667 C230.900621,238.813829 230.616684,239.754538 230.394631,240.607399 C230.452104,240.97145 230.611156,241.311622 230.853299,241.588372 C231.195479,242.012972 231.526739,242.444893 231.86892,242.865832 C232.081424,243.142648 232.22159,243.468575 232.276624,243.813862 C232.295068,244.008577 232.282782,244.205 232.240222,244.395857 C232.171606,244.585528 231.996592,244.71535 231.796115,244.725288 C231.49527,244.712506 231.200831,244.633805 230.933383,244.494687 C230.591203,244.304349 230.241742,244.128652 229.892281,243.934654 L229.044109,244.882683 C228.684998,245.029732 228.284647,245.038852 227.919282,244.908306 C227.791874,244.776533 227.646265,244.644761 227.526138,244.494687 C227.365706,244.301195 227.282654,244.054578 227.293164,243.802881 C227.293164,243.506393 227.325926,243.209905 227.351407,242.917077 C227.376889,242.62425 227.409651,242.228932 227.446053,241.840935 C227.184719,241.492384 226.901413,241.161053 226.597882,240.848982 C225.505816,239.846047 224.624883,238.652774 223.554658,237.609575 C223.208837,236.92143 222.513556,236.581018 222.003925,236.053928 C221.836475,235.874571 221.614421,235.750119 221.436051,235.581743 C220.965785,235.072616 220.461013,234.596852 219.925359,234.157869 C219.357485,233.755231 218.898817,233.239122 218.330943,232.836484 C217.876066,232.53161 217.462478,232.168642 217.100549,231.756682 C216.918538,231.537061 216.609119,231.42725 216.397987,231.225931 C215.841465,230.737709 215.313938,230.217043 214.818131,229.666624 C214.279379,229.022403 213.63142,228.484332 213.089027,227.836451 C212.989925,227.72661 212.878801,227.628378 212.757767,227.543623 C212.54658,227.419393 212.344625,227.279934 212.153491,227.126344 C211.520092,226.499204 210.898828,225.859864 210.289698,225.208322 C209.987156,224.8862 209.741,224.514925 209.561654,224.110218 C209.299558,223.528223 208.942817,222.986492 208.589716,222.360573 C208.608474,221.866291 208.466633,221.379311 208.185651,220.973301 C208,220.149724 208.32762,219.392032 208,218.685585 C208.101926,218.337852 208.200212,218.008421 208.291218,217.67899 C208.382223,217.349559 208.425906,217.100655 208.484149,216.855412 C208.800848,216.423491 209.092066,216.031834 209.379643,215.629196 C209.550734,215.387613 209.674501,215.113087 209.852872,214.878825 C209.98926,214.671038 210.163393,214.490975 210.366143,214.348075 C211.015934,213.896037 211.725356,213.537517 212.47383,213.282914 C212.902913,213.170857 213.339752,213.091327 213.780669,213.044991 C214.022671,213.002756 214.270838,213.012737 214.508713,213.074274 C215.062026,213.275593 215.680863,213.143821 216.215976,213.465931 C216.460475,213.5508 216.718229,213.590483 216.976782,213.583062 C217.310991,213.777573 217.656183,213.952345 218.010604,214.106492 C218.415533,214.285029 218.796009,214.515068 219.142712,214.790977 C219.47489,215.004744 219.77831,215.260632 220.045487,215.552329 C220.293022,215.856137 220.587879,216.123343 220.944621,216.489377 Z M210.831848,219.686997 C210.945701,220.119086 211.030174,220.412156 211.092609,220.708982 C211.292832,221.766589 211.805631,222.735807 212.56169,223.485625 C212.815107,223.729849 213.064851,223.977831 213.32194,224.237084 C213.872845,224.751834 214.460477,225.22901 214.978328,225.777576 C215.64045,226.466988 216.341942,227.115634 217.079114,227.720098 C218.158889,228.625607 219.260699,229.501057 220.336801,230.406566 C221.607556,231.473638 222.907693,232.529439 224.108666,233.65287 C225.331992,234.77655 226.47013,235.993657 227.513261,237.293691 C227.799732,237.646877 228.093548,237.992549 228.383692,238.341977 C228.438138,238.39342 228.513379,238.415067 228.586054,238.400197 C228.65873,238.385327 228.720044,238.33574 228.750962,238.266831 C228.796526,238.178522 228.832253,238.085258 228.85747,237.988791 C228.989688,236.981836 229.430412,236.050026 229.529575,235.035556 C229.53493,234.984329 229.546021,234.933901 229.562629,234.885264 C229.959517,233.675368 230.256818,232.433639 230.451423,231.173054 C230.470695,231.022112 230.508964,230.874353 230.565277,230.733451 C230.822366,230.113497 230.815021,229.444698 230.932547,228.798443 C231.050074,228.152188 231.270436,227.419515 231.347563,226.7169 C231.531198,225.003573 231.667088,223.282731 231.813996,221.561889 C231.863304,220.504593 231.810405,219.4449 231.65607,218.398244 C231.599185,217.793698 231.486042,217.196085 231.318181,216.613528 C231.05816,215.494412 230.438711,214.49687 229.558957,213.780526 L228.361656,213.404797 C227.39734,213.435956 226.463443,213.757475 225.67691,214.329092 C224.700073,215.037896 223.872085,215.939894 223.241909,216.981743 C222.878071,217.524127 222.688114,218.16884 222.698349,218.826576 C222.764546,219.185807 222.931752,219.517475 223.179473,219.78093 C223.319035,219.923707 223.48798,220.036426 223.48798,220.314466 C223.48798,220.415913 223.454925,220.566205 223.425544,220.712739 C223.378757,220.968441 223.210106,221.183281 222.976152,221.28521 C222.742198,221.387138 222.473923,221.362656 222.261297,221.219975 C221.947674,221.059479 221.667131,220.838805 221.434939,220.569962 C221.310067,220.412156 221.185195,220.254349 221.067669,220.104057 C220.43337,219.385332 219.728134,218.735623 218.96321,218.165292 C218.320488,217.684358 217.63002,217.271055 216.95057,216.838966 C216.303394,216.452071 215.596797,216.180199 214.860802,216.034905 C214.067652,215.892265 213.250706,216.012036 212.528636,216.376819 C211.886671,216.658967 211.378831,217.18795 211.114646,217.849679 L210.831848,219.686997 Z" id="Shape" fill="#FC3F70" fill-rule="nonzero" mask="url(#mask-2)" transform="translate(221.000000, 228.000000) rotate(36.000000) translate(-221.000000, -228.000000) "></path>
            <path d="M99.3061731,25.2128206 C99.8285446,24.6363161 100.312694,24.3160358 100.491065,23.8676434 C102.200332,20.2467954 104.533971,16.959035 107.38382,14.1567448 C110.578448,10.6856572 114.638885,8.13772344 119.14355,6.77748672 C121.93114,5.71071993 125.016699,5.74275286 127.781791,6.86716521 C129.183275,7.52053701 130.775871,7.54615944 132.190097,8.366077 C135.520155,10.2690878 138.21887,13.1164006 139.949225,16.5524414 C142.306821,20.8011628 143.764358,25.49456 144.230123,30.3373054 C144.704876,32.3629354 144.863907,34.450414 144.701532,36.5251207 C144.62343,37.9078276 144.691765,39.2949658 144.905384,40.6631422 C145.031539,41.5125128 145.031539,42.376014 144.905384,43.2253846 C144.383012,49.4388223 143.860641,55.6522601 143.287306,61.8528867 C143.132822,62.8921817 142.907199,63.9195189 142.612045,64.9275775 C142.408193,65.7731175 142.153378,66.5930351 142.02597,67.4898199 C141.669229,69.8855165 141.52908,72.3196468 141.006709,74.6769098 C140.363663,76.8297281 139.853066,79.0203203 139.477816,81.2362503 C138.20374,84.4774869 138.20374,88.0261926 136.929663,91.254618 C136.54744,94.3549313 135.349807,97.2502651 134.750991,100.299334 C134.152175,103.348402 133.158395,106.640883 132.381208,109.625896 C132.582363,110.900076 133.139046,112.090679 133.986545,113.059301 C135.184177,114.545401 136.343587,116.057124 137.54122,117.530414 C138.284983,118.499268 138.775566,119.640013 138.968186,120.848517 C139.032738,121.53002 138.989738,122.2175 138.840778,122.8855 C138.600619,123.549347 137.988073,124.003724 137.286404,124.038509 C136.233444,123.993771 135.202908,123.718316 134.266842,123.231403 C133.06921,122.56522 131.846096,121.950282 130.622982,121.271287 L127.654383,124.589391 C126.397493,125.104062 124.996265,125.13598 123.717486,124.67907 C123.271559,124.217866 122.761928,123.756663 122.341483,123.231403 C121.77997,122.554182 121.489291,121.691022 121.526073,120.810084 C121.526073,119.772376 121.64074,118.734667 121.729926,117.709771 C121.819111,116.684874 121.933778,115.301263 122.061186,113.943274 C121.146515,112.723345 120.154945,111.563684 119.092587,110.471436 C115.270356,106.961164 112.18709,102.784709 108.441304,99.1335133 C107.230931,96.7250055 104.797444,95.5335627 103.013737,93.6887482 C102.427661,93.0609989 101.650474,92.6254176 101.026177,92.0361019 C99.3802465,90.2541553 97.6135457,88.5889833 95.7387579,87.0525405 C93.751198,85.6433072 92.1458611,83.8369263 90.1583012,82.427693 C88.5662302,81.3606333 87.1186718,80.0902464 85.8519214,78.6483855 C85.214883,77.8797128 84.1319177,77.4953764 83.3929531,76.7907597 C81.4451269,75.0819811 79.5987838,73.2596518 77.8634595,71.3331835 C75.9778258,69.0784102 73.709969,67.195162 71.8115945,64.9275775 C71.4647382,64.5431357 71.0758023,64.1993235 70.6521845,63.9026806 C69.91303,63.4678741 69.206189,62.9797693 68.5372169,62.4422024 C66.3203232,60.2472148 64.1458987,58.0095231 62.0139434,55.7291274 C60.9550458,54.6017006 60.0935006,53.3022377 59.4657897,51.8857638 C58.5484544,49.8487811 57.2998591,47.9527218 56.0640045,45.7620045 C56.1296578,44.0320174 55.6332167,42.32759 54.6497792,40.9065552 C54,38.0240325 55.1466692,35.3721117 54,32.8995478 C54.3567415,31.6824827 54.7007423,30.5294736 55.0192615,29.3764645 C55.3377807,28.2234554 55.4906699,27.352293 55.6945222,26.4939418 C56.8029691,24.9822188 57.8222306,23.6114192 58.8287513,22.2021858 C59.4275674,21.3566459 59.8607535,20.395805 60.4850512,19.5758874 C60.9624108,18.8486313 61.5718754,18.2184117 62.2814996,17.7182617 C64.5557687,16.1361303 67.0387447,14.88131 69.6584046,13.990199 C71.1601952,13.5980011 72.689131,13.3196438 74.2323405,13.1574702 C75.0793489,13.0096455 75.9479341,13.044581 76.7804942,13.2599599 C78.717091,13.9645766 80.8830217,13.503373 82.7559147,14.6307596 C83.6116631,14.9277999 84.5138024,15.0666902 85.4187353,15.0407184 C86.588467,15.7215051 87.7966388,16.3332086 89.0371136,16.8727217 C90.454367,17.4976002 91.7860315,18.3027387 92.9994926,19.2684183 C94.1621153,20.0166027 95.2240847,20.9122113 96.1592032,21.9331504 C97.0255755,22.996481 98.0575777,23.9316995 99.3061731,25.2128206 Z M62.9321021,34.9180442 C63.3278795,36.4217144 63.6215208,37.4415952 63.83856,38.4745513 C64.5345723,42.1550226 66.3171589,45.5279002 68.9453651,48.1372673 C69.826289,48.9871678 70.6944458,49.8501438 71.5881367,50.752346 C73.5031886,52.5436749 75.5459106,54.20425 77.3460594,56.1132574 C79.6477187,58.512412 82.0862407,60.7696986 84.6487907,62.873236 C88.4022924,66.0244059 92.2323962,69.0709727 95.9731309,72.2221426 C100.390517,75.9355544 104.91004,79.60974 109.084853,83.5192828 C113.337367,87.4296865 117.293752,91.6652194 120.919874,96.1893393 C121.915701,97.4184263 122.937062,98.6213625 123.945656,99.8373742 C124.134923,100.016396 124.396472,100.091726 124.649106,100.039979 C124.901739,99.9882315 125.11488,99.8156702 125.222357,99.5758663 C125.380747,99.2685504 125.504939,98.9439904 125.5926,98.6082871 C126.052213,95.1040816 127.584254,91.861384 127.928964,88.3310277 C127.947579,88.1527573 127.986133,87.9772678 128.043867,87.8080119 C129.423525,83.5975735 130.456997,79.2763558 131.133484,74.8895229 C131.200477,74.3642437 131.333506,73.8500406 131.529261,73.3597018 C132.422952,71.2022618 132.397418,68.8748417 132.805963,66.625874 C133.214507,64.3769063 133.980528,61.8272045 134.248635,59.3821059 C134.886986,53.4197263 135.359365,47.431196 135.870046,41.4426657 C136.041451,37.7632778 135.857564,34.0755468 135.321064,30.4331841 C135.123321,28.3293642 134.730017,26.2496685 134.146499,24.2223721 C133.242617,20.327848 131.089295,16.8564028 128.0311,14.3635252 L123.869054,13.0559858 C120.516911,13.1644201 117.270504,14.2833068 114.536367,16.2725327 C111.140696,18.7391721 108.26245,21.8781236 106.071838,25.5037607 C104.80707,27.3912558 104.146741,29.6348583 104.18232,31.923779 C104.412436,33.1739015 104.993676,34.3281081 105.854799,35.244929 C106.339945,35.741794 106.927228,36.1340558 106.927228,37.1016349 C106.927228,37.4546706 106.812325,37.9776863 106.710189,38.4876267 C106.547548,39.3774682 105.961286,40.1251122 105.148018,40.4798227 C104.334749,40.8345332 103.402173,40.7493365 102.663046,40.2528048 C101.572831,39.6942815 100.597611,38.9263338 99.7904677,37.9907617 C99.3563893,37.4415952 98.9223109,36.8924286 98.5137665,36.3694129 C96.3088216,33.8682479 93.8572888,31.6072599 91.1982682,29.6225097 C88.964041,27.9488593 86.5638426,26.510566 84.2019452,25.0068957 C81.9522408,23.6604993 79.4959741,22.7143874 76.937515,22.2087614 C74.1803753,21.7123774 71.3405145,22.1291798 68.830462,23.3986223 C66.5988686,24.3804982 64.8335194,26.2213612 63.9151621,28.5241766 L62.9321021,34.9180442 Z" id="Shape" fill="#FC3F70" fill-rule="nonzero" mask="url(#mask-2)" transform="translate(99.500000, 65.500000) rotate(27.000000) translate(-99.500000, -65.500000) "></path>
        </g>
    </g>
</svg>