<?xml version="1.0" encoding="UTF-8"?>
<svg width="250px" height="250px" viewBox="0 0 250 250" version="1.1" xmlns="http://www.w3.org/2000/svg" xmlns:xlink="http://www.w3.org/1999/xlink">
    <title>Group 3</title>
    <defs>
        <rect id="path-1" x="0" y="0" width="250" height="250"></rect>
    </defs>
    <g id="Page-1" stroke="none" stroke-width="1" fill="none" fill-rule="evenodd">
        <g id="Group-2-+-Group-2-Copy-2-+-Group-2-Copy-3-+-Group-2-Copy-Mask">
            <mask id="mask-2" fill="white">
                <use xlink:href="#path-1"></use>
            </mask>
            <g id="Mask"></g>
            <g id="Group-2" mask="url(#mask-2)" fill="#1F113D">
                <g transform="translate(57.000000, 81.000000) rotate(-31.000000) translate(-57.000000, -81.000000) translate(9.000000, 35.000000)" id="Combined-Shape">
                    <path d="M49.0579303,3.12049098 C50.6902144,3.12049098 55.7905706,4.63074252 55.7905706,5.92880407 C55.7905706,6.79417843 54.9767921,9.87164525 53.3492351,15.1612045 C55.005155,15.268961 57.0985724,15.8300539 59.6294874,16.8444835 C62.1604023,17.858913 64.3096001,19.0655952 66.0770807,20.46453 C76.0669622,21.6892508 83.017524,25.6679316 86.9287661,32.4005727 C92.7956293,42.4995342 96.4069339,53.9962439 86.9287661,71.3025445 C77.4505984,88.6088451 47.915615,92.8633255 23.3597365,83.3340014 C-1.19614203,73.8046774 0.664087931,37.7834375 9.8299303,28.8275212 C23.099507,15.8618587 31.2885816,19.3131502 31.2885816,19.3131502 C32.7459612,17.2572333 34.5562225,15.8732515 36.7193654,15.1612045 C38.8825082,14.4491576 41.0361968,14.0646523 43.180431,14.0076885 C43.7160169,11.5001964 44.3778176,9.5599528 45.1658331,8.18695775 C46.3478564,6.12746516 47.4256461,3.12049098 49.0579303,3.12049098 Z M14.2006512,53.6743987 C13.9712104,56.2511171 14.0767553,58.7183597 14.5172857,61.0761265 C14.9578161,63.4338934 16.231653,65.8232855 18.3387964,68.2443029 L18.3387964,68.2443029 L20.1410215,67.045928 L25.0686004,71.8024014 L23.7518534,74.117266 L24.2628128,74.4491244 C26.7995093,76.0779317 29.0646949,77.2494714 31.0583695,77.9637435 C33.1849557,78.7256337 35.326984,79.3498615 37.4844542,79.8364269 L37.4844542,79.8364269 L38.7437664,76.6023098 L47.207961,77.9637435 L47.207961,81.0910536 L47.6177341,81.212154 C49.5475642,81.7514665 51.723172,81.9292632 54.1445577,81.745544 C56.7388995,81.5487019 58.9713805,80.9123296 60.8420008,79.8364269 L60.8420008,79.8364269 L60.8420008,76.6023098 L67.1805092,74.117266 L68.4047132,77.9637435 L68.888512,77.7013522 C73.8355914,74.9761947 77.16525,71.8238449 78.8774878,68.2443029 C80.644959,64.5492919 81.9811173,60.0356082 82.8859624,54.7032518 C80.3442828,56.848 78.440079,58.2789598 77.1733511,58.9961311 C75.9066232,59.7133025 74.3452807,60.5537235 72.4893236,61.5173943 L72.4893236,61.5173943 L73.3689045,66.194231 L67.8589756,68.9032442 L66.0125633,64.1448801 L56.9058191,67.045928 L56.9058191,70.818633 L48.2511691,71.8024014 L47.207961,68.9032442 L42.5347281,68.9032442 L42.2180109,68.8959891 C40.6347831,68.8234377 39.0569309,68.2067506 37.4844542,67.045928 L37.4844542,67.045928 L35.083725,71.8024014 L28.6352622,69.3968069 L30.0652969,65.3826772 L29.589667,65.1709567 C26.4584486,63.7617019 24.1201861,62.3967585 22.5748794,61.0761265 C20.9523075,59.6894629 18.1608981,57.2222203 14.2006512,53.6743987 Z M48.1589802,51.8074117 C46.4587786,51.8074117 43.779597,58.9862688 43.779597,60.8788895 C43.779597,62.7715103 46.7130286,62.4824192 49.3174507,62.4824192 C51.9218728,62.4824192 53.4910495,62.1819354 53.4910495,60.8788895 C53.4910495,59.5758437 49.8591819,51.8074117 48.1589802,51.8074117 Z M21.7699967,36.5952411 C20.1410215,42.1468337 19.7337777,45.9463161 20.5482653,47.9936883 C21.7699967,51.0647467 28.1069747,56.4314444 32.4486236,56.4314444 C35.3430563,56.4314444 38.5187542,54.1106461 41.9757174,49.4690496 C38.0496635,48.1721748 34.4105476,46.5218873 31.0583695,44.5181873 C27.7061914,42.5144872 24.6100671,39.8735052 21.7699967,36.5952411 Z M75.1376049,35.5179141 C73.7960404,37.3739831 71.1079478,39.9387761 67.0733271,43.2122932 C63.0387064,46.4858103 59.3364042,47.8987487 55.9664205,47.4511086 C57.8270259,53.4379991 61.5293281,55.9906874 67.0733271,55.1091733 C75.3893256,53.7869021 77.1733511,45.7130836 77.1733511,41.9893526 C77.1733511,39.5068653 76.4947691,37.3497192 75.1376049,35.5179141 Z" transform="translate(48.158980, 45.713084) rotate(4.000000) translate(-48.158980, -45.713084) "></path>
                </g>
            </g>
            <g id="Group-2-Copy-2" mask="url(#mask-2)" fill="#1F113D">
                <g transform="translate(192.500000, 44.500000) rotate(10.000000) translate(-192.500000, -44.500000) translate(157.000000, 10.000000)" id="Combined-Shape">
                    <path d="M36.1492554,2.47955314 C37.369173,2.47955314 41.1810181,3.61224179 41.1810181,4.58578795 C41.1810181,5.23481873 40.5728258,7.54291884 39.3564411,11.5100883 C40.5940233,11.5909056 42.1585774,12.0117254 44.0501033,12.7725475 C45.9416292,13.5333696 47.5478718,14.4383813 48.8688309,15.4875824 C56.3349529,16.406123 61.5295833,19.3901336 64.4527222,24.4396144 C68.8374304,32.0138356 71.5364055,40.6363679 64.4527222,53.6160933 C57.3690389,66.5958187 35.295525,69.786679 16.9432369,62.639686 C-1.40905131,55.492693 -0.018774175,28.476763 6.83148697,21.7598258 C16.7487496,12.0355789 22.8690053,14.6240475 22.8690053,14.6240475 C23.9582048,13.0821099 25.3111369,12.0441235 26.9278016,11.5100883 C28.5444662,10.9760531 30.1540651,10.6876741 31.756598,10.6449513 C32.156878,8.76433219 32.6514869,7.3091495 33.2404249,6.27940321 C34.1238318,4.73478377 34.9293378,2.47955314 36.1492554,2.47955314 Z M10.0980257,40.3949839 C9.92654897,42.3275227 10.0054298,44.1779547 10.3346683,45.9462798 C10.6639069,47.7146049 11.6159323,49.506649 13.1907448,51.3224121 L13.1907448,51.3224121 L14.5376709,50.4236309 L18.2203878,53.990986 L17.2362927,55.7271344 L17.6722794,56.0108379 C19.5462423,57.2143389 21.2211332,58.0813904 22.696952,58.6119925 C24.2862954,59.1834102 25.8871797,59.651581 27.4996049,60.0165051 L27.4996049,60.0165051 L28.440775,57.5909172 L34.7666467,58.6119925 L34.7666467,60.9574751 L35.1205129,61.0615368 C36.5509503,61.4556828 38.1610593,61.5846181 39.9508401,61.4483429 C41.8897692,61.3007113 43.558255,60.8234321 44.9562975,60.0165051 L44.9562975,60.0165051 L44.9562975,57.5909172 L49.6934985,55.7271344 L50.60843,58.6119925 L51.0361362,58.3785363 C54.6969847,56.3430726 57.1634229,53.9910312 58.435451,51.3224121 C59.7564032,48.5511538 60.7550056,45.165891 61.4312583,41.1666237 C59.5316873,42.7751849 58.1085455,43.8484048 57.1618331,44.3862833 C56.2151206,44.9241618 55.0482226,45.5544776 53.6611388,46.2772307 L53.6611388,46.2772307 L54.3185098,49.7848581 L50.2005629,51.8166181 L48.8206127,48.247845 L42.0145197,50.4236309 L42.0145197,53.2531596 L35.5463075,53.990986 L34.7666467,51.8166181 L31.2740201,51.8166181 L31.0035094,51.809511 C29.8315999,51.7479163 28.6636317,51.2859563 27.4996049,50.4236309 L27.4996049,50.4236309 L25.7053757,53.990986 L20.8859982,52.1867901 L21.954761,49.1761928 L21.5169419,48.9801124 C19.2180798,47.9363787 17.4979856,46.9251012 16.3566595,45.9462798 C15.1440005,44.9062821 13.0577892,43.0558502 10.0980257,40.3949839 Z M35.4774085,38.9947437 C34.2067315,38.9947437 32.2043958,44.3788865 32.2043958,45.7983521 C32.2043958,47.2178176 34.3967499,47.0009993 36.3432127,47.0009993 C38.2896756,47.0009993 39.4624287,46.7756365 39.4624287,45.7983521 C39.4624287,44.8210676 36.7480855,38.9947437 35.4774085,38.9947437 Z M15.7551155,27.5856157 C14.5376709,31.7493102 14.2333098,34.598922 14.8420321,36.1344512 C15.7551155,38.437745 20.4911728,42.4627682 23.7359841,42.4627682 C25.8991916,42.4627682 28.272608,40.7221695 30.8562331,37.2409721 C27.9220244,36.268316 25.2022641,35.0306004 22.696952,33.5278254 C20.19164,32.0250503 17.8776945,30.0443138 15.7551155,27.5856157 Z M55.6403806,26.7776205 C54.6377376,28.1696722 52.6287421,30.093267 49.613394,32.5484048 C46.5980459,35.0035426 43.8310622,36.0632465 41.3124428,35.7275163 C42.7030005,40.2176843 45.4699843,42.1322004 49.613394,41.4710649 C55.8285087,40.4793615 57.1618331,34.4239976 57.1618331,31.6311994 C57.1618331,29.7693339 56.6546823,28.1514743 55.6403806,26.7776205 Z" transform="translate(35.477408, 34.423998) rotate(4.000000) translate(-35.477408, -34.423998) "></path>
                </g>
            </g>
            <g id="Group-2-Copy-3" mask="url(#mask-2)" fill="#1F113D">
                <g transform="translate(199.500000, 159.000000) rotate(-18.000000) translate(-199.500000, -159.000000) translate(148.000000, 109.000000)" id="Combined-Shape">
                    <path d="M52.2955665,11.054522 C53.7903951,11.054522 58.4612476,12.4498631 58.4612476,13.6491591 C58.4612476,14.4486897 57.7159978,17.2920015 56.2254982,22.1790943 C57.7419722,22.2786519 59.6591019,22.797053 61.9768871,23.7342976 C64.2946724,24.6715423 66.2628851,25.7864117 67.8815252,27.0789059 C77.0301536,28.2104413 83.3954049,31.8863965 86.9772793,38.1067714 C92.3500908,47.4373337 95.6572856,58.0592937 86.9772793,74.0488106 C78.297273,90.0383274 51.2494461,93.9690973 28.7614311,85.1648305 C6.273416,76.3605638 7.97699503,43.0800704 16.370977,34.8055825 C28.5231157,22.8264378 36.0225839,26.015131 36.0225839,26.015131 C37.3572369,24.1156426 39.0150551,22.8369637 40.9960386,22.1790943 C42.977022,21.5212248 44.9493473,21.1659753 46.9130145,21.1133458 C47.4034984,18.7966411 48.0095685,17.0040248 48.7312248,15.7354967 C49.8137093,13.8327046 50.8007378,11.054522 52.2955665,11.054522 Z M20.3736372,57.7619367 C20.1635177,60.1426005 20.2601746,62.4221181 20.6636077,64.6004896 C21.0670408,66.7788611 22.2336072,68.9864517 24.163307,71.2232613 L24.163307,71.2232613 L25.8137658,70.116067 L30.3263907,74.5106349 L29.1205276,76.6493685 L29.5884589,76.9559767 C31.9115388,78.4608531 33.9859719,79.5432539 35.8117581,80.2031792 C37.7592634,80.9070995 39.7209103,81.4838317 41.6966989,81.9333758 L41.6966989,81.9333758 L42.8499637,78.9453328 L50.601384,80.2031792 L50.601384,83.0925418 L51.0037183,83.2120286 C52.7643044,83.7043734 54.7476804,83.8661085 56.9538463,83.697234 C59.3297172,83.5153691 61.3741998,82.9274163 63.0872942,81.9333758 L63.0872942,81.9333758 L63.0872942,78.9453328 L68.8920334,76.6493685 L70.0131466,80.2031792 L70.4854128,79.944503 C74.9997959,77.4304152 78.0393261,74.5233346 79.6040033,71.2232613 C81.2226349,67.8093924 82.4462745,63.6391411 83.2749222,58.7125075 C80.9472788,60.6940684 79.203429,62.0161508 78.0433729,62.6787547 C76.8833168,63.3413587 75.4534558,64.1178347 73.7537898,65.0081827 L73.7537898,65.0081827 L74.5593007,69.3291731 L69.5133658,71.8320657 L67.8224409,67.435751 L59.4825805,70.116067 L59.4825805,73.6017184 L51.556743,74.5106349 L50.601384,71.8320657 L46.3216866,71.8320657 L46.0316402,71.8253626 C44.5817369,71.7583314 43.1367565,71.1885662 41.6966989,70.116067 L41.6966989,70.116067 L39.4981364,74.5106349 L33.592702,72.2880748 L34.9023127,68.5793679 L34.4215193,68.3632016 C31.5766785,67.0684542 29.4503945,65.8142169 28.0426673,64.6004896 C26.5567329,63.319333 24.0003896,61.0398154 20.3736372,57.7619367 Z M51.4723174,56.0370031 C49.9152907,56.0370031 47.4617244,62.6696428 47.4617244,64.4182598 C47.4617244,66.1668768 50.1481302,65.8997818 52.5332325,65.8997818 C54.9183349,65.8997818 56.3553704,65.6221609 56.3553704,64.4182598 C56.3553704,63.2143587 53.0293442,56.0370031 51.4723174,56.0370031 Z M27.3055641,41.9822803 C25.8137658,47.111469 25.4408162,50.6218604 26.1867154,52.5134543 C27.3055641,55.3508452 33.1089019,60.3092072 37.0849383,60.3092072 C39.7356292,60.3092072 42.6438999,58.1649914 45.8097504,53.8765598 C42.2143116,52.6783603 38.8816475,51.1536382 35.8117581,49.3023936 C32.7418687,47.451149 29.9064707,45.0111112 27.3055641,41.9822803 Z M76.179058,40.9869238 C74.9504673,42.7017702 72.4887403,45.0714159 68.7938772,48.095861 C65.099014,51.1203061 61.7084847,52.4257384 58.6222891,52.0121578 C60.3262119,57.5435241 63.7167413,59.901986 68.7938772,59.0875437 C76.4095811,57.8658801 78.0433729,50.4063738 78.0433729,46.9659702 C78.0433729,44.6723678 77.4219346,42.6793524 76.179058,40.9869238 Z" transform="translate(51.472317, 50.406374) rotate(17.000000) translate(-51.472317, -50.406374) "></path>
                </g>
            </g>
            <g id="Group-2-Copy" mask="url(#mask-2)" fill="#1F113D">
                <g transform="translate(32.000000, 155.000000)" id="Combined-Shape">
                    <path d="M44.2759687,5 C45.6849473,5 50.0875464,6.2942199 50.0875464,7.40660221 C50.0875464,8.14819042 49.3850973,10.7854457 47.9801992,15.318368 C49.40958,15.4107106 51.2166063,15.8915429 53.401278,16.7608649 C55.5859498,17.6301869 57.4411253,18.664261 58.9668048,19.8630874 C67.590015,20.9126198 73.5897013,24.3221763 76.9658638,30.091757 C82.0301075,38.7461279 85.1473656,48.5983083 76.9658638,63.4290554 C68.784362,78.2598026 43.2899285,81.9057073 22.0934306,73.7394909 C0.896932661,65.5732745 2.50267283,34.7046381 10.414577,27.0298072 C21.8688019,15.9187982 28.9375656,18.8764049 28.9375656,18.8764049 C30.1955676,17.1145735 31.7581751,15.9285613 33.625388,15.318368 C35.4926009,14.7081747 37.3516529,14.3786704 39.202544,14.3298549 C39.6648587,12.1810432 40.2361214,10.5183388 40.916332,9.34174173 C41.936648,7.57684613 42.8669901,5 44.2759687,5 Z M14.6201832,47.8129459 C14.4236375,50.0320754 14.5140503,52.1569219 14.8914218,54.1874853 C15.2687932,56.2180486 16.3599998,58.2758485 18.1650415,60.3608848 L18.1650415,60.3608848 L19.7088812,59.3288165 L23.9299918,63.4252016 L22.8020272,65.4188165 L23.2686899,65.7233009 C25.4299835,67.116348 27.3607556,68.1190784 29.0610062,68.731492 C30.8827032,69.3876495 32.7176283,69.925249 34.5657815,70.3442904 L34.5657815,70.3442904 L35.6445458,67.5589938 L42.8952267,68.731492 L42.8952267,71.4248039 L43.2715702,71.5361833 C44.9184231,71.9951212 46.7736736,72.1458821 48.8373217,71.9884661 C51.0597121,71.8189412 52.9721218,71.2708826 54.5745507,70.3442904 L54.5745507,70.3442904 L54.5745507,67.5589938 L60.0043055,65.4188165 L61.0529952,68.731492 L61.5098106,68.4820065 C65.7242679,66.1404224 68.5624261,63.4333818 70.0242854,60.3608848 C71.5383538,57.1786557 72.6829467,53.2913667 73.458064,48.699018 C71.2807856,50.5461248 69.649588,51.7785005 68.5644712,52.3961451 C67.4793544,53.0137896 66.141862,53.7375797 64.5519939,54.5675153 L64.5519939,54.5675153 L65.305469,58.5953153 L60.5855001,60.9283802 L59.0038083,56.8303669 L51.2027004,59.3288165 L51.2027004,62.5779574 L43.7888697,63.4252016 L42.8952267,60.9283802 L38.8919964,60.9283802 L38.602604,60.9212711 C37.2524325,60.8549188 35.906825,60.3241006 34.5657815,59.3288165 L34.5657815,59.3288165 L32.5092455,63.4252016 L26.9853004,61.3534479 L28.2103107,57.8963864 L27.7359561,57.6837137 C25.0872405,56.4807756 23.1065206,55.3153661 21.7937963,54.1874853 C20.4038529,52.9932585 18.0126485,50.868412 14.6201832,47.8129459 Z M43.709898,46.2050534 C42.2534547,46.2050534 39.9583881,52.3876514 39.9583881,54.0176202 C39.9583881,55.548803 42.1758932,55.421894 44.2941538,55.4008869 L44.7022783,55.3986171 C46.9333038,55.3986171 48.2775072,55.1398335 48.2775072,54.0176202 C48.2775072,52.8954069 45.1663413,46.2050534 43.709898,46.2050534 Z M21.1043097,33.1039799 C19.7088812,37.8851399 19.360024,41.1573422 20.0577383,42.9205866 C21.1043097,45.5654532 26.5327536,50.1873775 30.2519393,50.1873775 C32.7313963,50.1873775 35.4517936,48.1886523 38.4131312,44.1912018 C35.0499566,43.0743032 31.9325817,41.6530375 29.0610062,39.9274046 C26.1894307,38.2017717 23.5371985,35.9272968 21.1043097,33.1039799 Z M66.8205905,32.1761609 C65.6713664,33.7746505 63.3686663,35.9835097 59.9124902,38.8027384 C56.4563141,41.6219671 53.2848119,42.8388224 50.3979836,42.4533043 C51.9918335,47.6093531 55.1633357,49.8077873 59.9124902,49.048607 C67.0362218,47.9098364 68.5644712,40.9564769 68.5644712,37.7495136 C68.5644712,35.6115381 67.9831776,33.7537538 66.8205905,32.1761609 Z" transform="translate(43.500000, 41.500000) rotate(-8.000000) translate(-43.500000, -41.500000) "></path>
                </g>
            </g>
        </g>
    </g>
</svg>